<svg id="Warstwa_1" data-name="Warstwa 1" xmlns="http://www.w3.org/2000/svg" viewBox="0 0 35.96 22.59"><title>Build discount</title><path d="M15.61,8.12h6.81a0,0,0,0,1,0,0V22.46a0,0,0,0,1,0,0H8.07a0,0,0,0,1,0,0v-6.8A7.54,7.54,0,0,1,15.61,8.12Z" fill="#f5f4f3" stroke="#342f22" stroke-miterlimit="10" stroke-width="0.25"/><path d="M12.9,5.94l-1-1a.32.32,0,0,1,0-.46l3-3A4.45,4.45,0,0,0,8.22,6.13L5.46,8.89A4.44,4.44,0,0,0,.79,15.57l3-3a.33.33,0,0,1,.47,0l1,1a.32.32,0,0,1,0,.46l-3,3a4.44,4.44,0,0,0,6.69-4.67l2.77-2.76a4.44,4.44,0,0,0,4.67-6.68l-3,3A.32.32,0,0,1,12.9,5.94Z" fill="#f5f4f3" stroke="#342f22" stroke-miterlimit="10" stroke-width="0.25"/><path d="M12.9,5.94l-1-1a.32.32,0,0,1,0-.46l3-3A4.45,4.45,0,0,0,8.22,6.13L5.46,8.89A4.44,4.44,0,0,0,.79,15.57l3-3a.33.33,0,0,1,.47,0l1,1a.32.32,0,0,1,0,.46l-3,3a4.44,4.44,0,0,0,6.69-4.67l2.77-2.76a4.44,4.44,0,0,0,4.67-6.68l-3,3A.32.32,0,0,1,12.9,5.94Z" fill="#f5f4f3" stroke="#342f22" stroke-miterlimit="10" stroke-width="0.25"/><path d="M28.32,15a7.4,7.4,0,1,1,7.39-7.39A7.41,7.41,0,0,1,28.32,15Z" fill="#f1e1b8"/><path d="M28.32.5a7.15,7.15,0,1,1-7.15,7.15A7.15,7.15,0,0,1,28.32.5m0-.5A7.65,7.65,0,1,0,36,7.65,7.65,7.65,0,0,0,28.32,0Z" fill="#746641"/></svg>