<svg id="Warstwa_1" data-name="Warstwa 1" xmlns="http://www.w3.org/2000/svg" viewBox="0 0 36.26 22.89"><title>Build research disconut</title><path d="M16.6,5.55A5.86,5.86,0,0,0,12,15L7.52,20.38a1.38,1.38,0,0,0,2.11,1.77l4.54-5.41a5.8,5.8,0,0,0,2.43.53,5.86,5.86,0,0,0,0-11.72Zm0,9.82a4,4,0,1,1,4-4A4,4,0,0,1,16.6,15.37Z" fill="#f2f0ee" stroke="#4f4c43" stroke-miterlimit="10" stroke-width="0.5"/><circle cx="16.6" cy="11.41" r="3.96" transform="translate(-3.21 15.08) rotate(-45)" fill="#d3cfcc" stroke="#4f4c43" stroke-miterlimit="10" stroke-width="0.5"/><path d="M12.9,5.88l-1-1a.32.32,0,0,1,0-.46l3-3A4.45,4.45,0,0,0,8.22,6.07L5.46,8.83A4.44,4.44,0,0,0,.79,15.51l3-3a.33.33,0,0,1,.47,0l1,1a.32.32,0,0,1,0,.46l-3,3a4.44,4.44,0,0,0,6.69-4.67l2.77-2.76a4.44,4.44,0,0,0,4.67-6.68l-3,3A.32.32,0,0,1,12.9,5.88Z" fill="#f5f4f3" stroke="#342f22" stroke-miterlimit="10" stroke-width="0.25"/><path d="M12.9,5.88l-1-1a.32.32,0,0,1,0-.46l3-3A4.45,4.45,0,0,0,8.22,6.07L5.46,8.83A4.44,4.44,0,0,0,.79,15.51l3-3a.33.33,0,0,1,.47,0l1,1a.32.32,0,0,1,0,.46l-3,3a4.44,4.44,0,0,0,6.69-4.67l2.77-2.76a4.44,4.44,0,0,0,4.67-6.68l-3,3A.32.32,0,0,1,12.9,5.88Z" fill="#f5f4f3" stroke="#342f22" stroke-miterlimit="10" stroke-width="0.25"/><path d="M28.62,15A7.4,7.4,0,1,1,36,7.65,7.41,7.41,0,0,1,28.62,15Z" fill="#f1e1b8"/><path d="M28.62.5a7.15,7.15,0,1,1-7.15,7.15A7.15,7.15,0,0,1,28.62.5m0-.5a7.65,7.65,0,1,0,7.64,7.65A7.64,7.64,0,0,0,28.62,0Z" fill="#746641"/></svg>