<svg id="Warstwa_1" data-name="Warstwa 1" xmlns="http://www.w3.org/2000/svg" viewBox="0 0 21.39 20.75"><title>Build (red)</title><rect x="8.25" y="7.61" width="13.01" height="13.02" fill="#bd172c"/><path d="M21.14,7.73V20.5H8.38V7.73H21.14m.25-.25H8.13V20.75H21.39V7.48Z" fill="#621520"/><path d="M18.22,14.64A3.26,3.26,0,0,0,18,14c-.27-.48-.53-.56-.68-.88a1.46,1.46,0,0,1,.07-1.24.82.82,0,0,0-.65.06.85.85,0,0,0-.34.61c-.06.37.1.44.08.85a1,1,0,0,1-.34.82.7.7,0,0,1-.71.07.8.8,0,0,1-.31-.6c-.06-.74.7-1,.77-1.77a1.86,1.86,0,0,0-.34-1.07,3.06,3.06,0,0,0-1.29-1.24,2.48,2.48,0,0,1,.11,1.55,2.64,2.64,0,0,1-.62,1.07c-.45.52-.7.5-1.21,1a3.41,3.41,0,0,0-1.22,1.77,2.89,2.89,0,0,0,.2,1.78,3.28,3.28,0,0,0,1.42,1.56,4.74,4.74,0,0,0,.69.28,2.57,2.57,0,0,1-1-1.57,2.74,2.74,0,0,1,.3-1.88,2.67,2.67,0,0,1,.92-.95,2,2,0,0,0-.43,1.3c0,.11.05.68.35.78s.31-.06.51-.15a1.75,1.75,0,0,1,1.78.21,1.51,1.51,0,0,1,.32,1.56,1.54,1.54,0,0,1-.64.8,3.24,3.24,0,0,0,1.57-.85A3.49,3.49,0,0,0,18.22,14.64Z" fill="#621520"/><path d="M12.21,5l-1-1a.3.3,0,0,1,0-.43L14.12.75A4.21,4.21,0,0,0,7.86,3.2a4.14,4.14,0,0,0-.07,2L5.17,7.79a4.14,4.14,0,0,0-2,.07A4.21,4.21,0,0,0,.75,14.12l2.86-2.86a.3.3,0,0,1,.43,0l1,1a.31.31,0,0,1,0,.44L2.14,15.5A4.21,4.21,0,0,0,8.4,13.05a4.23,4.23,0,0,0,.07-2l2.62-2.62A4.2,4.2,0,0,0,16,5.19a4.17,4.17,0,0,0-.54-3.05L12.65,5A.31.31,0,0,1,12.21,5Z" fill="#f5f4f3" stroke="#342f22" stroke-miterlimit="10" stroke-width="0.25"/><path d="M12.21,5l-1-1a.3.3,0,0,1,0-.43L14.12.75A4.21,4.21,0,0,0,7.86,3.2a4.14,4.14,0,0,0-.07,2L5.17,7.79a4.14,4.14,0,0,0-2,.07A4.21,4.21,0,0,0,.75,14.12l2.86-2.86a.3.3,0,0,1,.43,0l1,1a.31.31,0,0,1,0,.44L2.14,15.5A4.21,4.21,0,0,0,8.4,13.05a4.23,4.23,0,0,0,.07-2l2.62-2.62A4.2,4.2,0,0,0,16,5.19a4.17,4.17,0,0,0-.54-3.05L12.65,5A.31.31,0,0,1,12.21,5Z" fill="#f5f4f3" stroke="#342f22" stroke-miterlimit="10" stroke-width="0.25"/></svg>