<svg id="Warstwa_1" data-name="Warstwa 1" xmlns="http://www.w3.org/2000/svg" viewBox="0 0 21.35 20.77"><title>Build (any)</title><path d="M15.18,7.06h6a0,0,0,0,1,0,0V20.64a0,0,0,0,1,0,0H7.64a0,0,0,0,1,0,0v-6a7.54,7.54,0,0,1,7.54-7.54Z" fill="#f5f4f3" stroke="#342f22" stroke-miterlimit="10" stroke-width="0.25"/><path d="M12.21,5l-1-1a.3.3,0,0,1,0-.43L14.12.75A4.21,4.21,0,0,0,7.86,3.2a4.14,4.14,0,0,0-.07,2L5.17,7.79a4.14,4.14,0,0,0-2,.07A4.21,4.21,0,0,0,.75,14.12l2.86-2.86a.3.3,0,0,1,.43,0l1,1a.31.31,0,0,1,0,.44L2.14,15.5A4.21,4.21,0,0,0,8.4,13.05a4.23,4.23,0,0,0,.07-2l2.62-2.62A4.2,4.2,0,0,0,16,5.19a4.17,4.17,0,0,0-.54-3.05L12.65,5A.31.31,0,0,1,12.21,5Z" fill="#f5f4f3" stroke="#342f22" stroke-miterlimit="10" stroke-width="0.25"/><path d="M12.21,5l-1-1a.3.3,0,0,1,0-.43L14.12.75A4.21,4.21,0,0,0,7.86,3.2a4.14,4.14,0,0,0-.07,2L5.17,7.79a4.14,4.14,0,0,0-2,.07A4.21,4.21,0,0,0,.75,14.12l2.86-2.86a.3.3,0,0,1,.43,0l1,1a.31.31,0,0,1,0,.44L2.14,15.5A4.21,4.21,0,0,0,8.4,13.05a4.23,4.23,0,0,0,.07-2l2.62-2.62A4.2,4.2,0,0,0,16,5.19a4.17,4.17,0,0,0-.54-3.05L12.65,5A.31.31,0,0,1,12.21,5Z" fill="#f5f4f3" stroke="#342f22" stroke-miterlimit="10" stroke-width="0.25"/></svg>