<svg id="Warstwa_1" data-name="Warstwa 1" xmlns="http://www.w3.org/2000/svg" viewBox="0 0 21.39 20.75"><title>Build (black)</title><rect x="8.25" y="7.61" width="13.02" height="13.02" fill="#8b8987"/><path d="M21.14,7.73V20.5H8.38V7.73H21.14m.25-.25H8.13V20.75H21.39V7.48Z"/><path d="M17.05,10.49H15.67V9.9a.48.48,0,0,0-.48-.48h-.86a.48.48,0,0,0-.48.48v.59H12.47A.47.47,0,0,0,12,11v7.36a.48.48,0,0,0,.47.48h4.58a.48.48,0,0,0,.47-.48V11A.47.47,0,0,0,17.05,10.49Zm-.78,6.64a.16.16,0,0,1-.16.16h-2.7a.16.16,0,0,1-.16-.16v-.54a.17.17,0,0,1,.16-.17h2.7a.17.17,0,0,1,.16.17Zm0-3.41a.16.16,0,0,1-.16.16H15.2v.92A.17.17,0,0,1,15,15h-.54a.17.17,0,0,1-.17-.16v-.92h-.91a.16.16,0,0,1-.16-.16v-.54a.17.17,0,0,1,.16-.17h.91V12.1a.18.18,0,0,1,.17-.17H15a.18.18,0,0,1,.17.17V13h.91a.17.17,0,0,1,.16.17Z" stroke="#000" stroke-miterlimit="10" stroke-width="0.25"/><path d="M12.21,5l-1-1a.3.3,0,0,1,0-.43L14.12.75A4.21,4.21,0,0,0,7.86,3.2a4.14,4.14,0,0,0-.07,2L5.17,7.79a4.14,4.14,0,0,0-2,.07A4.21,4.21,0,0,0,.75,14.12l2.86-2.86a.3.3,0,0,1,.43,0l1,1a.31.31,0,0,1,0,.44L2.14,15.5A4.21,4.21,0,0,0,8.4,13.05a4.23,4.23,0,0,0,.07-2l2.62-2.62A4.2,4.2,0,0,0,16,5.19a4.17,4.17,0,0,0-.54-3.05L12.65,5A.31.31,0,0,1,12.21,5Z" fill="#f5f4f3" stroke="#342f22" stroke-miterlimit="10" stroke-width="0.25"/><path d="M12.21,5l-1-1a.3.3,0,0,1,0-.43L14.12.75A4.21,4.21,0,0,0,7.86,3.2a4.14,4.14,0,0,0-.07,2L5.17,7.79a4.14,4.14,0,0,0-2,.07A4.21,4.21,0,0,0,.75,14.12l2.86-2.86a.3.3,0,0,1,.43,0l1,1a.31.31,0,0,1,0,.44L2.14,15.5A4.21,4.21,0,0,0,8.4,13.05a4.23,4.23,0,0,0,.07-2l2.62-2.62A4.2,4.2,0,0,0,16,5.19a4.17,4.17,0,0,0-.54-3.05L12.65,5A.31.31,0,0,1,12.21,5Z" fill="#f5f4f3" stroke="#342f22" stroke-miterlimit="10" stroke-width="0.25"/></svg>