<svg id="Warstwa_1" data-name="Warstwa 1" xmlns="http://www.w3.org/2000/svg" viewBox="0 0 21.39 20.75"><title>Build (blue)</title><rect x="8.25" y="7.61" width="13.01" height="13.02" fill="#5b6aab"/><path d="M21.14,7.73V20.5H8.38V7.73H21.14m.25-.25H8.13V20.75H21.39V7.48Z" fill="#002350"/><path d="M18,14.11l.17-.21c.58-.77.74-1.48.45-2s-1-.72-1.95-.6l-.26,0c-.37-1-.94-1.64-1.6-1.64s-1.23.63-1.6,1.64l-.26,0c-1-.12-1.65.09-2,.6s-.13,1.22.45,2l.17.21c-.69.82-1,1.62-.62,2.2A1.56,1.56,0,0,0,12.4,17a4.57,4.57,0,0,0,.5,0l.26,0c.37,1,.94,1.64,1.6,1.64s1.23-.63,1.6-1.64l.26,0a4.57,4.57,0,0,0,.5,0,1.56,1.56,0,0,0,1.45-.64c.29-.51.13-1.22-.45-2ZM16.7,11.89l.41,0c.48,0,.82.12.95.35s0,.78-.41,1.33a1.34,1.34,0,0,1-.11.14,7.16,7.16,0,0,0-.82-.7,7.74,7.74,0,0,0-.19-1.06Zm-1.22,3.47c-.24.13-.48.26-.72.37-.24-.11-.48-.24-.72-.37s-.47-.29-.68-.44a8.22,8.22,0,0,1,0-1.62c.21-.15.44-.3.68-.44s.48-.26.72-.37c.24.11.48.24.72.37s.47.29.68.44a8.22,8.22,0,0,1,0,1.62C16,15.07,15.72,15.22,15.48,15.36Zm.58.33c0,.17-.07.33-.11.49L15.48,16l.29-.16ZM14,16l-.47.15c0-.16-.08-.32-.11-.49l.29.18Zm-1.3-1.58-.37-.34.37-.34c0,.11,0,.23,0,.34S12.74,14.33,12.74,14.45Zm.72-1.92c0-.17.07-.33.11-.49l.47.15-.29.16Zm2-.34L16,12c0,.16.08.32.11.49l-.29-.18Zm1.3,1.58.37.34-.37.34c0-.12,0-.23,0-.34S16.78,13.89,16.78,13.77Zm-2-3.47c.36,0,.74.44,1,1.18a9.77,9.77,0,0,0-1,.37,9.77,9.77,0,0,0-1-.37C14,10.74,14.4,10.3,14.76,10.3Zm-2.89,3.24c-.42-.55-.57-1-.41-1.33s.47-.35.95-.35l.41,0,.17,0A6.47,6.47,0,0,0,12.8,13a8.44,8.44,0,0,0-.83.69A1.47,1.47,0,0,1,11.87,13.54Zm1,2.79c-.69.09-1.19,0-1.36-.32s0-.86.52-1.47a7.16,7.16,0,0,0,.82.7A6.47,6.47,0,0,0,13,16.3Zm1.94,1.59c-.36,0-.74-.44-1-1.18a9.77,9.77,0,0,0,1-.37,9.77,9.77,0,0,0,1,.37C15.5,17.48,15.12,17.92,14.76,17.92ZM18.06,16c-.17.29-.68.41-1.36.32l-.17,0a7.74,7.74,0,0,0,.19-1.06,7.16,7.16,0,0,0,.82-.7,1.34,1.34,0,0,1,.11.14C18.07,15.23,18.22,15.73,18.06,16Z" fill="#002350"/><path d="M12.21,5l-1-1a.3.3,0,0,1,0-.43L14.12.75A4.21,4.21,0,0,0,7.86,3.2a4.14,4.14,0,0,0-.07,2L5.17,7.79a4.14,4.14,0,0,0-2,.07A4.21,4.21,0,0,0,.75,14.12l2.86-2.86a.3.3,0,0,1,.43,0l1,1a.31.31,0,0,1,0,.44L2.14,15.5A4.21,4.21,0,0,0,8.4,13.05a4.23,4.23,0,0,0,.07-2l2.62-2.62A4.2,4.2,0,0,0,16,5.19a4.17,4.17,0,0,0-.54-3.05L12.65,5A.31.31,0,0,1,12.21,5Z" fill="#f5f4f3" stroke="#342f22" stroke-miterlimit="10" stroke-width="0.25"/><path d="M12.21,5l-1-1a.3.3,0,0,1,0-.43L14.12.75A4.21,4.21,0,0,0,7.86,3.2a4.14,4.14,0,0,0-.07,2L5.17,7.79a4.14,4.14,0,0,0-2,.07A4.21,4.21,0,0,0,.75,14.12l2.86-2.86a.3.3,0,0,1,.43,0l1,1a.31.31,0,0,1,0,.44L2.14,15.5A4.21,4.21,0,0,0,8.4,13.05a4.23,4.23,0,0,0,.07-2l2.62-2.62A4.2,4.2,0,0,0,16,5.19a4.17,4.17,0,0,0-.54-3.05L12.65,5A.31.31,0,0,1,12.21,5Z" fill="#f5f4f3" stroke="#342f22" stroke-miterlimit="10" stroke-width="0.25"/></svg>