<svg id="Warstwa_1" data-name="Warstwa 1" xmlns="http://www.w3.org/2000/svg" viewBox="0 0 36.57 20.82"><title>Build file disconut</title><path d="M8.58,9.32V20.26a.43.43,0,0,0,.43.43H20.64a.43.43,0,0,0,.43-.43v-6.1a.42.42,0,0,0-.44-.42,32.44,32.44,0,0,1-4.63,0c-.19-.18-2.1-3.68-2.6-4.61A.45.45,0,0,0,13,8.89H9A.43.43,0,0,0,8.58,9.32Z" fill="#d3d0cd" stroke="#615d5c" stroke-miterlimit="10" stroke-width="0.25"/><rect x="10.07" y="10.2" width="11.69" height="7.07" rx="0.56" ry="0.56" transform="matrix(0.85, -0.53, 0.53, 0.85, -4.85, 10.44)" fill="#fffbf8" stroke="#615d5c" stroke-miterlimit="10" stroke-width="0.25"/><rect x="12.57" y="11.31" width="11.69" height="7.07" rx="0.56" ry="0.56" transform="translate(-3.31 5.5) rotate(-15.6)" fill="#fffbf8" stroke="#615d5c" stroke-miterlimit="10" stroke-width="0.25"/><path d="M8.62,20.1l3.81-7.83A.41.41,0,0,1,12.8,12h12a.41.41,0,0,1,.37.59l-3.8,7.83a.41.41,0,0,1-.37.23H9A.41.41,0,0,1,8.62,20.1Z" fill="#d3d0cd" stroke="#615d5c" stroke-miterlimit="10" stroke-width="0.25"/><path d="M12.9,5.8l-1-1a.32.32,0,0,1,0-.46l3-3A4.45,4.45,0,0,0,8.22,6L5.46,8.74A4.45,4.45,0,0,0,.79,15.43l3-3a.33.33,0,0,1,.47,0l1,1a.33.33,0,0,1,0,.47l-3,3a4.44,4.44,0,0,0,6.69-4.66l2.77-2.77a4.44,4.44,0,0,0,4.67-6.68l-3,3A.34.34,0,0,1,12.9,5.8Z" fill="#f5f4f3" stroke="#342f22" stroke-miterlimit="10" stroke-width="0.25"/><path d="M12.9,5.8l-1-1a.32.32,0,0,1,0-.46l3-3A4.45,4.45,0,0,0,8.22,6L5.46,8.74A4.45,4.45,0,0,0,.79,15.43l3-3a.33.33,0,0,1,.47,0l1,1a.33.33,0,0,1,0,.47l-3,3a4.44,4.44,0,0,0,6.69-4.66l2.77-2.77a4.44,4.44,0,0,0,4.67-6.68l-3,3A.34.34,0,0,1,12.9,5.8Z" fill="#f5f4f3" stroke="#342f22" stroke-miterlimit="10" stroke-width="0.25"/><path d="M28.92,15a7.4,7.4,0,1,1,7.4-7.39A7.4,7.4,0,0,1,28.92,15Z" fill="#f1e1b8"/><path d="M28.92.5a7.15,7.15,0,1,1-7.14,7.15A7.16,7.16,0,0,1,28.92.5m0-.5a7.65,7.65,0,1,0,7.65,7.65A7.64,7.64,0,0,0,28.92,0Z" fill="#746641"/></svg>