<svg id="Warstwa_1" data-name="Warstwa 1" xmlns="http://www.w3.org/2000/svg" viewBox="0 0 40 40"><title>Przycisk-klucz</title><path d="M20,1A19,19,0,1,1,1,20,19,19,0,0,1,20,1m0-1A20,20,0,1,0,40,20,20,20,0,0,0,20,0Z" style="fill:#fff"/><path d="M14.07,32.15a6.22,6.22,0,0,1-2.83-.69l4.12-4.12a.85.85,0,0,0,0-1.21l-1.49-1.49a.84.84,0,0,0-.6-.25.86.86,0,0,0-.61.25L8.54,28.76a6.2,6.2,0,0,1,3.86-8.82,6.34,6.34,0,0,1,1.67-.23,6.41,6.41,0,0,1,1.23.12l.19,0,4.38-4.38,0-.19a6.32,6.32,0,0,1,.11-2.9A6.21,6.21,0,0,1,24.66,8a6.84,6.84,0,0,1,1.27-.13,6.22,6.22,0,0,1,2.83.69l-4.12,4.12a.85.85,0,0,0,0,1.21l1.48,1.49a.88.88,0,0,0,.61.25.86.86,0,0,0,.61-.25l4.12-4.12a6.2,6.2,0,0,1-3.86,8.82,6.34,6.34,0,0,1-1.67.23,6.41,6.41,0,0,1-1.23-.12l-.19,0-4.38,4.38,0,.19A6.23,6.23,0,0,1,15.34,32,6.84,6.84,0,0,1,14.07,32.15Z" style="fill:#fff"/><path d="M25.93,8.23h0a5.61,5.61,0,0,1,2.18.43L24.37,12.4a1.23,1.23,0,0,0,0,1.74l1.49,1.49a1.23,1.23,0,0,0,1.74,0l3.75-3.74a5.77,5.77,0,0,1,.3,3.37A5.83,5.83,0,0,1,27.5,19.7a6.05,6.05,0,0,1-1.57.21,5.6,5.6,0,0,1-1.15-.11l-.4-.08L24.1,20,20,24.1l-.28.28.08.4a5.84,5.84,0,0,1-4.54,6.87,5.93,5.93,0,0,1-1.19.12,5.61,5.61,0,0,1-2.18-.43l3.74-3.74a1.23,1.23,0,0,0,0-1.74l-1.49-1.49a1.23,1.23,0,0,0-1.74,0L8.65,28.11a5.77,5.77,0,0,1-.3-3.37A5.83,5.83,0,0,1,12.5,20.3a6.05,6.05,0,0,1,1.57-.21,5.54,5.54,0,0,1,1.15.11l.4.08L15.9,20,20,15.9l.28-.28-.08-.4a5.84,5.84,0,0,1,4.54-6.87,5.93,5.93,0,0,1,1.19-.12m0-.75a6.83,6.83,0,0,0-1.34.13,6.62,6.62,0,0,0-5.13,7.76l-4.09,4.09a6.91,6.91,0,0,0-1.3-.12,6.5,6.5,0,0,0-1.77.24,6.57,6.57,0,0,0-3.84,9.79l4.47-4.47a.48.48,0,0,1,.34-.14.49.49,0,0,1,.34.14l1.49,1.49a.48.48,0,0,1,0,.68l-4.47,4.47a6.51,6.51,0,0,0,3.44,1,6.83,6.83,0,0,0,1.34-.13,6.62,6.62,0,0,0,5.13-7.76l4.09-4.09a6.91,6.91,0,0,0,1.3.12,6.5,6.5,0,0,0,1.77-.24,6.57,6.57,0,0,0,3.84-9.79L27.07,15.1a.48.48,0,0,1-.34.14.49.49,0,0,1-.34-.14L24.9,13.61a.48.48,0,0,1,0-.68l4.47-4.47a6.51,6.51,0,0,0-3.44-1Z" style="fill:#fff"/><path d="M14.07,32.15a6.22,6.22,0,0,1-2.83-.69l4.12-4.12a.85.85,0,0,0,0-1.21l-1.49-1.49a.84.84,0,0,0-.6-.25.86.86,0,0,0-.61.25L8.54,28.76a6.2,6.2,0,0,1,3.86-8.82,6.34,6.34,0,0,1,1.67-.23,6.41,6.41,0,0,1,1.23.12l.19,0,4.38-4.38,0-.19a6.32,6.32,0,0,1,.11-2.9A6.21,6.21,0,0,1,24.66,8a6.84,6.84,0,0,1,1.27-.13,6.22,6.22,0,0,1,2.83.69l-4.12,4.12a.85.85,0,0,0,0,1.21l1.48,1.49a.88.88,0,0,0,.61.25.86.86,0,0,0,.61-.25l4.12-4.12a6.2,6.2,0,0,1-3.86,8.82,6.34,6.34,0,0,1-1.67.23,6.41,6.41,0,0,1-1.23-.12l-.19,0-4.38,4.38,0,.19A6.23,6.23,0,0,1,15.34,32,6.84,6.84,0,0,1,14.07,32.15Z" style="fill:#fff"/><path d="M25.93,8.23h0a5.61,5.61,0,0,1,2.18.43L24.37,12.4a1.23,1.23,0,0,0,0,1.74l1.49,1.49a1.23,1.23,0,0,0,1.74,0l3.75-3.74a5.77,5.77,0,0,1,.3,3.37A5.83,5.83,0,0,1,27.5,19.7a6.05,6.05,0,0,1-1.57.21,5.54,5.54,0,0,1-1.15-.11l-.4-.08L24.1,20,20,24.1l-.28.28.08.4a5.84,5.84,0,0,1-4.54,6.87,5.93,5.93,0,0,1-1.19.12,5.61,5.61,0,0,1-2.18-.43l3.74-3.74a1.23,1.23,0,0,0,0-1.74l-1.49-1.49a1.23,1.23,0,0,0-1.74,0L8.65,28.11a5.77,5.77,0,0,1-.3-3.37A5.83,5.83,0,0,1,12.5,20.3a6.05,6.05,0,0,1,1.57-.21,5.54,5.54,0,0,1,1.15.11l.4.08L15.9,20,20,15.9l.28-.28-.08-.4a5.84,5.84,0,0,1,4.54-6.87,5.93,5.93,0,0,1,1.19-.12m0-.75a6.83,6.83,0,0,0-1.34.13,6.62,6.62,0,0,0-5.13,7.76l-4.09,4.09a6.91,6.91,0,0,0-1.3-.12,6.5,6.5,0,0,0-1.77.24,6.57,6.57,0,0,0-3.84,9.79l4.47-4.47a.48.48,0,0,1,.34-.14.49.49,0,0,1,.34.14l1.49,1.49a.48.48,0,0,1,0,.68l-4.47,4.47a6.51,6.51,0,0,0,3.44,1,6.83,6.83,0,0,0,1.34-.13,6.62,6.62,0,0,0,5.13-7.76l4.09-4.09a6.91,6.91,0,0,0,1.3.12,6.5,6.5,0,0,0,1.77-.24,6.57,6.57,0,0,0,3.84-9.79L27.07,15.1a.48.48,0,0,1-.34.14.49.49,0,0,1-.34-.14L24.9,13.61a.48.48,0,0,1,0-.68l4.47-4.47a6.51,6.51,0,0,0-3.44-1Z" style="fill:#fff"/></svg>