<svg id="Warstwa_1" data-name="Warstwa 1" xmlns="http://www.w3.org/2000/svg" viewBox="0 0 40 40"><title>Przycisk-ręka</title><path d="M20,1A19,19,0,1,1,1,20,19,19,0,0,1,20,1m0-1A20,20,0,1,0,40,20,20,20,0,0,0,20,0Z" style="fill:#fff"/><path d="M21.14,30.38a2.41,2.41,0,0,1,.92-2l1.21-1,.8-2.65a1.28,1.28,0,0,0-.22-1.16l-2.23-2.83a1.26,1.26,0,0,0-1-.49l-.19,0-.55.08a1.27,1.27,0,0,0-.82.48l-2.3,2.94a1.28,1.28,0,0,0-.2,1.18l.1.31a2.59,2.59,0,0,1-1.11,3l-.06,0-1.11-5a.52.52,0,0,1,.09-.44l1-1.29a.85.85,0,0,0,.06-.94l-.3-.51a.85.85,0,0,0-.72-.41.8.8,0,0,0-.47.15L9.2,23.15A1.71,1.71,0,0,1,7,22.86l-.26-.29,7.08-4.36L13.48,17,10,16.86a1.59,1.59,0,0,1-1.53-1.61V15l7.39.54.73-1.12L13.77,13a2,2,0,0,1-1.07-1.75v-.32l7.71,3a.89.89,0,0,0,.32.08l5.84.64,1.26-2.53,4.94,3-4.31,7-2.41,6a.49.49,0,0,1-.22.25l-4.68,2.79Z" style="fill:#fff"/><path d="M13.09,11.48l7.18,2.81a1.63,1.63,0,0,0,.42.11l5.58.61.52.06L27,14.6l1-1.92,4.27,2.53-4.11,6.65,0,.05,0,.06-2.39,5.9a.14.14,0,0,1-.06.07L21.51,30.4v0a2.07,2.07,0,0,1,.78-1.66l1.12-.87.19-.14.06-.23.77-2.54a1.65,1.65,0,0,0-.28-1.5L21.91,20.6A1.62,1.62,0,0,0,20.62,20a1,1,0,0,0-.24,0l-.55.08a1.64,1.64,0,0,0-1.07.62l-2.29,2.94a1.66,1.66,0,0,0-.27,1.53l.1.31a2.21,2.21,0,0,1-.57,2.28l-1-4.48a.15.15,0,0,1,0-.13l1-1.29a1.21,1.21,0,0,0,.09-1.37l-.3-.5a1.23,1.23,0,0,0-1-.59,1.26,1.26,0,0,0-.68.2L9,22.84a1.33,1.33,0,0,1-1.68-.18l6.45-4,.48-.3-.15-.54-.18-.67-.14-.52-.55,0L10,16.49A1.21,1.21,0,0,1,8.8,15.38l6.76.5.45,0,.24-.37.38-.59.45-.7-.74-.38-2.4-1.22a1.6,1.6,0,0,1-.85-1.17m-.53-1a.24.24,0,0,0-.24.24v.51a2.34,2.34,0,0,0,1.28,2.09L16,14.54l-.38.59-7.3-.53h0a.25.25,0,0,0-.25.25v.4a2,2,0,0,0,1.89,2l3.26.14.18.67-7,4.3a.23.23,0,0,0,0,.35l.37.42a2,2,0,0,0,1.55.7,2.1,2.1,0,0,0,1.15-.35l4.85-3.24a.42.42,0,0,1,.26-.08.46.46,0,0,1,.39.22l.3.51a.45.45,0,0,1,0,.52l-1,1.29a.88.88,0,0,0-.17.75l1.16,5.25a.22.22,0,0,0,.22.18.28.28,0,0,0,.12,0l.23-.14A3,3,0,0,0,17,25.23l-.1-.3a.91.91,0,0,1,.15-.83l2.3-3a.86.86,0,0,1,.58-.34l.55-.08h.13a.88.88,0,0,1,.7.34l2.24,2.84a.88.88,0,0,1,.15.81L23,27.25l-1.12.87a2.8,2.8,0,0,0-1.07,2.27l0,.89a.25.25,0,0,0,.25.24.19.19,0,0,0,.12,0L26,28.59a.88.88,0,0,0,.37-.44l2.39-5.9,4.39-7.09a.23.23,0,0,0-.08-.32l-5.21-3.09a.2.2,0,0,0-.11,0,.23.23,0,0,0-.21.13l-1.21,2.41-5.58-.61a1,1,0,0,1-.23-.06l-7.9-3.09-.08,0Z" style="fill:#fff"/></svg>