<svg id="Warstwa_1" data-name="Warstwa 1" xmlns="http://www.w3.org/2000/svg" viewBox="0 0 40 40"><title>Przycisk-lupa</title><path d="M20,1A19,19,0,1,1,1,20,19,19,0,0,1,20,1m0-1A20,20,0,1,0,40,20,20,20,0,0,0,20,0Z" style="fill:#fff"/><path d="M10.63,31.83a1.84,1.84,0,0,1-1.17-.42,1.82,1.82,0,0,1-.22-2.55l6.84-8.15L16,20.55a8.43,8.43,0,0,1-1.84-5.27,8.53,8.53,0,1,1,8.53,8.52A8.45,8.45,0,0,1,19.1,23L18.93,23,12,31.19A1.79,1.79,0,0,1,10.63,31.83Zm12-22.73a6.18,6.18,0,1,0,6.18,6.18A6.18,6.18,0,0,0,22.65,9.1Z" style="fill:#fff"/><path d="M22.65,7a8.28,8.28,0,1,1,0,16.55,8.2,8.2,0,0,1-3.44-.75l-.35-.16-.24.29L11.82,31a1.55,1.55,0,0,1-1.2.55,1.59,1.59,0,0,1-1-.36A1.57,1.57,0,0,1,9.43,29l6.72-8,.26-.31-.26-.32A8.27,8.27,0,0,1,22.65,7m0,14.71a6.43,6.43,0,1,0-6.43-6.43,6.44,6.44,0,0,0,6.43,6.43m0-15.21a8.77,8.77,0,0,0-6.89,14.21l-6.71,8a2.07,2.07,0,0,0,.25,2.9,2,2,0,0,0,1.32.48,2.06,2.06,0,0,0,1.58-.73l6.8-8.1A8.77,8.77,0,1,0,22.65,6.5Zm0,14.71a5.93,5.93,0,1,1,5.93-5.93,5.94,5.94,0,0,1-5.93,5.93Z" style="fill:#fff"/></svg>