<svg id="Warstwa_1" data-name="Warstwa 1" xmlns="http://www.w3.org/2000/svg" viewBox="0 0 40 40"><title>Przycisk-strzałka</title><path d="M20,1A19,19,0,1,1,1,20,19,19,0,0,1,20,1m0-1A20,20,0,1,0,40,20,20,20,0,0,0,20,0Z" style="fill:#fff"/><path d="M15.1,32.26a1.17,1.17,0,0,1-.55-.13,1.15,1.15,0,0,1-.5-.45,1.52,1.52,0,0,1-.18-.66,12.88,12.88,0,0,1,1.21-3c1.12-2.37,2.65-5.62,2.74-8s-1.21-4.61-2.35-6.58c-1-1.67-1.88-3.25-1.61-4.44a1.68,1.68,0,0,1,.69-1.18A1,1,0,0,1,15,7.74a2,2,0,0,1,.91.26L30.16,19a1.23,1.23,0,0,1,0,1.94L15.84,32A1.19,1.19,0,0,1,15.1,32.26Z" style="fill:#fff"/><path d="M15,8.11a1.67,1.67,0,0,1,.69.19l14.27,11a.84.84,0,0,1,.33.67.83.83,0,0,1-.33.67L15.61,31.71a.81.81,0,0,1-.51.18.85.85,0,0,1-.38-.09.9.9,0,0,1-.34-.31,1.08,1.08,0,0,1-.14-.48,16.43,16.43,0,0,1,1.18-2.82c1.13-2.39,2.69-5.68,2.78-8.15S17,15.27,15.8,13.26c-.93-1.6-1.81-3.12-1.58-4.17.06-.23.18-.77.5-.92A.53.53,0,0,1,15,8.11m0-.75a1.4,1.4,0,0,0-.59.13,2,2,0,0,0-.9,1.44c-.63,2.79,4.11,6.73,4,11.08-.14,3.77-4,9.77-4,11a1.94,1.94,0,0,0,.24.85,1.65,1.65,0,0,0,.66.59,1.56,1.56,0,0,0,1.68-.17l14.32-11a1.6,1.6,0,0,0,0-2.53L16.07,7.66A2.52,2.52,0,0,0,15,7.36Z" style="fill:#fff"/></svg>