<svg id="Warstwa_1" data-name="Warstwa 1" xmlns="http://www.w3.org/2000/svg" viewBox="0 0 110.16 36.23"><title>Strzałka 1 (trójkąty-ramka)</title><polygon points="100.28 18.11 79.98 6.39 79.98 29.83 100.28 18.11 79.98 6.39 79.98 29.83 100.28 18.11" style="fill:#45ff5b"/><polygon points="71.64 18.11 54.58 8.26 54.58 27.96 71.64 18.11 54.58 8.26 54.58 27.96 71.64 18.11" style="fill:#45ff5b;opacity:0.7499999925494194"/><polygon points="46.23 18.11 32.41 10.13 32.41 26.09 46.23 18.11 32.41 10.13 32.41 26.09 46.23 18.11" style="fill:#45ff5b;opacity:0.5000000074505806"/><polygon points="24.07 18.11 13.49 12 13.49 24.22 24.07 18.11 13.49 12 13.49 24.22 24.07 18.11" style="fill:#45ff5b;opacity:0.25"/><rect x="0.5" y="0.5" width="109.16" height="35.23" rx="4" style="fill:none;stroke:#45ff5b;stroke-miterlimit:10"/></svg>