<svg id="Warstwa_1" data-name="Warstwa 1" xmlns="http://www.w3.org/2000/svg" viewBox="0 0 136.63 136.63"><title>Card-back (violet)</title><path d="M127.44,0H9.19A9.22,9.22,0,0,0,0,9.19V127.43a9.22,9.22,0,0,0,9.19,9.19H127.44a9.22,9.22,0,0,0,9.19-9.19V9.19A9.22,9.22,0,0,0,127.44,0Zm-2.26,69V118.2h-6.05v5.54H17.5V118.2H11.45V18.42H17.5V12.88H119.13v5.54h6.05V69Z" style="fill:#581597"/><polygon points="17.7 123.56 17.7 118 11.64 118 11.64 18.62 17.7 18.62 17.7 13.06 118.94 13.06 118.94 18.62 125 18.62 125 118 118.94 118 118.94 123.56 17.7 123.56" style="fill:#cecccb"/><path d="M118.56,13.43V19h6.07v98.63h-6.07v5.56H18.08v-5.56H12V19h6.07V13.43H118.56m.75-.75h-102v5.56H11.26V118.37h6.07v5.56h102v-5.56h6.07V18.24h-6.07V12.68Z" style="fill:#747471"/><path d="M54.3,39.18v9.56H49.71V84.46H54.3V94H32.77V84.46h4.59V48.74H32.77V39.18Z"/><path d="M79.12,39.18v9.56H74.53V84.46h4.59V94H57.59V84.46h4.59V48.74H57.59V39.18Z"/><path d="M103.94,39.18v9.56H99.35V84.46h4.59V94H82.41V84.46H87V48.74H82.41V39.18Z"/><path d="M60.9,116.83a8.25,8.25,0,1,1,0-16.5H75.73a8.25,8.25,0,0,1,0,16.5Z" style="fill:#e4d6a0"/><path d="M75.73,100.58a8,8,0,0,1,0,16H60.9a8,8,0,1,1,0-16H75.73m0-.5H60.9a8.5,8.5,0,1,0,0,17H75.73a8.5,8.5,0,0,0,0-17Z" style="fill:#82827f"/><path d="M63.6,103.4V110h1.26v1.73H63.6v2.15H61.49v-2.15H56.91v-1.82c.41-.45.83-1,1.26-1.49s.86-1.09,1.26-1.66.79-1.15,1.14-1.73a18.32,18.32,0,0,0,.89-1.66ZM59,110h2.5v-3.68c-.17.32-.35.64-.55,1s-.41.64-.63,1-.45.62-.67.91S59.2,109.77,59,110Z"/><path d="M70.66,109.71h-4V108.1h4Z"/><path d="M79.39,104.73c-.47.85-.89,1.64-1.26,2.38s-.7,1.47-1,2.19a19.54,19.54,0,0,0-.73,2.2,22.27,22.27,0,0,0-.49,2.41H73.51a19.34,19.34,0,0,1,.55-2.36,19.73,19.73,0,0,1,.78-2.2,21.94,21.94,0,0,1,1-2.08q.54-1,1.14-2H72.08V103.4h7.31Z"/></svg>