<svg id="Warstwa_1" data-name="Warstwa 1" xmlns="http://www.w3.org/2000/svg" viewBox="0 0 136.63 136.63"><title>Card-back (orange)</title><path d="M127.44,0H9.19A9.22,9.22,0,0,0,0,9.19V127.43a9.22,9.22,0,0,0,9.19,9.19H127.44a9.22,9.22,0,0,0,9.19-9.19V9.19A9.22,9.22,0,0,0,127.44,0Zm-2.26,69V118.2h-6.05v5.54H17.5V118.2H11.45V18.42H17.5V12.88H119.13v5.54h6.05V69Z" style="fill:#b96c38"/><polygon points="17.7 123.56 17.7 118 11.64 118 11.64 18.62 17.7 18.62 17.7 13.06 118.94 13.06 118.94 18.62 125 18.62 125 118 118.94 118 118.94 123.56 17.7 123.56" style="fill:#cecccb"/><path d="M118.56,13.43V19h6.07v98.63h-6.07v5.56H18.08v-5.56H12V19h6.07V13.43H118.56m.75-.75h-102v5.56H11.26V118.37h6.07v5.56h102v-5.56h6.07V18.24h-6.07V12.68Z" style="fill:#747471"/><path d="M79.12,39.18v9.56H74.53V84.46h4.59V94H57.59V84.46h4.59V48.74H57.59V39.18Z"/><path d="M68.31,116.87a8.27,8.27,0,1,1,8.27-8.27A8.28,8.28,0,0,1,68.31,116.87Z" style="fill:#e4d6a0"/><path d="M68.32,100.58a8,8,0,1,1-8,8,8,8,0,0,1,8-8m0-.5a8.52,8.52,0,1,0,8.51,8.52,8.52,8.52,0,0,0-8.51-8.52Z" style="fill:#82827f"/><path d="M69.74,103.17v10.74H67.43v-8.13a2.72,2.72,0,0,1-.45.31c-.17.1-.36.19-.55.28a6.21,6.21,0,0,1-.61.2,3.56,3.56,0,0,1-.62.12v-2a9.7,9.7,0,0,0,1.7-.67,11.07,11.07,0,0,0,1.44-.9Z"/></svg>