<svg id="Warstwa_1" data-name="Warstwa 1" xmlns="http://www.w3.org/2000/svg" xmlns:xlink="http://www.w3.org/1999/xlink" viewBox="0 0 136.63 36.24"><defs><style>.cls-1{fill:none;}.cls-2{clip-path:url(#clip-path);}.cls-3{fill:#b7a770;}.cls-4{fill:#8b7e54;stroke:#736845;stroke-miterlimit:10;stroke-width:0.75px;}.cls-5{fill:#d8cdab;}</style><clipPath id="clip-path"><rect class="cls-1" x="0.01" width="136.62" height="36.25"/></clipPath></defs><title>Top-Card (brown)</title><g class="cls-2"><path class="cls-3" d="M9.19,0H127.43a9.19,9.19,0,0,1,9.19,9.19V127.44a9.19,9.19,0,0,1-9.19,9.19H9.19A9.19,9.19,0,0,1,0,127.44V9.19A9.19,9.19,0,0,1,9.19,0"/><polygon class="cls-4" points="12.75 32.5 68.75 32.5 74.25 20.5 59.5 5.75 12.75 5.75 12.75 32.5"/><path class="cls-5" d="M31.5,8a17.88,17.88,0,0,0-1.89-8H9.19A9.2,9.2,0,0,0,0,9.19V26.93a26.17,26.17,0,0,0,8.25,1.32C21.09,28.25,31.5,19.18,31.5,8Z"/><path class="cls-5" d="M132.5,29.25a26.54,26.54,0,0,0,4.12-.32V9.19A9.19,9.19,0,0,0,127.43,0H111.67a18,18,0,0,0-2.42,9C109.25,20.18,119.66,29.25,132.5,29.25Z"/></g></svg>