<svg id="Warstwa_1" data-name="Warstwa 1" xmlns="http://www.w3.org/2000/svg" viewBox="0 0 136.63 136.63"><title>Card-back (white)</title><path d="M127.44,0H9.19A9.22,9.22,0,0,0,0,9.19V127.43a9.22,9.22,0,0,0,9.19,9.19H127.44a9.22,9.22,0,0,0,9.19-9.19V9.19A9.22,9.22,0,0,0,127.44,0Zm-2.26,69V118.2h-6.05v5.54H17.5V118.2H11.45V18.42H17.5V12.88H119.13v5.54h6.05V69Z" style="fill:#fff"/><polygon points="17.7 123.56 17.7 118 11.64 118 11.64 18.62 17.7 18.62 17.7 13.06 118.94 13.06 118.94 18.62 125 18.62 125 118 118.94 118 118.94 123.56 17.7 123.56" style="fill:#cecccb"/><path d="M118.56,13.43V19h6.07v98.63h-6.07v5.56H18.08v-5.56H12V19h6.07V13.43H118.56m.75-.75h-102v5.56H11.26V118.37h6.07v5.56h102v-5.56h6.07V18.24h-6.07V12.68Z" style="fill:#747471"/><path d="M68,95Q48.44,95,48.43,67.48q0-14.27,5.3-21.74t15.35-7.48q19.13,0,19.12,28,0,13.92-5.22,21.34T68,95Zm.54-47.49q-7.84,0-7.84,19.69,0,18.56,7.68,18.55,7.5,0,7.5-19.12T68.55,47.48Z"/></svg>