<svg id="Warstwa_1" data-name="Warstwa 1" xmlns="http://www.w3.org/2000/svg" viewBox="0 0 136.63 136.63"><title>Card (gray)</title><path d="M9.19,0H127.43a9.19,9.19,0,0,1,9.19,9.19V127.44a9.19,9.19,0,0,1-9.19,9.19H9.19A9.19,9.19,0,0,1,0,127.44V9.19A9.19,9.19,0,0,1,9.19,0" fill="#a3a2a1"/><path d="M128.25,120.9h-6.37v5.84H28.67c.28-.55,4.43-9,0-15.75a13,13,0,0,0-4.75-4.25c3.32-5.67,2.4-12.65-1.88-16.66-5.11-4.8-12.32-2.86-12.67-2.76V67.63H0v59.8a9.22,9.22,0,0,0,9.19,9.19H127.44a9.22,9.22,0,0,0,9.19-9.19V67.64h-8.38Z" fill="#bd1f23"/><path d="M12.75,36.25h112V118.5h-6V124l-86.66.66c.38-1.32,2.82-10.41-2.39-16.15a12,12,0,0,0-2.78-2.24c3-6.65,1.72-14.09-3-18.27-4.39-3.91-10-3.46-11.21-3.34Z" fill="#fff"/><path d="M17.25,109a9.5,9.5,0,1,1-9.5,9.5,9.5,9.5,0,0,1,9.5-9.5" fill="#e4d6a0"/><path d="M15,91.58a7.25,7.25,0,1,1-7.25,7.25A7.26,7.26,0,0,1,15,91.58" fill="#d92730"/><polygon points="12.75 32.5 68.75 32.5 74.25 20.5 59.5 5.75 12.75 5.75 12.75 32.5" fill="#747471" stroke="#595957" stroke-miterlimit="10" stroke-width="0.75"/><path d="M132.5,29.25c-12.84,0-23.25-9.07-23.25-20.25a18,18,0,0,1,2.42-9H29.61A17.88,17.88,0,0,1,31.5,8c0,11.18-10.41,20.25-23.25,20.25A26.17,26.17,0,0,1,0,26.93V127.44a9.19,9.19,0,0,0,9.19,9.19H127.43a9.18,9.18,0,0,0,9.19-9.19V28.93A26.54,26.54,0,0,1,132.5,29.25Z" fill="none"/><path d="M31.5,8a17.88,17.88,0,0,0-1.89-8H9.19A9.2,9.2,0,0,0,0,9.19V26.93a26.17,26.17,0,0,0,8.25,1.32C21.09,28.25,31.5,19.18,31.5,8Z" fill="#cecccb"/><path d="M132.5,29.25a26.54,26.54,0,0,0,4.12-.32V9.19A9.19,9.19,0,0,0,127.43,0H111.67a18,18,0,0,0-2.42,9C109.25,20.18,119.66,29.25,132.5,29.25Z" fill="#cecccb"/></svg>