<svg id="Warstwa_1" data-name="Warstwa 1" xmlns="http://www.w3.org/2000/svg" viewBox="0 0 29.88 25.12"><title>Get random</title><circle cx="14.83" cy="9.41" r="9.19" fill="#fff"/><path d="M14.83,18.81a9.41,9.41,0,1,1,9.41-9.4A9.41,9.41,0,0,1,14.83,18.81Zm0-18.37a9,9,0,1,0,9,9A9,9,0,0,0,14.83.44Z"/><path d="M12,5.35l.49,1.3a3.16,3.16,0,0,1,1.79-1A2,2,0,0,1,16.13,6a1.42,1.42,0,0,1,.35,1.06C16.41,7.92,15.43,8.72,14,9c0,.93,0,1.85,0,2.78h1.16l.14-1.93a3.49,3.49,0,0,0,2.23-1.47A2.84,2.84,0,0,0,18,6a2.85,2.85,0,0,0-1.79-1.7,3.58,3.58,0,0,0-2.41,0A4.41,4.41,0,0,0,12,5.35Z" fill="#1d1d1b"/><rect x="13.63" y="12.66" width="1.81" height="1.81" rx="0.29" ry="0.29" fill="#1d1d1b"/><rect y="15.68" width="29.88" height="9.44" rx="1.11" ry="1.11" fill="#1d1d1b"/></svg>