<svg id="Warstwa_1" data-name="Warstwa 1" xmlns="http://www.w3.org/2000/svg" viewBox="0 0 42.75 42.75"><title>Energy (black)</title><circle cx="21.38" cy="21.38" r="21" fill="#8b8987" stroke="#000" stroke-miterlimit="10" stroke-width="0.75"/><path d="M28.47,9.22H24.19V7.38A1.49,1.49,0,0,0,22.71,5.9H20a1.49,1.49,0,0,0-1.48,1.48V9.22H14.28A1.48,1.48,0,0,0,12.8,10.7V33.54A1.48,1.48,0,0,0,14.28,35H28.47A1.48,1.48,0,0,0,30,33.54V10.7A1.48,1.48,0,0,0,28.47,9.22ZM26.08,29.84a.51.51,0,0,1-.52.51H17.19a.51.51,0,0,1-.52-.51V28.16a.51.51,0,0,1,.52-.51h8.37a.51.51,0,0,1,.52.51Zm0-10.59a.51.51,0,0,1-.52.51H22.73V22.6a.51.51,0,0,1-.52.51H20.54A.51.51,0,0,1,20,22.6V19.76H17.19a.51.51,0,0,1-.52-.51V17.57a.51.51,0,0,1,.52-.51H20V14.22a.51.51,0,0,1,.52-.51h1.67a.51.51,0,0,1,.52.51v2.84h2.83a.51.51,0,0,1,.52.51Z" stroke="#000" stroke-miterlimit="10" stroke-width="0.25"/></svg>