<svg id="Warstwa_1" data-name="Warstwa 1" xmlns="http://www.w3.org/2000/svg" viewBox="0 0 28.72 28.72"><title>Folder (pusty)</title><path d="M1.78,19.87A1.41,1.41,0,0,1,.37,18.46V1.78A1.41,1.41,0,0,1,1.78.37l4.46,0a1.4,1.4,0,0,1,1,.42L9.34,2.92a2.13,2.13,0,0,0,1.52.63h9.59a1.36,1.36,0,0,1,1,.42l.77.77a2.18,2.18,0,0,0,1.53.63h3.2a1.4,1.4,0,0,1,1.24,2.05L22,19.12a1.4,1.4,0,0,1-1.24.75Z" fill="#1d1d1b"/><path d="M1.78,0V.75l4.45,0a1,1,0,0,1,.73.3L9.07,3.19a2.52,2.52,0,0,0,1.79.74h9.59a1,1,0,0,1,.73.3L22,5a2.5,2.5,0,0,0,1.79.74h3.2a1,1,0,0,1,.91,1.51L21.71,18.94a1,1,0,0,1-.91.55h-19a1,1,0,0,1-1-1V1.78a1,1,0,0,1,1-1V0m0,0A1.78,1.78,0,0,0,0,1.78V18.46a1.78,1.78,0,0,0,1.78,1.78h19a1.75,1.75,0,0,0,1.57-.95L28.51,7.6A1.78,1.78,0,0,0,26.94,5h-3.2a1.78,1.78,0,0,1-1.26-.52l-.77-.77a1.81,1.81,0,0,0-1.26-.52H10.86A1.81,1.81,0,0,1,9.6,2.66L7.49.54A1.79,1.79,0,0,0,6.24,0L1.79,0Z" fill="#1d1d1b"/></svg>