<svg id="Warstwa_1" data-name="Warstwa 1" xmlns="http://www.w3.org/2000/svg" viewBox="0 0 26.58 24.39"><title>Pick (yellow)</title><path d="M26.34,4.38l-5.09-3a.24.24,0,0,0-.32.1L19.75,3.82l-5.45-.6a1,1,0,0,1-.23-.05L6.35.14A.23.23,0,0,0,6,.36v.5a2.3,2.3,0,0,0,1.25,2L9.63,4.09l-.37.58L2.12,4.15a.25.25,0,0,0-.27.24v.39a1.94,1.94,0,0,0,1.85,2l3.18.13.18.65L.23,11.72a.23.23,0,0,0-.05.34l.36.41a2,2,0,0,0,2.65.34L7.93,9.64a.46.46,0,0,1,.64.15l.29.49a.44.44,0,0,1,0,.51l-1,1.26a.92.92,0,0,0-.17.73l1.14,5.14a.22.22,0,0,0,.33.14l.23-.14a2.9,2.9,0,0,0,1.24-3.37l-.1-.3a.88.88,0,0,1,.15-.81l2.24-2.89a.88.88,0,0,1,.57-.33l.54-.08a.9.9,0,0,1,.82.33L17,13.24a.86.86,0,0,1,.15.8l-.75,2.48-1.09.85a2.72,2.72,0,0,0-1,2.22l0,.87a.24.24,0,0,0,.36.2l4.76-2.83a1,1,0,0,0,.37-.43l2.33-5.77L26.42,4.7A.23.23,0,0,0,26.34,4.38Z" fill="#f5f5f5" stroke="#747471" stroke-miterlimit="10" stroke-width="0.25"/><circle cx="14.2" cy="18.09" r="6.19" fill="#ead928"/><path d="M14.2,24.39a6.3,6.3,0,1,1,6.3-6.3A6.3,6.3,0,0,1,14.2,24.39ZM14.2,12a6.08,6.08,0,1,0,6.08,6.08A6.09,6.09,0,0,0,14.2,12Z" fill="#b96c38"/><polygon points="16.39 13.93 13.19 16.67 14.4 16.67 11.97 19.15 13.41 19.15 11.59 21.69 16.06 18.14 14.49 18.14 16.86 15.73 15.3 15.73 16.39 13.93" fill="#b96c38"/><path d="M10.85,22.46l2.27-3.16h-1.5l2.43-2.48H12.79l4.2-3.6-1.42,2.36h1.64L14.84,18h1.64ZM12.32,19H13.7l-1.38,1.91,3.32-2.63h-1.5l2.37-2.41H15l.75-1.25-2.21,1.89h1.17Z" fill="#b96c38"/><path d="M8.89,10.69a.27.27,0,0,1-.06.1l-1,1.26a.92.92,0,0,0-.17.73l1.14,5.14a.22.22,0,0,0,.33.14l.23-.14a2.9,2.9,0,0,0,1.24-3.37l-.1-.3a.88.88,0,0,1,.15-.81l.91-1.18" fill="#f5f5f5" stroke="#747471" stroke-miterlimit="10" stroke-width="0.25"/></svg>