<svg id="Warstwa_1" data-name="Warstwa 1" xmlns="http://www.w3.org/2000/svg" viewBox="0 0 26.58 24.31"><title>Pick (red)</title><path d="M26.34,4.38l-5.09-3a.24.24,0,0,0-.32.1L19.75,3.82l-5.45-.6a1,1,0,0,1-.23-.05L6.35.14A.23.23,0,0,0,6,.36v.5a2.3,2.3,0,0,0,1.25,2L9.63,4.09l-.37.58L2.12,4.15a.25.25,0,0,0-.27.24v.39a1.94,1.94,0,0,0,1.85,2l3.18.13.18.65L.23,11.72a.23.23,0,0,0-.05.34l.36.41a2,2,0,0,0,2.65.34L7.93,9.64a.46.46,0,0,1,.64.15l.29.49a.44.44,0,0,1,0,.51l-1,1.26a.92.92,0,0,0-.17.73l1.14,5.14a.22.22,0,0,0,.33.14l.23-.14a2.9,2.9,0,0,0,1.24-3.37l-.1-.3a.88.88,0,0,1,.15-.81l2.24-2.89a.88.88,0,0,1,.57-.33l.54-.08a.9.9,0,0,1,.82.33L17,13.24a.86.86,0,0,1,.15.8l-.75,2.48-1.09.85a2.72,2.72,0,0,0-1,2.22l0,.87a.24.24,0,0,0,.36.2l4.76-2.83a1,1,0,0,0,.37-.43l2.33-5.77L26.42,4.7A.23.23,0,0,0,26.34,4.38Z" fill="#f5f5f5" stroke="#747471" stroke-miterlimit="10" stroke-width="0.25"/><circle cx="14.2" cy="18.01" r="6.19" fill="#bd172c"/><path d="M14.2,24.31A6.3,6.3,0,1,1,20.5,18,6.3,6.3,0,0,1,14.2,24.31Zm0-12.38A6.08,6.08,0,1,0,20.28,18,6.09,6.09,0,0,0,14.2,11.93Z" fill="#621520"/><path d="M17.64,18.1a3,3,0,0,0-.26-.67c-.27-.48-.53-.56-.68-.88a1.48,1.48,0,0,1,.07-1.23.79.79,0,0,0-.64.06.85.85,0,0,0-.34.61c-.06.37.1.44.08.84a1,1,0,0,1-.34.82.69.69,0,0,1-.71.07.8.8,0,0,1-.3-.6c-.06-.74.7-1,.76-1.75A1.81,1.81,0,0,0,15,14.3a3,3,0,0,0-1.29-1.23,2.38,2.38,0,0,1,.11,1.54,2.53,2.53,0,0,1-.62,1.06c-.44.52-.69.5-1.2.94a3.34,3.34,0,0,0-1.2,1.77,2.81,2.81,0,0,0,.19,1.77,3.31,3.31,0,0,0,1.41,1.54A3.14,3.14,0,0,0,13,22a2.55,2.55,0,0,1-1-1.56,2.67,2.67,0,0,1,1.21-2.81,2,2,0,0,0-.42,1.3c0,.1,0,.67.35.77s.3-.06.51-.16a1.73,1.73,0,0,1,1.76.22,1.52,1.52,0,0,1,.32,1.55,1.59,1.59,0,0,1-.63.79,3.23,3.23,0,0,0,1.56-.84A3.5,3.5,0,0,0,17.64,18.1Z" fill="#621520"/><path d="M8.89,10.69a.27.27,0,0,1-.06.1l-1,1.26a.92.92,0,0,0-.17.73l1.14,5.14a.22.22,0,0,0,.33.14l.23-.14a2.9,2.9,0,0,0,1.24-3.37l-.1-.3a.88.88,0,0,1,.15-.81l.91-1.18" fill="#f5f5f5" stroke="#747471" stroke-miterlimit="10" stroke-width="0.25"/></svg>