<svg id="Warstwa_1" data-name="Warstwa 1" xmlns="http://www.w3.org/2000/svg" viewBox="0 0 26.58 24.46"><title>Pick (black)</title><path d="M26.34,4.38l-5.09-3a.24.24,0,0,0-.32.1L19.75,3.82l-5.45-.6a1,1,0,0,1-.23-.05L6.35.14A.23.23,0,0,0,6,.36v.5a2.3,2.3,0,0,0,1.25,2L9.63,4.09l-.37.58L2.12,4.15a.25.25,0,0,0-.27.24v.39a1.94,1.94,0,0,0,1.85,2l3.18.13.18.65L.23,11.72a.23.23,0,0,0-.05.34l.36.41a2,2,0,0,0,2.65.34L7.93,9.64a.46.46,0,0,1,.64.15l.29.49a.44.44,0,0,1,0,.51l-1,1.26a.92.92,0,0,0-.17.73l1.14,5.14a.22.22,0,0,0,.33.14l.23-.14a2.9,2.9,0,0,0,1.24-3.37l-.1-.3a.88.88,0,0,1,.15-.81l2.24-2.89a.88.88,0,0,1,.57-.33l.54-.08a.9.9,0,0,1,.82.33L17,13.24a.86.86,0,0,1,.15.8l-.75,2.48-1.09.85a2.72,2.72,0,0,0-1,2.22l0,.87a.24.24,0,0,0,.36.2l4.76-2.83a1,1,0,0,0,.37-.43l2.33-5.77L26.42,4.7A.23.23,0,0,0,26.34,4.38Z" fill="#f5f5f5" stroke="#747471" stroke-miterlimit="10" stroke-width="0.25"/><circle cx="14.2" cy="18.16" r="6.19" fill="#8b8987"/><path d="M14.2,24.46a6.31,6.31,0,1,1,6.3-6.3A6.31,6.31,0,0,1,14.2,24.46Zm0-12.39a6.09,6.09,0,1,0,6.08,6.09A6.09,6.09,0,0,0,14.2,12.07Z"/><path d="M16.29,14.57H15V14a.44.44,0,0,0-.44-.44h-.78a.44.44,0,0,0-.44.44v.54H12.11a.44.44,0,0,0-.44.44v6.73a.44.44,0,0,0,.44.44h4.18a.44.44,0,0,0,.44-.44V15A.44.44,0,0,0,16.29,14.57Zm-.7,6.08a.16.16,0,0,1-.16.15H13a.15.15,0,0,1-.15-.15v-.49A.15.15,0,0,1,13,20h2.47a.15.15,0,0,1,.16.15Zm0-3.12a.16.16,0,0,1-.16.15H14.6v.84a.15.15,0,0,1-.15.15H14a.15.15,0,0,1-.15-.15v-.84H13a.15.15,0,0,1-.15-.15V17a.15.15,0,0,1,.15-.15h.84v-.83a.16.16,0,0,1,.15-.16h.5a.16.16,0,0,1,.15.16v.83h.83a.16.16,0,0,1,.16.15Z"/><path d="M16.29,22.22H12.11a.49.49,0,0,1-.48-.48V15a.49.49,0,0,1,.48-.48h1.22V14a.48.48,0,0,1,.48-.47h.78a.48.48,0,0,1,.48.47v.5h1.22a.49.49,0,0,1,.48.48v6.73A.49.49,0,0,1,16.29,22.22Zm-4.18-7.61a.4.4,0,0,0-.4.4v6.73a.4.4,0,0,0,.4.4h4.18a.4.4,0,0,0,.4-.4V15a.4.4,0,0,0-.4-.4H15V14a.4.4,0,0,0-.4-.4h-.78a.4.4,0,0,0-.4.4v.58Zm3.32,6.23H13a.19.19,0,0,1-.18-.19v-.49A.18.18,0,0,1,13,20h2.47a.18.18,0,0,1,.19.19v.49A.19.19,0,0,1,15.43,20.84ZM13,20a.11.11,0,0,0-.11.12v.49a.12.12,0,0,0,.11.12h2.47a.12.12,0,0,0,.12-.12v-.49a.12.12,0,0,0-.12-.12Zm1.49-1.34H14a.19.19,0,0,1-.19-.18v-.8H13a.19.19,0,0,1-.18-.19V17a.18.18,0,0,1,.18-.18h.8v-.8a.19.19,0,0,1,.19-.19h.5a.19.19,0,0,1,.19.19v.8h.79a.18.18,0,0,1,.19.18v.5a.19.19,0,0,1-.19.19h-.79v.8A.19.19,0,0,1,14.45,18.7ZM13,16.92a.11.11,0,0,0-.11.11v.5a.11.11,0,0,0,.11.11h.88v.88a.11.11,0,0,0,.11.11h.5a.11.11,0,0,0,.11-.11v-.88h.87a.11.11,0,0,0,.12-.11V17a.11.11,0,0,0-.12-.11h-.87v-.87a.11.11,0,0,0-.11-.12H14a.11.11,0,0,0-.11.12v.87Z"/><path d="M8.89,10.69a.27.27,0,0,1-.06.1l-1,1.26a.92.92,0,0,0-.17.73l1.14,5.14a.22.22,0,0,0,.33.14l.23-.14a2.9,2.9,0,0,0,1.24-3.37l-.1-.3a.88.88,0,0,1,.15-.81l.91-1.18" fill="#f5f5f5" stroke="#747471" stroke-miterlimit="10" stroke-width="0.25"/></svg>