<svg id="Warstwa_1" data-name="Warstwa 1" xmlns="http://www.w3.org/2000/svg" viewBox="0 0 26.58 24.39"><title>Pick (blue)</title><path d="M26.34,4.38l-5.09-3a.24.24,0,0,0-.32.1L19.75,3.82l-5.45-.6a1,1,0,0,1-.23-.05L6.35.14A.23.23,0,0,0,6,.36v.5a2.3,2.3,0,0,0,1.25,2L9.63,4.09l-.37.58L2.12,4.15a.25.25,0,0,0-.27.24v.39a1.94,1.94,0,0,0,1.85,2l3.18.13.18.65L.23,11.72a.23.23,0,0,0-.05.34l.36.41a2,2,0,0,0,2.65.34L7.93,9.64a.46.46,0,0,1,.64.15l.29.49a.44.44,0,0,1,0,.51l-1,1.26a.92.92,0,0,0-.17.73l1.14,5.14a.22.22,0,0,0,.33.14l.23-.14a2.9,2.9,0,0,0,1.24-3.37l-.1-.3a.88.88,0,0,1,.15-.81l2.24-2.89a.88.88,0,0,1,.57-.33l.54-.08a.9.9,0,0,1,.82.33L17,13.24a.86.86,0,0,1,.15.8l-.75,2.48-1.09.85a2.72,2.72,0,0,0-1,2.22l0,.87a.24.24,0,0,0,.36.2l4.76-2.83a1,1,0,0,0,.37-.43l2.33-5.77L26.42,4.7A.23.23,0,0,0,26.34,4.38Z" fill="#f5f5f5" stroke="#747471" stroke-miterlimit="10" stroke-width="0.25"/><circle cx="14.2" cy="18.08" r="6.19" fill="#5b6aab"/><path d="M14.2,24.39a6.31,6.31,0,1,1,6.3-6.31A6.31,6.31,0,0,1,14.2,24.39ZM14.2,12a6.08,6.08,0,1,0,6.08,6.08A6.09,6.09,0,0,0,14.2,12Z" fill="#002350"/><path d="M14.2,22.49c-1.16,0-2-1.89-2-4.41s.87-4.41,2-4.41,2,1.9,2,4.41S15.36,22.49,14.2,22.49Zm0-8.23c-.68,0-1.44,1.57-1.44,3.82s.76,3.82,1.44,3.82,1.44-1.57,1.44-3.82S14.88,14.26,14.2,14.26Z" fill="#002350"/><path d="M16.55,20.93a7.15,7.15,0,0,1-3.37-1.09c-2.17-1.25-3.38-3-2.8-4,.3-.51,1-.73,1.95-.61a8,8,0,0,1,2.89,1.05c2.17,1.26,3.38,3,2.8,4h0A1.6,1.6,0,0,1,16.55,20.93Zm-4.71-5.1c-.48,0-.82.12-.95.34-.34.59.64,2,2.59,3.16s3.69,1.25,4,.66h0c.34-.59-.64-2-2.59-3.16a7.4,7.4,0,0,0-2.66-1Z" fill="#002350"/><path d="M11.85,20.93a1.6,1.6,0,0,1-1.47-.64h0c-.58-1,.63-2.71,2.8-4s4.26-1.45,4.84-.44-.63,2.71-2.8,4A7.15,7.15,0,0,1,11.85,20.93Zm-1-.94c.34.59,2.08.47,4-.66s2.93-2.57,2.59-3.16-2.08-.46-4,.66S10.55,19.4,10.89,20Z" fill="#002350"/><path d="M8.89,10.69a.27.27,0,0,1-.06.1l-1,1.26a.92.92,0,0,0-.17.73l1.14,5.14a.22.22,0,0,0,.33.14l.23-.14a2.9,2.9,0,0,0,1.24-3.37l-.1-.3a.88.88,0,0,1,.15-.81l.91-1.18" fill="#f5f5f5" stroke="#747471" stroke-miterlimit="10" stroke-width="0.25"/></svg>