<svg id="Warstwa_1" data-name="Warstwa 1" xmlns="http://www.w3.org/2000/svg" xmlns:xlink="http://www.w3.org/1999/xlink" viewBox="0 0 166.19 166.19"><defs><style>.cls-1,.cls-10,.cls-11,.cls-12,.cls-13,.cls-14,.cls-15,.cls-16,.cls-17,.cls-18,.cls-19,.cls-20,.cls-21,.cls-22,.cls-23,.cls-24,.cls-25,.cls-26,.cls-27,.cls-28,.cls-29,.cls-30,.cls-31,.cls-32,.cls-33,.cls-34,.cls-35,.cls-36,.cls-37,.cls-38,.cls-39,.cls-40,.cls-41,.cls-42,.cls-43,.cls-44,.cls-45,.cls-46,.cls-47,.cls-48,.cls-49,.cls-50,.cls-51,.cls-52,.cls-53,.cls-54,.cls-55,.cls-56,.cls-57,.cls-58,.cls-59,.cls-60,.cls-61,.cls-62,.cls-63,.cls-64,.cls-65,.cls-66,.cls-67,.cls-68,.cls-69,.cls-70,.cls-71,.cls-72,.cls-73,.cls-74,.cls-75,.cls-76,.cls-77,.cls-78,.cls-79,.cls-8,.cls-80,.cls-81,.cls-82,.cls-83,.cls-84,.cls-85,.cls-86,.cls-87,.cls-88,.cls-89,.cls-9,.cls-90,.cls-91,.cls-92,.cls-93,.cls-94,.cls-95{fill:none;}.cls-2{clip-path:url(#clip-path);}.cls-3{fill:#191a1a;}.cls-4{fill:#5b6aab;}.cls-5{fill:#e1a72e;}.cls-6{fill:#82827f;}.cls-7{clip-path:url(#clip-path-2);}.cls-8{stroke:#0061b9;}.cls-10,.cls-11,.cls-12,.cls-13,.cls-14,.cls-15,.cls-16,.cls-17,.cls-18,.cls-19,.cls-20,.cls-21,.cls-22,.cls-23,.cls-24,.cls-25,.cls-26,.cls-27,.cls-28,.cls-29,.cls-30,.cls-31,.cls-32,.cls-33,.cls-34,.cls-35,.cls-36,.cls-37,.cls-38,.cls-39,.cls-40,.cls-41,.cls-42,.cls-43,.cls-44,.cls-45,.cls-46,.cls-47,.cls-48,.cls-49,.cls-50,.cls-51,.cls-52,.cls-53,.cls-54,.cls-55,.cls-56,.cls-57,.cls-58,.cls-59,.cls-60,.cls-61,.cls-62,.cls-63,.cls-64,.cls-65,.cls-66,.cls-67,.cls-68,.cls-69,.cls-70,.cls-71,.cls-72,.cls-73,.cls-74,.cls-75,.cls-76,.cls-77,.cls-78,.cls-79,.cls-8,.cls-80,.cls-81,.cls-82,.cls-83,.cls-84,.cls-85,.cls-86,.cls-87,.cls-88,.cls-89,.cls-9,.cls-90,.cls-91,.cls-92,.cls-93,.cls-94,.cls-95,.cls-98{stroke-miterlimit:10;}.cls-10,.cls-11,.cls-12,.cls-13,.cls-14,.cls-15,.cls-16,.cls-17,.cls-18,.cls-19,.cls-20,.cls-21,.cls-22,.cls-23,.cls-24,.cls-25,.cls-26,.cls-27,.cls-28,.cls-29,.cls-30,.cls-31,.cls-32,.cls-33,.cls-34,.cls-35,.cls-36,.cls-37,.cls-38,.cls-39,.cls-40,.cls-41,.cls-42,.cls-43,.cls-44,.cls-45,.cls-46,.cls-47,.cls-48,.cls-49,.cls-50,.cls-51,.cls-52,.cls-53,.cls-54,.cls-55,.cls-56,.cls-57,.cls-58,.cls-59,.cls-60,.cls-61,.cls-62,.cls-63,.cls-64,.cls-65,.cls-66,.cls-67,.cls-68,.cls-69,.cls-70,.cls-71,.cls-72,.cls-73,.cls-74,.cls-75,.cls-76,.cls-77,.cls-78,.cls-79,.cls-8,.cls-80,.cls-81,.cls-82,.cls-83,.cls-84,.cls-85,.cls-86,.cls-87,.cls-88,.cls-89,.cls-9,.cls-90,.cls-91,.cls-92,.cls-93,.cls-94,.cls-95{stroke-width:5px;}.cls-9{stroke:#135aaa;}.cls-10{stroke:#26549b;}.cls-11{stroke:#394d8c;}.cls-12{stroke:#4c477d;}.cls-13{stroke:#5f406e;}.cls-14{stroke:#71395f;}.cls-15{stroke:#843350;}.cls-16{stroke:#972c41;}.cls-17{stroke:#aa2632;}.cls-18{stroke:#bd1f23;}.cls-19{stroke:#c23224;}.cls-20{stroke:#c64424;}.cls-21{stroke:#cb5725;}.cls-22{stroke:#cf6925;}.cls-23{stroke:#d37c26;}.cls-24{stroke:#d88f26;}.cls-25{stroke:#dca126;}.cls-26{stroke:#e1b427;}.cls-27{stroke:#e5c627;}.cls-28{stroke:#ead928;}.cls-29{stroke:#d8c829;}.cls-30{stroke:#c5b82a;}.cls-31{stroke:#b3a72b;}.cls-32{stroke:#a1972c;}.cls-33{stroke:#8f862e;}.cls-34{stroke:#7c752f;}.cls-35{stroke:#6a6530;}.cls-36{stroke:#585431;}.cls-37{stroke:#454432;}.cls-38{stroke:#333;}.cls-39{stroke:#2e3840;}.cls-40{stroke:#293c4e;}.cls-41{stroke:#24415b;}.cls-42{stroke:#1f4569;}.cls-43{stroke:#1a4a76;}.cls-44{stroke:#144f83;}.cls-45{stroke:#0f5391;}.cls-46{stroke:#0a589e;}.cls-47{stroke:#055cac;}.cls-48{stroke:#c13124;}.cls-49{stroke:#c64224;}.cls-50{stroke:#ca5425;}.cls-51{stroke:#ce6525;}.cls-52{stroke:#d37726;}.cls-53{stroke:#d78926;}.cls-54{stroke:#db9a26;}.cls-55{stroke:#dfac27;}.cls-56{stroke:#e4bd27;}.cls-57{stroke:#e8cf28;}.cls-58{stroke:#d6bf29;}.cls-59{stroke:#c4b02a;}.cls-60{stroke:#b2a02b;}.cls-61{stroke:#a0912c;}.cls-62{stroke:#8e812e;}.cls-63{stroke:#7b712f;}.cls-64{stroke:#696230;}.cls-65{stroke:#575231;}.cls-66{stroke:#454332;}.cls-67{stroke:#125bab;}.cls-68{stroke:#25559c;}.cls-69{stroke:#374e8e;}.cls-70{stroke:#4a4880;}.cls-71{stroke:#5c4272;}.cls-72{stroke:#6e3c63;}.cls-73{stroke:#813655;}.cls-74{stroke:#932f47;}.cls-75{stroke:#a62938;}.cls-76{stroke:#b8232a;}.cls-77{stroke:#bd342a;}.cls-78{stroke:#c2452a;}.cls-79{stroke:#c65729;}.cls-80{stroke:#cb6829;}.cls-81{stroke:#d07929;}.cls-82{stroke:#d58a29;}.cls-83{stroke:#da9b29;}.cls-84{stroke:#dead28;}.cls-85{stroke:#e3be28;}.cls-86{stroke:#bd332a;}.cls-87{stroke:#c1442a;}.cls-88{stroke:#c65429;}.cls-89{stroke:#ca6429;}.cls-90{stroke:#cf7529;}.cls-91{stroke:#d38529;}.cls-92{stroke:#d79529;}.cls-93{stroke:#dca528;}.cls-94{stroke:#e0b628;}.cls-95{stroke:#e5c628;}.cls-96{fill:#cecccb;}.cls-97{fill:#595957;}.cls-98{fill:#fff;stroke:#878787;stroke-width:0.25px;}.cls-99{fill:#757573;}.cls-100{fill:#8b8987;}.cls-101{fill:#002350;}.cls-102{fill:#ead928;}.cls-103{fill:#b96c38;}.cls-104{fill:#bd172c;}.cls-105{fill:#621520;}.cls-106{clip-path:url(#clip-path-3);}.cls-107{clip-path:url(#clip-path-4);}</style><clipPath id="clip-path"><path class="cls-1" d="M121.44-28.28h-6.37v5.84H21.86c.28-.55,4.43-9,0-15.75a13,13,0,0,0-4.75-4.25c3.32-5.67,2.4-12.65-1.88-16.66C10.12-63.9,2.91-62,2.56-61.86V-81.55H-6.81v59.8a9.22,9.22,0,0,0,9.19,9.19H120.63a9.22,9.22,0,0,0,9.19-9.19V-81.54h-8.38Z"/></clipPath><clipPath id="clip-path-2"><path class="cls-1" d="M83.1,5.42A77.66,77.66,0,0,0,31.9,141.49l.31.27a3.09,3.09,0,0,0,3.9-4.79h0a73.37,73.37,0,0,1-21.45-33.2,85.72,85.72,0,0,1-3-20.66,71.49,71.49,0,1,1,143,0,86,86,0,0,1-3,20.67,73.45,73.45,0,0,1-21.69,33.4h0a3.09,3.09,0,0,0,3.88,4.81l.31-.27A77.66,77.66,0,0,0,83.1,5.42Z"/></clipPath><clipPath id="clip-path-3"><rect class="cls-1" x="171.27" y="-149.18" width="136.62" height="36.25"/></clipPath><clipPath id="clip-path-4"><path class="cls-1" d="M299.51-28.28h-6.37v5.84H199.93c.28-.55,4.43-9,0-15.75a13.11,13.11,0,0,0-4.75-4.25c3.32-5.67,2.4-12.65-1.88-16.66C188.19-63.9,181-62,180.63-61.86V-81.55h-9.37v59.8a9.22,9.22,0,0,0,9.19,9.19H298.7a9.23,9.23,0,0,0,9.19-9.19V-81.54h-8.38Z"/></clipPath></defs><title>Storage wheel</title><g class="cls-2"><path class="cls-3" d="M54.68-36.84q-8.48,21-16.94,42.1L74.42,9.81,65-38.32Z"/><path class="cls-4" d="M42.06-40.45-.77-1.81,29.29,16.77l35-64.38Z"/><path class="cls-5" d="M32.52-49-25-27.35C-17.81-16.19-13.61-4.45-6.45,6.71l50.39-50Z"/></g><path class="cls-6" d="M81.09,0C35.53,1.1-1,39.39,0,85A83.1,83.1,0,1,0,81.09,0Zm37.5,138.17a65.49,65.49,0,0,0-71,0,65.54,65.54,0,1,1,71,0Z"/><path class="cls-3" d="M83.1,5.42A77.66,77.66,0,0,0,31.9,141.49l.31.27a3.09,3.09,0,0,0,3.9-4.79h0a73.37,73.37,0,0,1-21.45-33.2,85.72,85.72,0,0,1-3-20.66,71.49,71.49,0,1,1,143,0,86,86,0,0,1-3,20.67,73.45,73.45,0,0,1-21.69,33.4h0a3.09,3.09,0,0,0,3.88,4.81l.31-.27A77.66,77.66,0,0,0,83.1,5.42Z"/><g class="cls-7"><path class="cls-8" d="M67.87,109.16c-8.74,6.43-17.49,9.53-26.24,27.1-8.74,12.46-17.49,19.31-26.23,27.09l-26.24,27.1"/><path class="cls-9" d="M66.66,107.64c-8.75,8.71-17.49,11.26-26.24,27.1-8.74,11.93-17.49,19.51-26.24,27.09L-12,188.93"/><path class="cls-10" d="M65.44,106.12c-8.74,11-17.49,13-26.23,27.09A169.59,169.59,0,0,1,13,160.31q-13.11,13.55-26.23,27.1"/><path class="cls-11" d="M64.23,104.59c-8.74,13.29-17.49,14.73-26.23,27.1a185.78,185.78,0,0,1-26.24,27.1l-26.24,27.09"/><path class="cls-12" d="M63,103.07c-8.75,15.57-17.49,16.47-26.24,27.1C28,140.51,19.29,150.28,10.55,157.26l-26.24,27.1"/><path class="cls-13" d="M61.81,101.55c-8.75,17.86-17.49,18.2-26.24,27.1C26.82,138.46,18.08,149,9.33,155.74l-26.23,27.1"/><path class="cls-14" d="M60.59,100C51.85,120.17,43.1,120,34.36,127.12c-8.75,9.29-17.49,20.51-26.24,27.1l-26.24,27.1"/><path class="cls-15" d="M59.38,98.5c-8.75,22.44-17.49,21.67-26.24,27.1-8.74,8.76-17.49,20.71-26.23,27.1l-26.24,27.09"/><path class="cls-16" d="M58.17,97c-8.75,24.72-17.49,23.41-26.24,27.1C23.19,132.31,14.44,145,5.69,151.17q-13.11,13.56-26.23,27.1"/><path class="cls-17" d="M57,95.46c-8.74,27-17.49,25.14-26.23,27.09-8.75,7.7-17.49,21.12-26.24,27.1l-26.24,27.1"/><path class="cls-18" d="M55.74,93.94C47,123.23,38.25,120.81,29.51,121c-8.75,7.17-17.5,21.31-26.24,27.1L-23,175.23"/><path class="cls-19" d="M55.36,93.15c-9.1,27.45-18.2,24.54-27.3,25.17C19,126.82,9.85,137.51.75,143.49l-27.3,25.17"/><path class="cls-20" d="M55,92.36C45.52,118,36.06,114.57,26.61,115.6A159.39,159.39,0,0,1-1.76,138.85l-28.37,23.24"/><path class="cls-21" d="M54.59,91.57C44.78,115.35,35,111.45,25.16,112.89c-9.82,11.16-19.63,15-29.44,21.32l-29.43,21.32"/><path class="cls-22" d="M54.2,90.78C44,112.72,33.87,108.33,23.71,110.17,13.54,122.67,3.37,123-6.79,129.56L-37.29,149"/><path class="cls-23" d="M53.82,90c-10.52,20.1-21,15.22-31.56,17.46-10.53,13.83-21,10.72-31.57,17.47l-31.56,17.47"/><path class="cls-24" d="M53.44,89.19c-10.88,18.27-21.76,12.9-32.63,15.55C9.93,119.9-.95,113.34-11.83,120.28l-32.63,15.54"/><path class="cls-25" d="M53.05,88.4C41.82,104.84,30.59,99,19.36,102c-11.24,16.49-22.47,6.48-33.7,13.62L-48,129.26"/><path class="cls-26" d="M52.67,87.61c-11.59,14.6-23.18,8.24-34.76,11.7C6.32,117.13-5.27,103.67-16.86,111l-34.76,11.69"/><path class="cls-27" d="M52.28,86.82C40.34,99.58,28.4,92.73,16.46,96.59c-12,19.15-23.89,2.24-35.83,9.77l-35.83,9.76"/><path class="cls-28" d="M51.9,86C39.6,97,27.3,89.61,15,93.88c-12.3,20.48-24.6.12-36.9,7.84l-36.89,7.84"/><path class="cls-29" d="M51.93,85.07C39.61,94,27.3,86.9,15,91.64,2.67,109-9.64,91.24-22,98.2l-36.94,6.57"/><path class="cls-30" d="M52,84.1c-12.33,7-24.66.09-37,5.3C2.63,103.7-9.7,88.48-22,94.69L-59,100"/><path class="cls-31" d="M52,83.13c-12.35,5-24.7-1.65-37.05,4-12.35,11.21-24.69-1.44-37,4l-37,4"/><path class="cls-32" d="M52,82.17c-12.37,3-24.73-3.4-37.1,2.75C2.56,93-9.81,83-22.17,87.67l-37.1,2.75"/><path class="cls-33" d="M52.05,81.2c-12.39,1-24.77-5.15-37.15,1.48-12.38,5-24.76-2.48-37.15,1.47l-37.14,1.48"/><path class="cls-34" d="M52.08,80.23c-12.4-1-24.8-6.89-37.2.21-12.4,2-24.8-3-37.2.2l-37.19.21"/><path class="cls-35" d="M52.11,79.27c-12.42-2.93-24.84-8.64-37.25-1.07C2.44,77.06-10,74.68-22.39,77.13l-37.25-1.07"/><path class="cls-36" d="M52.14,78.3C39.7,73.39,27.27,67.92,14.84,76c-12.43-4.23-24.87-4-37.3-2.34l-37.3-2.35"/><path class="cls-37" d="M52.17,77.33c-12.45-6.88-24.9-12.12-37.35-3.61C2.37,66.4-10.08,69.16-22.53,70.1l-37.35-3.61"/><path class="cls-38" d="M52.19,76.37C39.73,67.5,27.26,62.5,14.8,71.48,2.33,61.07-10.14,66.4-22.6,66.59L-60,61.7"/><path class="cls-39" d="M52.66,75.22c-12.29-7.54-24.57-13.57-36.86-6.4-12.28-10.27-24.57-5-36.86-6.39L-57.91,56"/><path class="cls-40" d="M53.12,74.08C41,67.85,28.91,60.8,16.81,66.17,4.7,56-7.4,61.16-19.51,58.26l-36.31-7.91"/><path class="cls-41" d="M53.59,72.94C41.66,68,29.74,60,17.81,63.51,5.89,53.5-6,58.53-18,54.09l-35.77-9.42"/><path class="cls-42" d="M54.05,71.79c-11.74-3.58-23.49-12.7-35.23-10.93C7.08,51-4.67,55.91-16.41,49.93L-51.64,39"/><path class="cls-43" d="M54.51,70.65C43,68.39,31.39,58.24,19.82,58.2,8.26,48.46-3.3,53.29-14.86,45.76L-49.55,33.32"/><path class="cls-44" d="M55,69.5c-11.39-.94-22.77-12.11-34.15-14-11.38-9.62-22.76-4.89-34.15-14l-34.14-14"/><path class="cls-45" d="M55.44,68.36c-11.2.38-22.4-11.82-33.6-15.47C10.63,43.41-.57,48-11.77,37.43L-45.37,22"/><path class="cls-46" d="M55.9,67.22c-11,1.7-22-11.54-33.06-17-11-9.35-22-4.82-33.06-17l-33.06-17"/><path class="cls-47" d="M56.37,66.07c-10.84,3-21.68-11.24-32.52-18.49C13,38.37,2.17,42.79-8.67,29.09L-41.19,10.61"/><path class="cls-8" d="M56.83,64.93c-10.66,4.34-21.32-11-32-20s-21.32-4.76-32-20l-32-20"/><path class="cls-9" d="M57.29,64.37c-10.34,3.91-20.62-11-31-20.27S5.6,37.81-4.74,23.83c-10.33-7-20.67-14.09-31-20.27"/><path class="cls-10" d="M57.75,63.81c-10,3.47-19.91-11.12-30-20.54-9.9-9.2-20-7.82-30-20.54-10-7.41-20-14.84-30-20.54"/><path class="cls-11" d="M58.21,63.26c-9.7,3-19.2-11.2-29.08-20.81C19.61,33.19,9.74,33.09,0,21.64-9.65,13.85-19.34,6-29,.82"/><path class="cls-12" d="M58.67,62.7c-9.38,2.59-18.49-11.28-28.12-21.08C21.41,32.31,11.81,30.73,2.43,20.54-6.94,12.39-16.31,4.18-25.68-.54"/><path class="cls-13" d="M59.13,62.14C50.07,64.29,41.35,50.79,32,40.79c-8.75-9.34-18.1-12.42-27.15-21.35-9-8.52-18.1-17.11-27.15-21.35"/><path class="cls-14" d="M59.58,61.58C50.86,63.3,42.52,50.17,33.4,40,25,30.58,15.94,26,7.21,18.34-1.52,9.45-10.25.47-19-3.28"/><path class="cls-15" d="M60,61c-8.4,1.27-16.35-11.47-25.22-21.89C26.82,29.73,18,23.65,9.6,17.24,1.19,8-7.21-1.38-15.62-4.65"/><path class="cls-16" d="M60.5,60.47C52.42,61.31,44.86,49,36.25,38.31A104,104,0,0,0,12,16.15C3.91,6.51-4.18-3.23-12.26-6"/><path class="cls-17" d="M61,59.91C53.2,60.31,46,48.34,37.67,37.48,30.4,28,22.14,18.93,14.38,15.05,6.62,5-1.15-5.09-8.91-7.38"/><path class="cls-18" d="M61.42,59.35c-7.44,0-14.88-11.15-22.33-22.7-7.44-9-14.88-20.08-22.32-22.7C9.33,3.57,1.89-6.94-5.55-8.75"/><path class="cls-48" d="M61.94,58.5c-6.95-.84-13.33-12-20.84-22.86-2.89-4.17-6.2-8.39-9.3-12.27C28,18.61,24.12,14.55,20.29,12.83,13.34,2.62,6.39-7.72-.56-10"/><path class="cls-49" d="M62.45,57.65C56,56,50,45.16,43.12,34.63c-2.72-4.14-5.78-8.35-8.69-12.21-3.53-4.68-7.09-8.73-10.63-10.71-6.45-10-12.91-20.2-19.37-22.94"/><path class="cls-50" d="M63,56.8C57,54.36,51.45,43.86,45.13,33.61c-2.54-4.11-5.37-8.29-8.07-12.13-3.23-4.59-6.5-8.64-9.74-10.9-6-9.88-11.93-19.85-17.89-23"/><path class="cls-51" d="M63.48,56C58,52.71,52.88,42.54,47.14,32.6c-2.37-4.09-5-8.25-7.45-12.07C36.76,16,33.79,12,30.83,9.46,25.36-.26,19.89-10,14.42-13.71"/><path class="cls-52" d="M64,55.1c-5-4.05-9.68-13.88-14.85-23.51-2.19-4.07-4.53-8.2-6.83-12a66.07,66.07,0,0,0-8-11.24c-5-9.55-10-19.16-14.93-23.3"/><path class="cls-53" d="M64.52,54.25c-4.46-4.85-8.76-14.36-13.36-23.68-2-4-4.12-8.14-6.2-11.94a90.27,90.27,0,0,0-7.1-11.42c-4.48-9.38-9-18.81-13.45-23.41"/><path class="cls-54" d="M65,53.39c-4-5.64-7.81-14.84-11.86-23.83-1.82-4-3.71-8.09-5.58-11.88-2.06-4.18-4.14-8.27-6.21-11.59-4-9.22-8-18.47-12-23.53"/><path class="cls-55" d="M65.55,52.54c-3.46-6.44-6.86-15.34-10.37-24-1.63-4-3.31-8-5-11.81C48.44,12.65,46.67,8.55,44.9,5c-3.5-9-7-18.12-10.5-23.65"/><path class="cls-56" d="M66.06,51.69c-3-7.25-5.89-15.85-8.87-24.16-1.44-4-2.91-8-4.34-11.74-1.5-4-3-8.1-4.44-11.95-3-8.88-6-17.77-9-23.76"/><path class="cls-57" d="M66.58,50.84c-3.7-12.1-7.4-24.8-11.1-36-3.7-12.12-7.39-26.5-11.09-36"/><path class="cls-58" d="M67.79,50.76C64.5,37.45,61,25.92,57.92,14.57c-3.58-13.33-6.58-25.85-9.87-36.2"/><path class="cls-59" d="M69,50.68c-2.89-14.52-6.08-24.95-8.65-36.38C57.08-.29,54.6-10.91,51.72-22.09"/><path class="cls-60" d="M70.22,50.61C67.75,34.86,64.93,25.53,62.8,14c-2.94-15.87-4.95-24.57-7.42-36.58"/><path class="cls-61" d="M71.43,50.53c-2.06-17-4.46-25.21-6.19-36.78C62.67-3.4,61.11-10.16,59-23"/><path class="cls-62" d="M72.64,50.45c-1.65-18.17-3.61-25.34-5-37-2.15-18.45-3.31-23.27-5-37"/><path class="cls-63" d="M73.86,50.37C72.61,31,71.11,24.9,70.12,13.21c-1.68-19.74-2.5-22.62-3.75-37.16"/><path class="cls-64" d="M75.07,50.3c-.84-20.61-1.86-25.61-2.52-37.36C71.38-8.1,70.88-9,70-24.41"/><path class="cls-65" d="M76.28,50.22c-.43-21.82-1-25.73-1.29-37.55-.62-22.32-.86-21.34-1.29-37.55"/><path class="cls-66" d="M77.5,50.14c0-23,0-25.85-.07-37.74,0-23.61,0-20.69-.06-37.74"/><path class="cls-38" d="M78.71,50.06c.39-24.24.77-26,1.16-37.93.39-24.88.77-20,1.16-37.94"/><path class="cls-39" d="M79.84,50.06c.77-23.2,1.54-26.24,2.3-37.78.77-24.16,1.53-19.71,2.3-37.78"/><path class="cls-40" d="M81,50.06c1.14-22.16,2.29-26.51,3.43-37.62C85.56-11,86.7-6.95,87.84-25.19"/><path class="cls-41" d="M82.12,50.06c1.52-21.12,3-26.78,4.56-37.47,1.53-22.73,3-19,4.57-37.47"/><path class="cls-42" d="M83.25,50.06C85.15,30,87.05,23,89,12.75c1.91-22,3.81-18.73,5.71-37.32"/><path class="cls-43" d="M84.39,50.06C86.67,31,89,22.74,91.23,12.9c2.28-21.29,4.55-18.39,6.83-37.16"/><path class="cls-44" d="M85.52,50.06a257.07,257.07,0,0,1,8-37c2.65-20.58,5.31-18.07,8-37"/><path class="cls-45" d="M86.66,50.06c3-17,6.07-27.86,9.11-36.85,3-19.86,6.07-17.73,9.11-36.85"/><path class="cls-46" d="M87.79,50.06Q92.92,26.19,98,13.37c3.41-19.15,6.83-17.41,10.24-36.7"/><path class="cls-47" d="M88.93,50.06c3.79-14.87,7.59-28.4,11.38-36.54C104.1-4.91,107.9-3.55,111.69-23"/><path class="cls-8" d="M90.06,50.06c4.18-13.82,8.35-28.67,12.52-36.38C106.75-4,110.92-3.07,115.1-22.71"/><path class="cls-67" d="M90.63,50.3c3-8,5.91-17.07,8.87-23.7A59.78,59.78,0,0,1,105,14.37,97,97,0,0,1,109.8,2.22c3.26-7.32,6.52-11,9.79-23.41"/><path class="cls-68" d="M91.2,50.53c3.42-7.8,6.84-17.27,10.26-23.28a45.7,45.7,0,0,1,5.89-12.19c1.88-4.77,3.75-7.54,5.65-11.7,3.66-8,7.38-11.44,11.08-23"/><path class="cls-69" d="M91.77,50.76c3.88-7.58,7.77-17.46,11.65-22.86,2.11-6.07,4.21-9.72,6.32-12.15,2.15-4.31,4.28-6.58,6.46-11.25,4.07-8.72,8.24-11.92,12.37-22.64"/><path class="cls-70" d="M92.34,51c4.34-7.35,8.69-17.66,13-22.45,2.25-6.46,4.5-9.89,6.74-12.09,2.43-3.86,4.81-5.64,7.27-10.81,4.49-9.43,9.11-12.41,13.67-22.26"/><path class="cls-71" d="M92.9,51.23c4.82-7.13,9.63-17.87,14.45-22,2.38-6.85,4.77-10.08,7.16-12,2.69-3.39,5.34-4.68,8.08-10.36,4.9-10.13,10-12.9,15-21.88"/><path class="cls-72" d="M93.47,51.46C98.75,44.55,104,33.4,109.31,29.84c2.53-7.24,5.06-10.26,7.58-12,3-2.93,5.87-3.73,8.9-9.91C131.1-2.92,136.62-5.47,142-13.57"/><path class="cls-73" d="M94,51.69c5.74-6.68,11.49-18.26,17.23-21.2,2.67-7.64,5.34-10.45,8-12,3.23-2.47,6.39-2.77,9.71-9.46C134.7-2.48,140.68-4.81,146.53-12"/><path class="cls-74" d="M94.61,51.92c6.21-6.45,12.42-18.46,18.63-20.78,2.8-8,5.61-10.64,8.42-11.93,3.51-2,6.93-1.82,10.52-9C138.31-2,144.74-4.16,151-10.53"/><path class="cls-75" d="M95.17,52.15c6.68-6.23,13.35-18.66,20-20.37,3-8.41,5.9-10.81,8.85-11.87,3.78-1.55,7.45-.87,11.33-8.58C141.91-1.61,148.8-3.51,155.51-9"/><path class="cls-76" d="M95.74,52.39c7.14-6,14.28-18.86,21.42-20,7.14-20.35,14.28-5.38,21.42-20,7.14-13.54,14.28-15.33,21.42-20"/><path class="cls-77" d="M97,53.63c7.38-5.58,14.75-17,22.13-19,7.37-19.55,14.75-5.77,22.12-19C148.66,2,156,1.18,163.41-3.33"/><path class="cls-78" d="M98.32,54.86c7.61-5.13,15.22-15.13,22.83-18,7.61-18.75,15.22-6.16,22.83-18C151.59,5,159.2,5.21,166.81.83"/><path class="cls-79" d="M99.61,56.1c7.85-4.7,15.69-13.27,23.54-17,7.84-18,15.69-6.55,23.53-17,7.85-14,15.69-12.78,23.54-17"/><path class="cls-80" d="M100.9,57.34c8.08-4.27,16.16-11.41,24.24-16.07,8.08-17.16,16.16-6.94,24.24-16.07C157.46,11,165.55,13.28,173.63,9.14"/><path class="cls-81" d="M102.19,58.58c8.32-3.84,16.63-9.55,25-15.1,8.31-16.36,16.63-7.33,25-15.09,8.31-14.33,16.63-11.08,24.94-15.1"/><path class="cls-82" d="M103.48,59.82a108,108,0,0,0,25.66-14.13c8.55-15.56,17.1-7.72,25.65-14.12,8.55-14.49,17.1-10.23,25.65-14.12"/><path class="cls-83" d="M104.77,61.06c8.79-3,17.58-5.83,26.36-13.15,8.79-14.77,17.57-8.12,26.36-13.16,8.78-14.64,17.57-9.37,26.35-13.15"/><path class="cls-84" d="M106.06,62.3c9-2.54,18-4,27.07-12.18,9-14,18-8.51,27.06-12.18,9-14.8,18-8.53,27.06-12.19"/><path class="cls-85" d="M107.35,63.54c9.26-2.1,18.52-2.1,27.77-11.21,9.26-13.18,18.51-8.9,27.77-11.21,9.26-15,18.51-7.68,27.77-11.21"/><path class="cls-57" d="M108.64,64.77c9.5-1.66,19-.23,28.48-10.23,9.49-12.38,19-9.29,28.47-10.24,9.49-15.11,19-6.82,28.47-10.24"/><path class="cls-58" d="M109.88,65.86c9.45-2.38,19.4.06,28.36-9.41,5.23-5.55,9.86-8,14.8-9.35,4.48-.81,9-.51,13.43-1,9.52-13.85,19-6.53,28.55-9.83"/><path class="cls-59" d="M111.12,66.94c9.41-3.08,19.27-.12,28.23-8.58a42,42,0,0,1,14.72-9.18c4.43-.89,8.85-.75,13.28-1.31,9.54-12.58,19.08-6.23,28.62-9.42"/><path class="cls-60" d="M112.36,68c9.37-3.8,19.13-.32,28.11-7.77,5.11-4.23,9.75-6.56,14.63-9,4.38-1,8.75-1,13.13-1.6,9.57-11.3,19.13-5.92,28.7-9"/><path class="cls-61" d="M113.6,69.11c9.33-4.5,19-.52,28-6.94,5-3.59,9.7-5.84,14.54-8.84,4.33-1,8.65-1.22,13-1.89,9.59-10,19.18-5.63,28.77-8.6"/><path class="cls-62" d="M114.84,70.19c9.29-5.2,18.83-.74,27.87-6.11,5-2.95,9.64-5.12,14.45-8.67,4.28-1.11,8.55-1.46,12.83-2.19,9.61-8.77,19.23-5.32,28.85-8.19"/><path class="cls-63" d="M116.08,71.28c9.25-5.92,18.68-1,27.75-5.29,4.89-2.32,9.58-4.41,14.37-8.5,4.22-1.18,8.44-1.7,12.67-2.49,9.64-7.5,19.28-5,28.92-7.77"/><path class="cls-64" d="M117.32,72.36c9.21-6.62,18.53-1.24,27.62-4.46,4.83-1.71,9.53-3.69,14.29-8.33,4.17-1.26,8.34-2,12.52-2.78,9.66-6.23,19.33-4.73,29-7.37"/><path class="cls-65" d="M118.55,73.45c9.17-7.34,18.4-1.53,27.51-3.64a25.54,25.54,0,0,0,14.2-8.16,123.44,123.44,0,0,1,12.37-3.08c9.69-5,19.38-4.42,29.07-7"/><path class="cls-66" d="M119.79,74.53c9.13-8,18.27-1.83,27.39-2.81,4.71-.51,9.41-2.26,14.11-8a117.61,117.61,0,0,1,12.22-3.37c9.71-3.7,19.43-4.13,29.15-6.55"/><path class="cls-38" d="M121,75.61c13.77-13.25,27.53,8.7,41.29-9.8,13.77-5.1,27.53-6.54,41.29-9.81"/><path class="cls-39" d="M121.14,77.26c9.39-8.62,18.78-.45,28.17-1,4.44-.09,8.88-1.3,13.32-6.32,4.51-1.24,9-2.22,13.52-3.52,9.29-1.72,18.58-2.69,27.88-4.4"/><path class="cls-40" d="M121.24,78.92c9.4-8.22,18.81.81,28.21,0,4.5-.06,9-.69,13.5-4.83a91.41,91.41,0,0,0,13.54-3c9.32-1.23,18.63-1.79,27.95-3"/><path class="cls-41" d="M121.34,80.57c9.42-7.81,18.84,2.08,28.26,1,4.55,0,9.11-.07,13.66-3.35,4.52-.36,9-.76,13.57-2.51,9.34-.74,18.68-.89,28-1.62"/><path class="cls-42" d="M121.44,82.22c9.44-7.4,18.87,3.34,28.31,2,4.6,0,9.21.54,13.82-1.86,4.53.07,9.06,0,13.59-2,9.37-.25,18.74,0,28.1-.24"/><path class="cls-43" d="M121.55,83.87c9.45-7,18.89,4.61,28.34,3,4.67,0,9.33,1.15,14-.37,4.54.5,9.08.69,13.62-1.5,9.39.24,18.78.9,28.18,1.14"/><path class="cls-44" d="M121.65,85.52c9.46-6.58,18.93,5.88,28.39,4.06,4.72.07,9.43,1.77,14.15,1.12,4.55.93,9.1,1.41,13.65-1,9.41.73,18.83,1.8,28.25,2.53"/><path class="cls-45" d="M121.75,87.17c9.48-6.17,19,7.14,28.44,5.07,4.77.1,9.54,2.38,14.31,2.61,4.56,1.36,9.12,2.14,13.67-.5,9.45,1.22,18.89,2.69,28.33,3.92"/><path class="cls-46" d="M121.86,88.83c9.49-5.77,19,8.4,28.47,6.07,4.83.14,9.66,3,14.49,4.1,4.56,1.79,9.12,2.86,13.69,0,9.47,1.71,18.94,3.59,28.41,5.31"/><path class="cls-47" d="M122,90.48c9.51-5.36,19,9.67,28.52,7.08,4.88.17,9.76,3.61,14.65,5.59,4.57,2.22,9.14,3.58,13.72.5,9.49,2.2,19,4.49,28.48,6.7"/><path class="cls-8" d="M122.06,92.13c9.52-4.95,19,10.93,28.56,8.09,9.52.4,19,15,28.56,8.08l28.56,8.09"/><path class="cls-67" d="M121,93.91c9.46-4,18.92,9.77,28.38,9.07,9.46.23,18.92,15.51,28.38,9.06l28.38,9.07"/><path class="cls-68" d="M119.84,95.69c9.4-3.1,18.8,8.61,28.2,10,9.4.06,18.8,16.07,28.2,10l28.2,10"/><path class="cls-69" d="M118.74,97.47c9.33-2.18,18.67,7.44,28,11,9.34-.1,18.68,16.63,28,11l28,11"/><path class="cls-70" d="M117.63,99.25c9.27-1.25,18.55,6.28,27.83,12,9.28-.27,18.56,17.2,27.84,12l27.84,12"/><path class="cls-71" d="M116.52,101c9.21-.33,18.43,5.12,27.65,13,9.22-.44,18.44,17.76,27.66,13l27.65,13"/><path class="cls-72" d="M115.41,102.81c9.15.6,18.31,4,27.47,14,9.16-.6,18.32,18.32,27.48,14l27.47,14"/><path class="cls-73" d="M114.3,104.59c9.09,1.53,18.19,2.79,27.29,15,9.1-.77,18.2,18.88,27.3,15l27.29,15"/><path class="cls-74" d="M113.19,106.37c9,2.45,18.07,1.63,27.11,15.94,9-1,18.08,19.43,27.11,15.93l27.12,15.93"/><path class="cls-75" d="M112.08,108.15c9,3.38,18,.47,26.93,16.92,9-1.11,18,20,26.93,16.91l26.94,16.91"/><path class="cls-76" d="M111,109.94c8.92,4.29,17.83-.71,26.75,17.89,8.92-1.28,17.84,20.55,26.75,17.89l26.76,17.89"/><path class="cls-86" d="M109.86,110.94c8.83,5,17.66,1.13,26.48,18.32,8.83-1.15,17.66,18.89,26.49,18.33l26.49,18.32"/><path class="cls-87" d="M108.75,112c8.74,5.64,17.48,3,26.22,18.75,8.74-1,17.48,17.23,26.22,18.75l26.22,18.76"/><path class="cls-88" d="M107.64,113c8.65,6.32,17.3,4.8,26,19.19,8.65-.91,17.3,15.56,25.95,19.18l26,19.18"/><path class="cls-89" d="M106.53,114c8.56,7,17.12,6.63,25.68,19.61,8.57-.78,17.13,13.9,25.69,19.62l25.69,19.61"/><path class="cls-90" d="M105.42,115c8.47,7.66,17,8.47,25.42,20,8.47-.66,16.94,12.23,25.42,20l25.42,20"/><path class="cls-91" d="M104.31,116c8.38,8.34,16.77,10.31,25.15,20.48,8.39-.54,16.77,10.56,25.15,20.47l25.16,20.47"/><path class="cls-92" d="M103.2,117c8.3,9,16.59,12.14,24.89,20.9,8.29-.41,16.59,8.91,24.88,20.91l24.89,20.9"/><path class="cls-93" d="M102.09,118c8.21,9.68,16.41,14,24.62,21.33,8.21-.29,16.41,7.24,24.62,21.33L176,182"/><path class="cls-94" d="M101,119c8.12,10.36,16.24,15.81,24.35,21.77,8.12-.17,16.24,5.57,24.36,21.76L174,184.28"/><path class="cls-95" d="M99.87,120c8,11,16.06,17.64,24.09,22.19,8,0,16,3.91,24.08,22.2l24.09,22.19"/></g><path class="cls-96" d="M83.1,163a70.87,70.87,0,0,1-29.65-6.44,1,1,0,0,1-.57-.68,1,1,0,0,1,.18-.83,39.86,39.86,0,0,0,8.07-19,1,1,0,0,1,.6-.8,56.3,56.3,0,0,1,42.6,0,1,1,0,0,1,.6.8A39.94,39.94,0,0,0,113,155a.94.94,0,0,1,.18.83,1,1,0,0,1-.57.69A70.9,70.9,0,0,1,83.1,163Z"/><path class="cls-97" d="M83.1,131.74a55.22,55.22,0,0,1,21,4.1.27.27,0,0,1,.14.22,40.69,40.69,0,0,0,8.26,19.45.18.18,0,0,1,0,.19.24.24,0,0,1-.15.17,70.73,70.73,0,0,1-58.58,0,.24.24,0,0,1-.15-.17.25.25,0,0,1,0-.19,40.77,40.77,0,0,0,8.23-19.36.25.25,0,0,1,.13-.21,55.15,55.15,0,0,1,21.09-4.16m0-1.5a56.75,56.75,0,0,0-21.66,4.27,1.77,1.77,0,0,0-1,1.39,39.11,39.11,0,0,1-7.92,18.64,1.74,1.74,0,0,0,.67,2.66,72.29,72.29,0,0,0,59.83,0,1.75,1.75,0,0,0,.66-2.66,39,39,0,0,1-7.95-18.73,1.74,1.74,0,0,0-1.06-1.39,56.62,56.62,0,0,0-21.52-4.22Z"/><circle class="cls-98" cx="83.06" cy="146.36" r="12.01"/><path class="cls-99" d="M99.36,156.46l-4.16,3.21a.43.43,0,0,1-.57-.06L90,154.09a.42.42,0,0,1-.1-.3l.52-7.58a.42.42,0,0,1,.41-.39h0a2.55,2.55,0,0,1,2.56,2.53l0,3,.9-.62.41-4.74a.4.4,0,0,0-.06-.26l-4.36-6.91a2.41,2.41,0,0,1,.72-3.3l.09-.06a.42.42,0,0,1,.57.11L98,144.73a.36.36,0,0,1,.07.18l1.42,11.17A.45.45,0,0,1,99.36,156.46Z"/><path class="cls-99" d="M66.78,156.46l4.16,3.21a.42.42,0,0,0,.56-.06l4.69-5.52a.42.42,0,0,0,.1-.3l-.53-7.58a.41.41,0,0,0-.41-.39h0a2.57,2.57,0,0,0-2.56,2.53l0,3-.89-.62L71.46,146a.4.4,0,0,1,.06-.26l4.36-6.91a2.41,2.41,0,0,0-.72-3.3l-.1-.06a.41.41,0,0,0-.56.11l-6.39,9.19a.29.29,0,0,0-.07.18l-1.42,11.17A.4.4,0,0,0,66.78,156.46Z"/><ellipse class="cls-100" cx="85.43" cy="151.2" rx="3.26" ry="3.24"/><path d="M85.43,154.5a3.3,3.3,0,1,1,3.32-3.3A3.31,3.31,0,0,1,85.43,154.5Zm0-6.49a3.19,3.19,0,1,0,3.2,3.19A3.19,3.19,0,0,0,85.43,148Z"/><path d="M86.53,149.32h-.66V149a.23.23,0,0,0-.23-.23h-.42A.23.23,0,0,0,85,149v.28h-.66a.23.23,0,0,0-.23.23v3.53a.23.23,0,0,0,.23.23h2.2a.23.23,0,0,0,.23-.23v-3.53A.23.23,0,0,0,86.53,149.32Zm-.37,3.19a.08.08,0,0,1-.08.07h-1.3a.07.07,0,0,1-.08-.07v-.26a.07.07,0,0,1,.08-.08h1.3a.08.08,0,0,1,.08.08Zm0-1.64a.09.09,0,0,1-.08.08h-.44v.44a.09.09,0,0,1-.08.08H85.3a.08.08,0,0,1-.08-.08V151h-.44a.08.08,0,0,1-.08-.08v-.26a.08.08,0,0,1,.08-.08h.44v-.44a.08.08,0,0,1,.08-.08h.26a.09.09,0,0,1,.08.08v.44h.44a.09.09,0,0,1,.08.08Z"/><path d="M86.53,153.32h-2.2a.25.25,0,0,1-.25-.24v-3.53a.25.25,0,0,1,.25-.25H85V149a.25.25,0,0,1,.25-.25h.42a.25.25,0,0,1,.24.25v.26h.65a.25.25,0,0,1,.25.25v3.53A.25.25,0,0,1,86.53,153.32Zm-2.2-4a.21.21,0,0,0-.21.21v3.53a.21.21,0,0,0,.21.21h2.2a.21.21,0,0,0,.21-.21v-3.53a.21.21,0,0,0-.21-.21h-.68V149a.21.21,0,0,0-.21-.21h-.42A.21.21,0,0,0,85,149v.3Zm1.75,3.26h-1.3a.09.09,0,0,1-.1-.09v-.26a.09.09,0,0,1,.1-.1h1.3a.1.1,0,0,1,.1.1v.26A.1.1,0,0,1,86.08,152.6Zm-1.3-.41a.05.05,0,0,0-.06.06v.26a.06.06,0,0,0,.06.06h1.3a.06.06,0,0,0,.06-.06v-.26a.06.06,0,0,0-.06-.06Zm.78-.71H85.3a.09.09,0,0,1-.1-.09V151h-.42a.1.1,0,0,1-.1-.1v-.26a.1.1,0,0,1,.1-.1h.42v-.42a.1.1,0,0,1,.1-.1h.26a.11.11,0,0,1,.1.1v.42h.42a.11.11,0,0,1,.1.1v.26a.11.11,0,0,1-.1.1h-.42v.42A.1.1,0,0,1,85.56,151.48Zm-.78-.93a.06.06,0,0,0-.06.06v.26a.06.06,0,0,0,.06.06h.46v.46a.06.06,0,0,0,.06.06h.26a.06.06,0,0,0,.06-.06v-.46h.46a.06.06,0,0,0,.06-.06v-.26a.06.06,0,0,0-.06-.06h-.46v-.46a.06.06,0,0,0-.06-.06H85.3a.06.06,0,0,0-.06.06v.46Z"/><ellipse class="cls-4" cx="81.29" cy="140.29" rx="3.26" ry="3.24"/><path class="cls-101" d="M81.29,143.59a3.3,3.3,0,1,1,3.32-3.3A3.31,3.31,0,0,1,81.29,143.59Zm0-6.49a3.19,3.19,0,1,0,3.2,3.19A3.2,3.2,0,0,0,81.29,137.1Z"/><path class="cls-101" d="M81.29,142.6c-.61,0-1.07-1-1.07-2.31s.46-2.31,1.07-2.31,1.07,1,1.07,2.31S81.9,142.6,81.29,142.6Zm0-4.31c-.36,0-.76.82-.76,2s.4,2,.76,2,.76-.82.76-2S81.65,138.29,81.29,138.29Z"/><path class="cls-101" d="M82.53,141.78a3.74,3.74,0,0,1-1.78-.57,4.2,4.2,0,0,1-1.24-1c-.31-.41-.39-.78-.24-1.05.31-.52,1.41-.42,2.55.24a4.2,4.2,0,0,1,1.24,1c.31.41.39.78.24,1h0A.85.85,0,0,1,82.53,141.78ZM80,139.11c-.25,0-.43.06-.5.18s0,.41.22.7a3.72,3.72,0,0,0,1.15.95c1,.59,1.94.66,2.12.35h0c.09-.15,0-.41-.22-.7a3.83,3.83,0,0,0-1.14-1A3.59,3.59,0,0,0,80,139.11Z"/><path class="cls-101" d="M80.05,141.78a.86.86,0,0,1-.78-.33c-.15-.27-.07-.64.24-1a4.2,4.2,0,0,1,1.24-1c1.15-.66,2.24-.76,2.55-.24.15.27.07.64-.24,1.05a4.2,4.2,0,0,1-1.24,1A3.74,3.74,0,0,1,80.05,141.78Zm2.48-2.67a3.52,3.52,0,0,0-1.62.52,3.88,3.88,0,0,0-1.15,1c-.22.29-.3.55-.22.7h0c.18.31,1.1.24,2.13-.35a3.67,3.67,0,0,0,1.14-.95c.23-.29.31-.55.22-.7S82.78,139.11,82.53,139.11Z"/><ellipse class="cls-102" cx="86.22" cy="143.33" rx="3.26" ry="3.24"/><path class="cls-103" d="M86.22,146.63a3.3,3.3,0,1,1,3.32-3.3A3.31,3.31,0,0,1,86.22,146.63Zm0-6.49a3.19,3.19,0,1,0,3.21,3.19A3.2,3.2,0,0,0,86.22,140.14Z"/><polygon class="cls-103" points="87.38 141.15 85.69 142.59 86.33 142.59 85.05 143.89 85.81 143.89 84.85 145.22 87.2 143.36 86.38 143.36 87.63 142.09 86.81 142.09 87.38 141.15"/><path class="cls-103" d="M84.46,145.62l1.2-1.66h-.8l1.29-1.3h-.67l2.22-1.88L86.94,142h.87l-1.25,1.27h.87Zm.77-1.81H86l-.72,1L87,143.43h-.79l1.25-1.26h-.77l.39-.65-1.16,1h.62Z"/><ellipse class="cls-104" cx="80.53" cy="147.68" rx="3.26" ry="3.24"/><path class="cls-105" d="M80.53,151a3.31,3.31,0,1,1,3.32-3.31A3.32,3.32,0,0,1,80.53,151Zm0-6.49a3.19,3.19,0,1,0,3.2,3.18A3.2,3.2,0,0,0,80.53,144.5Z"/><path class="cls-105" d="M82.34,147.73a2.12,2.12,0,0,0-.14-.35c-.14-.25-.28-.29-.36-.46a.76.76,0,0,1,0-.64.42.42,0,0,0-.34,0,.46.46,0,0,0-.18.32c0,.19.06.22,0,.44a.59.59,0,0,1-.18.43.39.39,0,0,1-.38,0c-.14-.08-.15-.27-.16-.31,0-.39.37-.51.41-.92a1,1,0,0,0-.18-.56,1.65,1.65,0,0,0-.68-.65,1.24,1.24,0,0,1,.06.81,1.27,1.27,0,0,1-.33.56c-.23.27-.36.26-.63.49a1.71,1.71,0,0,0-.63.93,1.5,1.5,0,0,0,.1.92,1.67,1.67,0,0,0,.74.81,2.28,2.28,0,0,0,.36.15,1.37,1.37,0,0,1-.53-.82,1.39,1.39,0,0,1,.64-1.47,1.05,1.05,0,0,0-.22.68s0,.35.18.4.16,0,.27-.08a.94.94,0,0,1,.93.11.8.8,0,0,1,.17.82.84.84,0,0,1-.33.41,1.78,1.78,0,0,0,.82-.44A1.83,1.83,0,0,0,82.34,147.73Z"/><g class="cls-106"><g class="cls-107"><path class="cls-5" d="M210.58-49,153.1-27.35c7.16,11.16,11.35,22.9,18.51,34.06l50.39-50Z"/></g></g></svg>