<svg id="Warstwa_1" data-name="Warstwa 1" xmlns="http://www.w3.org/2000/svg" viewBox="0 0 15.93 22.93"><title>Victory point</title><polygon points="4.13 12.1 11.07 12.1 11.07 22.2 7.66 20.77 4.13 22.29 4.13 12.1" fill="#5b6aab"/><path d="M10.82,12.35v9.48l-3-1.25-.2-.08-.19.08L4.38,21.91V12.35h6.44m.5-.5H3.88V22.66L7.66,21l3.66,1.54V11.85Z" fill="#002350"/><path d="M5.55,12a13.9,13.9,0,0,0,6,10,5.46,5.46,0,0,1-.35-1.64,6,6,0,0,1,.1-1.44l1.24.13c.68.08,1.35.17,2,.27a9.8,9.8,0,0,1-3.82-9.44,20.7,20.7,0,0,1-2.9,1.41A20.48,20.48,0,0,1,5.55,12Z" fill="#bd172c" stroke="#621520" stroke-miterlimit="10" stroke-width="0.75"/><path d="M12.05,14.19l0,0L8,12.23a.9.9,0,0,0-.74,0l-4,1.94-.12,0,.59-4.49A.85.85,0,0,0,3.49,9L.4,5.74a.1.1,0,0,1,0-.1.11.11,0,0,1,.08-.07l4.38-.78a.84.84,0,0,0,.6-.43L7.54.43a.1.1,0,0,1,.18,0l2.1,3.93a.84.84,0,0,0,.6.43l4.38.78a.11.11,0,0,1,.08.07.1.1,0,0,1,0,.1L11.77,9a.85.85,0,0,0-.23.71l.61,4.41Z" fill="#ead928"/><path d="M7.63,1.06,9.49,4.53a1.19,1.19,0,0,0,.86.63l3.88.69L11.5,8.69a1.24,1.24,0,0,0-.33,1l.54,3.9L8.17,11.89a1.27,1.27,0,0,0-1.08,0L3.55,13.61l.54-3.9a1.24,1.24,0,0,0-.33-1L1,5.85l3.88-.69a1.19,1.19,0,0,0,.86-.63L7.63,1.06M7.63,0a.47.47,0,0,0-.42.25L5.11,4.18a.45.45,0,0,1-.33.24L.39,5.2A.48.48,0,0,0,.13,6L3.22,9.21a.49.49,0,0,1,.13.4L2.74,14a.48.48,0,0,0,.47.54.41.41,0,0,0,.21-.05l4-1.94a.47.47,0,0,1,.42,0l4,1.94a.41.41,0,0,0,.21.05.47.47,0,0,0,.47-.54l-.61-4.41a.49.49,0,0,1,.13-.4L15.13,6a.48.48,0,0,0-.26-.8l-4.39-.78a.45.45,0,0,1-.33-.24L8.05.25A.46.46,0,0,0,7.63,0Z" fill="#b96c38"/></svg>