<svg id="Warstwa_1" data-name="Warstwa 1" xmlns="http://www.w3.org/2000/svg" viewBox="0 0 18.73 29.63"><title>Victory point (tocken)</title><rect width="18.73" height="29.63" rx="1.69" ry="1.69" fill="#57595b"/><polygon points="5.9 15.06 12.83 15.06 12.83 25.16 9.43 23.73 5.9 25.25 5.9 15.06" fill="#5b6aab"/><path d="M12.58,15.31v9.48l-3-1.25-.19-.08-.2.08L6.15,24.87V15.31h6.43m.5-.5H5.65V25.63L9.43,24l3.65,1.54V14.81Z" fill="#002350"/><path d="M7.31,15a14.1,14.1,0,0,0,2,5.78,13.89,13.89,0,0,0,4,4.17,5.83,5.83,0,0,1-.34-1.64,5.14,5.14,0,0,1,.1-1.44l1.23.13c.69.08,1.36.17,2,.27a10,10,0,0,1-3.42-4.69,9.84,9.84,0,0,1-.39-4.75,21.26,21.26,0,0,1-2.9,1.41A20.6,20.6,0,0,1,7.31,15Z" fill="#bd172c" stroke="#621520" stroke-miterlimit="10" stroke-width="0.75"/><path d="M13.82,17.15l-.05,0-4-1.94a.83.83,0,0,0-.37-.08.84.84,0,0,0-.38.08L5,17.13l-.12,0,.59-4.49a.88.88,0,0,0-.23-.71L2.17,8.71a.1.1,0,0,1,0-.11.08.08,0,0,1,.07-.07l4.39-.78a.81.81,0,0,0,.6-.43l2.1-3.93a.09.09,0,0,1,.09-.06.11.11,0,0,1,.09.06l2.09,3.93a.83.83,0,0,0,.6.43l4.39.78a.11.11,0,0,1,.08.07.13.13,0,0,1,0,.11l-3.08,3.2a.82.82,0,0,0-.23.71L13.92,17Z" fill="#ead928"/><path d="M9.4,4l1.85,3.47a1.2,1.2,0,0,0,.87.63L16,8.81l-2.73,2.84a1.22,1.22,0,0,0-.34,1l.55,3.9L9.93,14.85a1.21,1.21,0,0,0-.53-.12,1.25,1.25,0,0,0-.54.12L5.32,16.57l.54-3.9a1.25,1.25,0,0,0-.33-1L2.79,8.81l3.88-.69a1.18,1.18,0,0,0,.87-.63L9.4,4M9.4,3A.46.46,0,0,0,9,3.21L6.88,7.14a.45.45,0,0,1-.34.24l-4.38.78A.47.47,0,0,0,1.9,9L5,12.17a.48.48,0,0,1,.12.4L4.5,17a.48.48,0,0,0,.47.54.41.41,0,0,0,.21-.05l4-1.94a.46.46,0,0,1,.21,0,.46.46,0,0,1,.2,0l4,1.94a.41.41,0,0,0,.21.05.48.48,0,0,0,.47-.54l-.61-4.41a.49.49,0,0,1,.13-.4L16.89,9a.47.47,0,0,0-.26-.8l-4.38-.78a.47.47,0,0,1-.34-.24L9.82,3.21A.47.47,0,0,0,9.4,3Z" fill="#b96c38"/></svg>