<svg id="Warstwa_1" data-name="Warstwa 1" xmlns="http://www.w3.org/2000/svg" viewBox="0 0 29.44 29.44"><title>Klucz (pusty)</title><path d="M7.75,29.06a7.35,7.35,0,0,1-3.43-.85l4.9-4.91a.94.94,0,0,0,0-1.33L7.47,20.22a.93.93,0,0,0-1.33,0l-4.91,4.9a7.24,7.24,0,0,1-.7-4.93,7.36,7.36,0,0,1,5.23-5.61,7.57,7.57,0,0,1,2-.27,7.14,7.14,0,0,1,1.45.15l.2,0,5.1-5.1,0-.2A7.35,7.35,0,0,1,20.19.53a7.65,7.65,0,0,1,1.5-.16,7.36,7.36,0,0,1,3.43.86l-4.9,4.91a.94.94,0,0,0,0,1.33L22,9.22a.91.91,0,0,0,.66.28,1,1,0,0,0,.67-.28l4.91-4.9a7.36,7.36,0,0,1-4.54,10.53,7.45,7.45,0,0,1-2,.28A7.16,7.16,0,0,1,20.23,15l-.19,0L14.94,20l0,.19a7.28,7.28,0,0,1-.13,3.44,7.36,7.36,0,0,1-5.6,5.24A7.63,7.63,0,0,1,7.75,29.06Z" fill="#1d1d1b"/><path d="M21.69.75h0a6.88,6.88,0,0,1,2.79.59L20,5.87a1.32,1.32,0,0,0,0,1.87L21.7,9.49a1.3,1.3,0,0,0,.93.38,1.28,1.28,0,0,0,.93-.38L28.1,5a7,7,0,0,1-4.53,9.54,6.9,6.9,0,0,1-3.26.12l-.4-.08-.28.29-4.81,4.81-.29.28.08.4a7,7,0,0,1-5.43,8.23,7,7,0,0,1-1.43.15A6.93,6.93,0,0,1,5,28.1l4.54-4.54a1.32,1.32,0,0,0,0-1.86L7.74,20a1.32,1.32,0,0,0-1.87,0L1.34,24.49A7,7,0,0,1,5.86,15a6.84,6.84,0,0,1,1.89-.26,6.46,6.46,0,0,1,1.38.14l.39.07.29-.28,4.81-4.81.28-.29-.07-.39A7,7,0,0,1,20.26.89,7.78,7.78,0,0,1,21.69.75m0-.75a7.84,7.84,0,0,0-1.58.16,7.74,7.74,0,0,0-6,9.12L9.28,14.09a7.78,7.78,0,0,0-1.53-.15,8.07,8.07,0,0,0-2.09.28,7.76,7.76,0,0,0-5.5,5.89,7.67,7.67,0,0,0,1,5.62L6.4,20.48a.57.57,0,0,1,.81,0L9,22.23A.57.57,0,0,1,9,23L3.7,28.29a7.76,7.76,0,0,0,11.65-8.13l4.81-4.81a7.72,7.72,0,0,0,3.61-.14A7.73,7.73,0,0,0,28.29,3.7L23,9a.55.55,0,0,1-.4.16.57.57,0,0,1-.4-.16L20.48,7.21a.58.58,0,0,1,0-.81l5.25-5.25a7.71,7.71,0,0,0-4-1.15Z" fill="#1d1d1b"/><path d="M7.75,29.06a7.35,7.35,0,0,1-3.43-.85l4.9-4.91a.94.94,0,0,0,0-1.33L7.47,20.22a.93.93,0,0,0-1.33,0l-4.91,4.9a7.24,7.24,0,0,1-.7-4.93,7.36,7.36,0,0,1,5.23-5.61,7.57,7.57,0,0,1,2-.27,7.14,7.14,0,0,1,1.45.15l.2,0,5.1-5.1,0-.2A7.35,7.35,0,0,1,20.19.53a7.65,7.65,0,0,1,1.5-.16,7.36,7.36,0,0,1,3.43.86l-4.9,4.91a.93.93,0,0,0,0,1.33L22,9.22a.91.91,0,0,0,.66.28,1,1,0,0,0,.67-.28l4.91-4.9a7.36,7.36,0,0,1-4.54,10.53,7.45,7.45,0,0,1-2,.28A7.16,7.16,0,0,1,20.23,15l-.19,0L14.94,20l0,.19a7.28,7.28,0,0,1-.13,3.44,7.36,7.36,0,0,1-5.6,5.24A7.63,7.63,0,0,1,7.75,29.06Z" fill="#1d1d1b"/><path d="M21.69.75a6.88,6.88,0,0,1,2.79.59L20,5.87a1.33,1.33,0,0,0,0,1.87L21.7,9.49a1.3,1.3,0,0,0,.93.38,1.28,1.28,0,0,0,.93-.38L28.1,5a7,7,0,0,1-4.53,9.54,6.9,6.9,0,0,1-3.26.12l-.4-.08-.28.29-4.81,4.81-.29.28.08.4a7,7,0,0,1-5.43,8.23,7,7,0,0,1-1.43.15A6.93,6.93,0,0,1,5,28.1l4.54-4.54a1.32,1.32,0,0,0,0-1.86L7.74,20a1.32,1.32,0,0,0-1.87,0L1.34,24.49A7,7,0,0,1,5.86,15a6.84,6.84,0,0,1,1.89-.26,6.46,6.46,0,0,1,1.38.14l.39.07.29-.28,4.81-4.81.28-.29-.07-.39A7,7,0,0,1,20.26.89,7.78,7.78,0,0,1,21.69.75m0-.75a7.84,7.84,0,0,0-1.58.16,7.74,7.74,0,0,0-6,9.12L9.28,14.09a7.78,7.78,0,0,0-1.53-.15,8.07,8.07,0,0,0-2.09.28,7.76,7.76,0,0,0-5.5,5.89,7.67,7.67,0,0,0,1,5.62L6.4,20.48a.57.57,0,0,1,.81,0L9,22.23A.57.57,0,0,1,9,23L3.7,28.29a7.76,7.76,0,0,0,11.65-8.13l4.81-4.81a7.72,7.72,0,0,0,3.61-.14A7.73,7.73,0,0,0,28.29,3.7L23,9a.55.55,0,0,1-.4.16.57.57,0,0,1-.4-.16L20.48,7.21a.58.58,0,0,1,0-.81l5.25-5.25a7.71,7.71,0,0,0-4-1.15Z" fill="#1d1d1b"/></svg>