<svg id="Warstwa_1" data-name="Warstwa 1" xmlns="http://www.w3.org/2000/svg" xmlns:xlink="http://www.w3.org/1999/xlink" viewBox="0 0 136.63 136.63"><defs><style>.cls-1,.cls-14,.cls-15,.cls-16,.cls-17,.cls-18,.cls-19,.cls-20,.cls-21,.cls-22,.cls-23,.cls-24,.cls-25,.cls-26,.cls-27,.cls-28,.cls-29,.cls-30,.cls-31,.cls-32,.cls-33,.cls-34,.cls-35,.cls-36,.cls-37,.cls-38,.cls-39,.cls-40,.cls-41,.cls-42,.cls-43,.cls-44,.cls-45,.cls-46,.cls-47,.cls-48,.cls-49{fill:none;}.cls-2{fill:#b7a770;}.cls-3{fill:#fff;}.cls-4{fill:#e4d6a0;}.cls-5{fill:#d92730;}.cls-6{fill:#8b7e54;stroke:#736845;stroke-width:0.75px;}.cls-14,.cls-15,.cls-16,.cls-17,.cls-18,.cls-19,.cls-20,.cls-21,.cls-22,.cls-23,.cls-24,.cls-25,.cls-26,.cls-27,.cls-28,.cls-29,.cls-30,.cls-31,.cls-32,.cls-33,.cls-34,.cls-35,.cls-36,.cls-37,.cls-38,.cls-39,.cls-40,.cls-41,.cls-42,.cls-43,.cls-44,.cls-45,.cls-46,.cls-47,.cls-48,.cls-49,.cls-6{stroke-miterlimit:10;}.cls-7{clip-path:url(#clip-path);}.cls-8{fill:#bd1f23;}.cls-9{fill:#191a1a;}.cls-10{fill:#5b6aab;}.cls-11{fill:#e1a72e;}.cls-12{fill:#d8cdab;}.cls-13{clip-path:url(#clip-path-2);}.cls-14{stroke:#c64224;}.cls-14,.cls-15,.cls-16,.cls-17,.cls-18,.cls-19,.cls-20,.cls-21,.cls-22,.cls-23,.cls-24,.cls-25,.cls-26,.cls-27,.cls-28,.cls-29,.cls-30,.cls-31,.cls-32,.cls-33,.cls-34,.cls-35,.cls-36,.cls-37,.cls-38,.cls-39,.cls-40,.cls-41,.cls-42,.cls-43,.cls-44,.cls-45,.cls-46,.cls-47,.cls-48,.cls-49{stroke-width:5px;}.cls-15{stroke:#ca5425;}.cls-16{stroke:#ce6525;}.cls-17{stroke:#d37726;}.cls-18{stroke:#d78926;}.cls-19{stroke:#db9a26;}.cls-20{stroke:#dfac27;}.cls-21{stroke:#e4bd27;}.cls-22{stroke:#e8cf28;}.cls-23{stroke:#d6bf29;}.cls-24{stroke:#c4b02a;}.cls-25{stroke:#b2a02b;}.cls-26{stroke:#a0912c;}.cls-27{stroke:#8e812e;}.cls-28{stroke:#7b712f;}.cls-29{stroke:#696230;}.cls-30{stroke:#575231;}.cls-31{stroke:#454332;}.cls-32{stroke:#333;}.cls-33{stroke:#2e3840;}.cls-34{stroke:#293c4e;}.cls-35{stroke:#24415b;}.cls-36{stroke:#1f4569;}.cls-37{stroke:#1a4a76;}.cls-38{stroke:#144f83;}.cls-39{stroke:#0f5391;}.cls-40{stroke:#0a589e;}.cls-41{stroke:#055cac;}.cls-42{stroke:#0061b9;}.cls-43{stroke:#125bab;}.cls-44{stroke:#25559c;}.cls-45{stroke:#374e8e;}.cls-46{stroke:#4a4880;}.cls-47{stroke:#5c4272;}.cls-48{stroke:#6e3c63;}.cls-49{stroke:#813655;}</style><clipPath id="clip-path"><path class="cls-1" d="M128.25,120.9h-6.37v5.84H28.67c.28-.55,4.43-9,0-15.75a13,13,0,0,0-4.75-4.25c3.32-5.67,2.4-12.65-1.88-16.66-5.11-4.8-12.32-2.86-12.67-2.76V67.63H0v59.8a9.22,9.22,0,0,0,9.19,9.19H127.44a9.22,9.22,0,0,0,9.19-9.19V67.64h-8.38Z"/></clipPath><clipPath id="clip-path-2"><path class="cls-1" d="M89.91,154.6a77.66,77.66,0,0,0-51.2,136.07l.31.27a3.09,3.09,0,0,0,3.9-4.79h0a73.37,73.37,0,0,1-21.45-33.2,85.72,85.72,0,0,1-3-20.66,71.49,71.49,0,1,1,143,0,86.07,86.07,0,0,1-3,20.67,73.51,73.51,0,0,1-21.69,33.4h0a3.09,3.09,0,0,0,3.88,4.81l.31-.28A77.65,77.65,0,0,0,89.91,154.6Z"/></clipPath></defs><title>Card (brown-color)</title><path class="cls-2" d="M9.19,0H127.43a9.19,9.19,0,0,1,9.19,9.19V127.44a9.19,9.19,0,0,1-9.19,9.19H9.19A9.19,9.19,0,0,1,0,127.44V9.19A9.19,9.19,0,0,1,9.19,0"/><path class="cls-3" d="M12.75,36.25h112V118.5h-6V124l-86.66.66c.38-1.32,2.82-10.41-2.39-16.15a12,12,0,0,0-2.78-2.24c3-6.65,1.72-14.09-3-18.27-4.39-3.91-10-3.46-11.21-3.34Z"/><path class="cls-4" d="M17.25,109a9.5,9.5,0,1,1-9.5,9.5,9.5,9.5,0,0,1,9.5-9.5"/><path class="cls-5" d="M15,91.58a7.25,7.25,0,1,1-7.25,7.25A7.26,7.26,0,0,1,15,91.58"/><polygon class="cls-6" points="12.75 32.5 68.75 32.5 74.25 20.5 59.5 5.75 12.75 5.75 12.75 32.5"/><g class="cls-7"><path class="cls-8" d="M128.25,120.9h-6.37v5.84H28.67c.28-.55,4.43-9,0-15.75a13,13,0,0,0-4.75-4.25c3.32-5.67,2.4-12.65-1.88-16.66-5.11-4.8-12.32-2.86-12.67-2.76V67.63H0v59.8a9.22,9.22,0,0,0,9.19,9.19H127.44a9.22,9.22,0,0,0,9.19-9.19V67.64h-8.38Z"/><path class="cls-9" d="M61.49,112.34q-8.48,21-16.94,42.1L81.23,159l-9.39-48.13Z"/><path class="cls-10" d="M48.87,108.73,6,147.37,36.1,166l35-64.38Z"/><path class="cls-11" d="M39.33,100.15l-57.49,21.67C-11,133-6.8,144.73.36,155.89l50.38-50Z"/><path class="cls-10" d="M97.68,116.21l55.84,29.52,9.87-52-56.81,6Z"/><path class="cls-11" d="M82,112.92l32.62,35.61,37.64-2.61-48-32.8Z"/><path class="cls-9" d="M95.16,101.31l71.42-5.61-1.74-31.65-55,4.65Q102.52,85,95.16,101.31Z"/></g><path class="cls-12" d="M31.5,8a17.88,17.88,0,0,0-1.89-8H9.19A9.2,9.2,0,0,0,0,9.19V26.93a26.17,26.17,0,0,0,8.25,1.32C21.09,28.25,31.5,19.18,31.5,8Z"/><path class="cls-12" d="M132.5,29.25a26.54,26.54,0,0,0,4.12-.32V9.19A9.19,9.19,0,0,0,127.43,0H111.67a18,18,0,0,0-2.42,9C109.25,20.18,119.66,29.25,132.5,29.25Z"/><g class="cls-13"><path class="cls-14" d="M69.26,206.83c-6.44-1.64-12.42-12.49-19.33-23-2.72-4.15-5.78-8.35-8.69-12.21-3.53-4.68-7.09-8.73-10.63-10.71-6.46-10-12.91-20.2-19.37-22.94"/><path class="cls-15" d="M69.78,206c-6-2.44-11.52-12.94-17.84-23.19-2.54-4.11-5.37-8.29-8.07-12.14-3.23-4.58-6.5-8.63-9.74-10.89-6-9.88-11.93-19.85-17.89-23"/><path class="cls-16" d="M70.29,205.13c-5.45-3.24-10.6-13.41-16.34-23.35-2.37-4.09-5-8.25-7.45-12.07-2.93-4.49-5.9-8.55-8.86-11.07-5.47-9.72-10.94-19.51-16.41-23.17"/><path class="cls-17" d="M70.81,204.28c-5-4.05-9.68-13.88-14.85-23.51-2.19-4.07-4.53-8.2-6.83-12a66.07,66.07,0,0,0-8-11.24c-5-9.55-10-19.16-14.93-23.3"/><path class="cls-18" d="M71.33,203.42c-4.46-4.84-8.76-14.35-13.36-23.67-2-4-4.12-8.14-6.2-11.94a90.27,90.27,0,0,0-7.1-11.42c-4.48-9.38-9-18.81-13.45-23.41"/><path class="cls-19" d="M71.84,202.57c-4-5.64-7.81-14.84-11.86-23.83-1.82-4-3.72-8.09-5.58-11.88-2.06-4.18-4.14-8.27-6.21-11.59-4-9.22-8-18.47-12-23.53"/><path class="cls-20" d="M72.36,201.72c-3.46-6.44-6.86-15.34-10.37-24-1.63-4-3.31-8-5-11.81-1.78-4.08-3.55-8.18-5.33-11.76-3.49-9.05-7-18.12-10.49-23.65"/><path class="cls-21" d="M72.87,200.87C69.92,193.62,67,185,64,176.71c-1.44-4-2.91-8-4.34-11.74-1.5-4-3-8.1-4.44-11.95-3-8.88-6-17.77-9-23.76"/><path class="cls-22" d="M73.39,200c-3.7-12.1-7.4-24.8-11.1-36-3.7-12.12-7.39-26.5-11.09-36"/><path class="cls-23" d="M74.6,199.94c-3.29-13.31-6.82-24.84-9.87-36.19-3.58-13.33-6.58-25.86-9.87-36.2"/><path class="cls-24" d="M75.82,199.86c-2.89-14.53-6.08-25-8.65-36.38-3.28-14.59-5.76-25.21-8.64-36.39"/><path class="cls-25" d="M77,199.79c-2.47-15.75-5.29-25.08-7.42-36.58-2.94-15.87-5-24.57-7.42-36.59"/><path class="cls-26" d="M78.24,199.71c-2.06-17-4.46-25.21-6.19-36.78-2.57-17.15-4.13-23.91-6.2-36.77"/><path class="cls-27" d="M79.45,199.63c-1.65-18.17-3.61-25.34-5-37-2.15-18.45-3.32-23.27-5-37"/><path class="cls-28" d="M80.67,199.55c-1.25-19.38-2.75-25.47-3.74-37.16-1.68-19.74-2.5-22.63-3.75-37.16"/><path class="cls-29" d="M81.88,199.48C81,178.87,80,173.87,79.36,162.12c-1.17-21-1.67-22-2.51-37.35"/><path class="cls-30" d="M83.09,199.4c-.43-21.82-1-25.73-1.29-37.55-.62-22.33-.86-21.34-1.29-37.55"/><path class="cls-31" d="M84.31,199.32c0-23,0-25.85-.07-37.74,0-23.61,0-20.69-.06-37.74"/><path class="cls-32" d="M85.52,199.24c.39-24.24.77-26,1.16-37.93.39-24.88.77-20.05,1.16-37.94"/><path class="cls-33" d="M86.65,199.24C87.42,176,88.19,173,89,161.46c.77-24.16,1.53-19.71,2.3-37.78"/><path class="cls-34" d="M87.79,199.24c1.14-22.16,2.29-26.51,3.43-37.62,1.15-23.45,2.29-19.39,3.43-37.63"/><path class="cls-35" d="M88.93,199.24c1.52-21.12,3-26.78,4.56-37.47C95,139,96.54,142.72,98.06,124.3"/><path class="cls-36" d="M90.06,199.24c1.9-20.07,3.8-27.05,5.7-37.31,1.91-22,3.81-18.73,5.71-37.32"/><path class="cls-37" d="M91.2,199.24c2.28-19,4.56-27.32,6.84-37.16,2.27-21.29,4.55-18.39,6.83-37.16"/><path class="cls-38" d="M92.33,199.24a257.07,257.07,0,0,1,8-37c2.65-20.58,5.31-18.07,8-37"/><path class="cls-39" d="M93.47,199.24c3-17,6.07-27.86,9.11-36.85,3-19.86,6.07-17.73,9.11-36.85"/><path class="cls-40" d="M94.6,199.24q5.13-23.87,10.25-36.69c3.41-19.15,6.83-17.41,10.24-36.7"/><path class="cls-41" d="M95.74,199.24c3.79-14.87,7.59-28.4,11.38-36.54,3.79-18.43,7.59-17.07,11.38-36.54"/><path class="cls-42" d="M96.87,199.24c4.18-13.82,8.35-28.67,12.52-36.38,4.17-17.71,8.34-16.75,12.52-36.39"/><path class="cls-43" d="M97.44,199.48c3-8,5.91-17.07,8.87-23.7a59.78,59.78,0,0,1,5.47-12.23,97,97,0,0,1,4.83-12.15c3.26-7.32,6.52-11,9.79-23.41"/><path class="cls-44" d="M98,199.71c3.42-7.8,6.84-17.27,10.26-23.28a45.7,45.7,0,0,1,5.89-12.19c1.88-4.77,3.75-7.54,5.65-11.7,3.66-8,7.38-11.44,11.08-23"/><path class="cls-45" d="M98.58,199.94c3.88-7.58,7.77-17.46,11.65-22.86,2.11-6.07,4.21-9.72,6.32-12.15,2.15-4.31,4.28-6.58,6.46-11.25,4.07-8.73,8.24-11.92,12.37-22.64"/><path class="cls-46" d="M99.14,200.17c4.35-7.35,8.7-17.66,13-22.45,2.25-6.46,4.5-9.89,6.74-12.09,2.43-3.86,4.81-5.64,7.27-10.81,4.49-9.43,9.11-12.41,13.67-22.26"/><path class="cls-47" d="M99.71,200.41c4.82-7.13,9.63-17.87,14.45-22,2.38-6.85,4.77-10.08,7.16-12.05,2.69-3.39,5.34-4.68,8.08-10.36,4.9-10.13,10-12.9,15-21.88"/><path class="cls-48" d="M100.28,200.64c5.28-6.91,10.56-18.06,15.84-21.62,2.53-7.24,5-10.27,7.58-12,3-2.93,5.87-3.73,8.9-9.91,5.3-10.84,10.83-13.39,16.25-21.49"/><path class="cls-49" d="M100.85,200.87c5.74-6.68,11.49-18.26,17.23-21.2,2.67-7.64,5.34-10.45,8-12,3.23-2.47,6.39-2.77,9.71-9.46,5.71-11.54,11.69-13.87,17.54-21.11"/></g></svg>