<svg id="Warstwa_1" data-name="Warstwa 1" xmlns="http://www.w3.org/2000/svg" viewBox="0 0 307 207"><title>color palette</title><rect x="251.13" y="12.15" width="39.32" height="39.32" transform="translate(302.6 -238.99) rotate(90)" fill="#cecccb"/><rect x="251.13" y="59.62" width="39.32" height="39.32" transform="translate(350.07 -191.52) rotate(90)" fill="#a3a2a1"/><rect x="251.13" y="107.09" width="39.32" height="39.32" transform="translate(397.55 -144.04) rotate(90)" fill="#747471"/><rect x="251.13" y="154.57" width="39.32" height="39.32" transform="translate(445.02 -96.57) rotate(90)" fill="#595957"/><rect x="203.3" y="12.15" width="39.32" height="39.32" transform="translate(254.76 -191.15) rotate(90)" fill="#d8cdab"/><rect x="203.3" y="59.62" width="39.32" height="39.32" transform="translate(302.24 -143.68) rotate(90)" fill="#b7a770"/><rect x="155.46" y="12.15" width="39.32" height="39.32" transform="translate(206.93 -143.32) rotate(90)" fill="#8b8987"/><rect x="155.46" y="59.62" width="39.32" height="39.32" transform="translate(254.4 -95.84) rotate(90)" fill="#191a1a"/><rect x="107.63" y="12.15" width="39.32" height="39.32" transform="translate(159.09 -95.48) rotate(90)" fill="#5b6aab"/><rect x="107.63" y="59.62" width="39.32" height="39.32" transform="translate(206.57 -48.01) rotate(90)" fill="#002350"/><rect x="59.79" y="12.15" width="39.32" height="39.32" transform="translate(111.26 -47.65) rotate(90)" fill="#bd172c"/><rect x="59.79" y="59.62" width="39.32" height="39.32" transform="translate(158.73 -0.17) rotate(90)" fill="#621520"/><rect x="11.95" y="12.15" width="39.32" height="39.32" transform="translate(63.42 0.19) rotate(90)" fill="#ead928"/><rect x="11.95" y="59.62" width="39.32" height="39.32" transform="translate(110.89 47.66) rotate(90)" fill="#b96c38"/><rect x="203.3" y="107.09" width="39.32" height="39.32" transform="translate(349.71 -96.21) rotate(90)" fill="#8b7e54"/><rect x="203.3" y="154.57" width="39.32" height="39.32" transform="translate(397.18 -48.73) rotate(90)" fill="#736845"/><path d="M17.77,35.11l-.5-.26a1.77,1.77,0,0,1-.76-.77,2.74,2.74,0,0,1-.26-1.24v-.57A2.92,2.92,0,0,1,16.5,31a1.75,1.75,0,0,1,.73-.81,2.23,2.23,0,0,1,1.15-.28,1.85,1.85,0,0,1,1.09.32,1.94,1.94,0,0,1,.69.92,4.1,4.1,0,0,1,.23,1.44v.33H17v-.8h2.47a1.6,1.6,0,0,0-.32-1,.89.89,0,0,0-.74-.34,1.06,1.06,0,0,0-.87.37,1.58,1.58,0,0,0-.31,1v.64a1.33,1.33,0,0,0,.33,1,1.25,1.25,0,0,0,.94.34,1.57,1.57,0,0,0,.6-.12,1.93,1.93,0,0,0,.54-.35l.65.66a2.75,2.75,0,0,1-.84.56,2.48,2.48,0,0,1-1,.19Z" fill="#1d1d1b"/><path d="M22,34.73a1.46,1.46,0,0,1-.47-1.18,1.45,1.45,0,0,1,.43-1.13A1.88,1.88,0,0,1,23.22,32h1.44l.07.8h-1.5a.81.81,0,0,0-.58.18.78.78,0,0,0,.06,1.1,1.36,1.36,0,0,0,.78.18,2.29,2.29,0,0,0,.85-.12.4.4,0,0,0,.28-.38l.1.71a1.16,1.16,0,0,1-.32.34,1.54,1.54,0,0,1-.45.2,2.49,2.49,0,0,1-.57.06A2.13,2.13,0,0,1,22,34.73Zm2.64-2.9a1.09,1.09,0,0,0-.27-.78,1,1,0,0,0-.75-.27,2,2,0,0,0-.59.09,1.69,1.69,0,0,0-.52.26l-.73-.5a2,2,0,0,1,.76-.54,2.76,2.76,0,0,1,1.05-.19,2.39,2.39,0,0,1,1.08.22,1.48,1.48,0,0,1,.68.65,2,2,0,0,1,.24,1V35h-.95Z" fill="#1d1d1b"/><path d="M27.74,34.89a1.56,1.56,0,0,1-.6-.71,2.68,2.68,0,0,1-.21-1.11V32a2.88,2.88,0,0,1,.2-1.12,1.52,1.52,0,0,1,.59-.7,1.68,1.68,0,0,1,.92-.24,1.47,1.47,0,0,1,.82.23,1.74,1.74,0,0,1,.6.66l-.1,1a1.2,1.2,0,0,0-.12-.55.77.77,0,0,0-.34-.35,1.07,1.07,0,0,0-.53-.12,1,1,0,0,0-.77.31,1.28,1.28,0,0,0-.27.87v1.1a1.22,1.22,0,0,0,.27.85,1,1,0,0,0,.77.3,1.07,1.07,0,0,0,.53-.12.84.84,0,0,0,.34-.36,1.25,1.25,0,0,0,.12-.56L30,34.25a1.45,1.45,0,0,1-.5.63,1.42,1.42,0,0,1-.84.25A1.79,1.79,0,0,1,27.74,34.89ZM30,27.94h1V35H30Z" fill="#1d1d1b"/><path d="M34.94,31.52v.17a.71.71,0,0,1-.37.33,1.43,1.43,0,0,1-.58.11,1.55,1.55,0,0,1-.89-.26,1.67,1.67,0,0,1-.6-.73,2.68,2.68,0,0,1-.21-1.09h0a2.67,2.67,0,0,1,.23-1.18,1.63,1.63,0,0,1,.68-.74,2.37,2.37,0,0,1,2.14,0,1.64,1.64,0,0,1,.67.75,2.69,2.69,0,0,1,.24,1.19h0a4,4,0,0,1-.1.81,5.39,5.39,0,0,1-.28.86l-.06.13-.06.13-1.52,3H33.15Zm0-.62a1.33,1.33,0,0,0,.26-.89h0a1.29,1.29,0,0,0-.26-.87,1,1,0,0,0-1.45,0,1.36,1.36,0,0,0-.26.88h0a1.37,1.37,0,0,0,.26.89,1,1,0,0,0,1.45,0Z" fill="#1d1d1b"/><path d="M37.45,34.18l2.47-3.3a2.37,2.37,0,0,0,.34-.59,1.58,1.58,0,0,0,.12-.57h0a.9.9,0,0,0-.25-.66,1,1,0,0,0-.71-.23,1,1,0,0,0-.7.25,1.16,1.16,0,0,0-.33.73h-1a2.72,2.72,0,0,1,.36-1.05,1.82,1.82,0,0,1,.7-.65,2,2,0,0,1,1-.23,2.39,2.39,0,0,1,1.08.22,1.51,1.51,0,0,1,.69.63,2.08,2.08,0,0,1,.23,1h0a2.3,2.3,0,0,1-.15.79,3.44,3.44,0,0,1-.44.79l-2,2.79h2.68V35h-4Z" fill="#1d1d1b"/><path d="M43.67,34.87a1.76,1.76,0,0,1-.76-.69,2.06,2.06,0,0,1-.26-1V33a2.1,2.1,0,0,1,.26-1,1.83,1.83,0,0,1,.71-.7,1.57,1.57,0,0,1-.6-.6,1.61,1.61,0,0,1-.23-.82v-.17a2,2,0,0,1,.25-1,1.72,1.72,0,0,1,.71-.65,2.32,2.32,0,0,1,1-.23,2.39,2.39,0,0,1,1.06.23,1.76,1.76,0,0,1,.7.65,2,2,0,0,1,.25,1v.17a1.62,1.62,0,0,1-.23.83,1.6,1.6,0,0,1-.62.59,1.82,1.82,0,0,1,.72.71A1.94,1.94,0,0,1,47,33v.12a2,2,0,0,1-.26,1,1.76,1.76,0,0,1-.76.69,2.78,2.78,0,0,1-2.26,0ZM45.41,34a1,1,0,0,0,.41-.38,1.1,1.1,0,0,0,.14-.57V33a1,1,0,0,0-.14-.57,1,1,0,0,0-.41-.39,1.31,1.31,0,0,0-.61-.13,1.33,1.33,0,0,0-.61.13,1,1,0,0,0-.41.39,1.21,1.21,0,0,0-.14.58v.07a1.2,1.2,0,0,0,.14.57,1,1,0,0,0,.41.37,1.34,1.34,0,0,0,.61.14A1.31,1.31,0,0,0,45.41,34Zm-.08-3.2a.89.89,0,0,0,.35-.37,1.09,1.09,0,0,0,.13-.55v-.07a1,1,0,0,0-.13-.53.84.84,0,0,0-.35-.35,1.23,1.23,0,0,0-1.06,0,.84.84,0,0,0-.35.35,1.05,1.05,0,0,0-.13.54v.07a1.05,1.05,0,0,0,.13.54.89.89,0,0,0,.35.37,1.15,1.15,0,0,0,1.06,0Z" fill="#1d1d1b"/><path d="M65.56,27.94h1V35h-1Zm1.45,7a1.37,1.37,0,0,1-.52-.64l.07-1.06a1.18,1.18,0,0,0,.12.55.77.77,0,0,0,.34.35,1,1,0,0,0,.54.13,1,1,0,0,0,.76-.3,1.24,1.24,0,0,0,.27-.85V32a1.25,1.25,0,0,0-.27-.86.94.94,0,0,0-.76-.31,1.11,1.11,0,0,0-.54.12.75.75,0,0,0-.34.34,1.13,1.13,0,0,0-.12.54l-.1-1a1.7,1.7,0,0,1,.6-.69,1.48,1.48,0,0,1,.82-.24,1.68,1.68,0,0,1,.92.24,1.54,1.54,0,0,1,.59.71,2.88,2.88,0,0,1,.2,1.12v1.1a2.6,2.6,0,0,1-.21,1.1,1.43,1.43,0,0,1-.6.7,1.79,1.79,0,0,1-1,.24A1.48,1.48,0,0,1,67,34.89Z" fill="#1d1d1b"/><path d="M71.66,34.89a1.56,1.56,0,0,1-.6-.71,2.86,2.86,0,0,1-.2-1.11V32a2.7,2.7,0,0,1,.2-1.12,1.5,1.5,0,0,1,.58-.7,1.7,1.7,0,0,1,.92-.24,1.47,1.47,0,0,1,.82.23,1.85,1.85,0,0,1,.61.66l-.11,1a1.2,1.2,0,0,0-.11-.55.82.82,0,0,0-.34-.35,1.13,1.13,0,0,0-.54-.12,1,1,0,0,0-.76.31,1.23,1.23,0,0,0-.28.87v1.1a1.18,1.18,0,0,0,.28.85,1,1,0,0,0,.76.3,1.13,1.13,0,0,0,.54-.12.9.9,0,0,0,.34-.36,1.25,1.25,0,0,0,.11-.56L74,34.25a1.43,1.43,0,0,1-.49.63,1.45,1.45,0,0,1-.85.25A1.79,1.79,0,0,1,71.66,34.89Zm2.22-6.95h1V35h-1Z" fill="#1d1d1b"/><path d="M78.06,35h-1V29l-1,.62v-1l1-.68h1Z" fill="#1d1d1b"/><path d="M83.34,28.83,81.5,35H80.44l1.84-6.15H80.47v1h-1v-2h3.86Z" fill="#1d1d1b"/><path d="M84.6,34.18l2.47-3.3a2.37,2.37,0,0,0,.34-.59,1.58,1.58,0,0,0,.12-.57h0a.9.9,0,0,0-.25-.66,1,1,0,0,0-.71-.23,1,1,0,0,0-.7.25,1.16,1.16,0,0,0-.33.73h-1a2.72,2.72,0,0,1,.36-1.05,1.82,1.82,0,0,1,.7-.65,2,2,0,0,1,1-.23,2.39,2.39,0,0,1,1.08.22,1.51,1.51,0,0,1,.69.63,2.08,2.08,0,0,1,.23,1h0a2.3,2.3,0,0,1-.15.79,3.44,3.44,0,0,1-.44.79l-2,2.79H88.6V35h-4Z" fill="#1d1d1b"/><path d="M91.27,35.11l-.49-.25A1.89,1.89,0,0,1,90,34.1a2.52,2.52,0,0,1-.26-1.19v-.83A2.54,2.54,0,0,1,90,30.9a1.84,1.84,0,0,1,.75-.74A2.83,2.83,0,0,1,92.71,30a2.22,2.22,0,0,1,.63.27,1.75,1.75,0,0,1,.46.44l-.72.64a1.52,1.52,0,0,0-.5-.37,1.38,1.38,0,0,0-.6-.13,1.17,1.17,0,0,0-.89.32,1.24,1.24,0,0,0-.32.91v.83a1.34,1.34,0,0,0,.31.93,1.19,1.19,0,0,0,.9.33,1.47,1.47,0,0,0,.61-.14,1.57,1.57,0,0,0,.49-.4l.72.69a1.76,1.76,0,0,1-.47.43,2,2,0,0,1-.62.27,3,3,0,0,1-.74.09Z" fill="#1d1d1b"/><path d="M113,34.9a1.67,1.67,0,0,1-.68-.61,2.28,2.28,0,0,1-.35-1h1a.9.9,0,0,0,.31.61,1,1,0,0,0,.67.22.9.9,0,0,0,.74-.32,1.38,1.38,0,0,0,.26-.9v-.6a1.33,1.33,0,0,0-.26-.89.88.88,0,0,0-.74-.32.93.93,0,0,0-.5.14,1.49,1.49,0,0,0-.42.41h-.9V27.94h3.61v.95h-2.62v1.6a1.35,1.35,0,0,1,.42-.24,1.5,1.5,0,0,1,.47-.08,2,2,0,0,1,1,.25,1.64,1.64,0,0,1,.66.74,2.82,2.82,0,0,1,.23,1.18v.6a2.6,2.6,0,0,1-.24,1.17,1.6,1.6,0,0,1-.68.75,2.16,2.16,0,0,1-1.08.25A2.08,2.08,0,0,1,113,34.9Z" fill="#1d1d1b"/><path d="M117.46,27.94h1V35h-1Zm1.45,7a1.32,1.32,0,0,1-.52-.64l.07-1.06a1.18,1.18,0,0,0,.12.55.72.72,0,0,0,.34.35,1.14,1.14,0,0,0,1.3-.17,1.24,1.24,0,0,0,.27-.85V32a1.25,1.25,0,0,0-.27-.86,1,1,0,0,0-.76-.31,1.08,1.08,0,0,0-.54.12.7.7,0,0,0-.34.34,1.13,1.13,0,0,0-.12.54l-.1-1a1.7,1.7,0,0,1,.6-.69,1.46,1.46,0,0,1,.82-.24,1.68,1.68,0,0,1,.92.24,1.54,1.54,0,0,1,.59.71,2.88,2.88,0,0,1,.2,1.12v1.1a2.6,2.6,0,0,1-.21,1.1,1.54,1.54,0,0,1-.6.7,1.79,1.79,0,0,1-1,.24A1.48,1.48,0,0,1,118.91,34.89Z" fill="#1d1d1b"/><path d="M123.62,34.86a1.56,1.56,0,0,1-.68-.73,2.58,2.58,0,0,1-.23-1.16h0a4,4,0,0,1,.09-.83,4.51,4.51,0,0,1,.27-.86l.06-.14.07-.14,1.54-3.06h1.08L124,31.48v-.17a.78.78,0,0,1,.36-.36,1.16,1.16,0,0,1,.54-.13,1.79,1.79,0,0,1,1,.25,1.5,1.5,0,0,1,.6.73,2.8,2.8,0,0,1,.21,1.14h0a2.81,2.81,0,0,1-.23,1.17,1.74,1.74,0,0,1-.68.74,2.16,2.16,0,0,1-1.08.25A2.08,2.08,0,0,1,123.62,34.86Zm1.79-1a1.17,1.17,0,0,0,.26-.83h0a1.42,1.42,0,0,0-.27-.92,1,1,0,0,0-.76-.32.8.8,0,0,0-.69.33,1.46,1.46,0,0,0-.25.92h0a1.24,1.24,0,0,0,.26.84.92.92,0,0,0,.72.29A.9.9,0,0,0,125.41,33.86Z" fill="#1d1d1b"/><path d="M128.25,34.73a1.46,1.46,0,0,1-.46-1.18,1.44,1.44,0,0,1,.42-1.13A1.93,1.93,0,0,1,129.5,32h1.44l.07.8H129.5a.82.82,0,0,0-.58.18.8.8,0,0,0,.06,1.1,1.38,1.38,0,0,0,.78.18,2.25,2.25,0,0,0,.85-.12.41.41,0,0,0,.29-.38l.1.71a1.19,1.19,0,0,1-.33.34,1.48,1.48,0,0,1-.44.2,2.49,2.49,0,0,1-.57.06A2.16,2.16,0,0,1,128.25,34.73Zm2.65-2.9a1.09,1.09,0,0,0-.27-.78,1,1,0,0,0-.75-.27,2,2,0,0,0-.6.09,1.75,1.75,0,0,0-.51.26l-.73-.5a1.87,1.87,0,0,1,.76-.54,2.69,2.69,0,0,1,1-.19,2.32,2.32,0,0,1,1.07.22,1.55,1.55,0,0,1,.69.65,2.12,2.12,0,0,1,.23,1V35h-.94Z" fill="#1d1d1b"/><path d="M133.58,34.73a1.46,1.46,0,0,1-.47-1.18,1.41,1.41,0,0,1,.43-1.13,1.88,1.88,0,0,1,1.28-.38h1.44l.07.8h-1.5a.85.85,0,0,0-.59.18.79.79,0,0,0,.07,1.1,1.35,1.35,0,0,0,.77.18,2.31,2.31,0,0,0,.86-.12.41.41,0,0,0,.28-.38l.1.71a1.3,1.3,0,0,1-.32.34,1.54,1.54,0,0,1-.45.2,2.49,2.49,0,0,1-.57.06A2.13,2.13,0,0,1,133.58,34.73Zm2.64-2.9a1.09,1.09,0,0,0-.27-.78,1,1,0,0,0-.75-.27,2.08,2.08,0,0,0-.6.09,1.75,1.75,0,0,0-.51.26l-.73-.5a1.94,1.94,0,0,1,.76-.54,2.69,2.69,0,0,1,1-.19,2.39,2.39,0,0,1,1.08.22,1.53,1.53,0,0,1,.68.65,2,2,0,0,1,.24,1V35h-.95Z" fill="#1d1d1b"/><path d="M138.68,27.94h1V35h-1Zm1.44,7a1.36,1.36,0,0,1-.51-.64l.06-1.06a1.18,1.18,0,0,0,.12.55.77.77,0,0,0,.34.35,1,1,0,0,0,.54.13,1,1,0,0,0,.76-.3,1.19,1.19,0,0,0,.28-.85V32a1.2,1.2,0,0,0-.28-.86.94.94,0,0,0-.76-.31,1.13,1.13,0,0,0-.54.12.75.75,0,0,0-.34.34,1.13,1.13,0,0,0-.12.54l-.1-1a1.86,1.86,0,0,1,.6-.69,1.52,1.52,0,0,1,.83-.24,1.7,1.7,0,0,1,.92.24,1.53,1.53,0,0,1,.58.71,2.7,2.7,0,0,1,.2,1.12v1.1a2.77,2.77,0,0,1-.2,1.1,1.54,1.54,0,0,1-.6.7,1.81,1.81,0,0,1-1,.24A1.51,1.51,0,0,1,140.12,34.89Z" fill="#1d1d1b"/><path d="M160.56,34.87a1.79,1.79,0,0,1-.75-.69,2,2,0,0,1-.27-1V33a2,2,0,0,1,.27-1,1.77,1.77,0,0,1,.71-.7,1.57,1.57,0,0,1-.6-.6,1.52,1.52,0,0,1-.23-.82v-.17a1.88,1.88,0,0,1,.25-1,1.69,1.69,0,0,1,.7-.65,2.53,2.53,0,0,1,2.11,0,1.69,1.69,0,0,1,.7.65,1.88,1.88,0,0,1,.25,1v.17a1.53,1.53,0,0,1-.23.83,1.57,1.57,0,0,1-.61.59,1.82,1.82,0,0,1,.72.71,1.94,1.94,0,0,1,.27,1v.12a2,2,0,0,1-.27,1,1.73,1.73,0,0,1-.75.69,2.54,2.54,0,0,1-1.13.24A2.58,2.58,0,0,1,160.56,34.87Zm1.75-.85a1,1,0,0,0,.4-.38,1.1,1.1,0,0,0,.15-.57V33a1.05,1.05,0,0,0-.15-.57.94.94,0,0,0-.4-.39,1.33,1.33,0,0,0-.61-.13,1.35,1.35,0,0,0-.62.13.94.94,0,0,0-.4.39,1.11,1.11,0,0,0-.15.58v.07a1.1,1.1,0,0,0,.15.57,1,1,0,0,0,.4.37,1.42,1.42,0,0,0,1.23,0Zm-.09-3.2a.92.92,0,0,0,.36-.37,1.21,1.21,0,0,0,.13-.55v-.07a1.15,1.15,0,0,0-.13-.53.87.87,0,0,0-.36-.35,1.11,1.11,0,0,0-.52-.12,1.12,1.12,0,0,0-.53.12.87.87,0,0,0-.36.35,1.16,1.16,0,0,0-.13.54v.07a1.16,1.16,0,0,0,.13.54.92.92,0,0,0,.36.37,1,1,0,0,0,.53.13A1,1,0,0,0,162.22,30.82Z" fill="#1d1d1b"/><path d="M165.29,27.94h1V35h-1Zm1.44,7a1.36,1.36,0,0,1-.51-.64l.07-1.06a1.18,1.18,0,0,0,.11.55.77.77,0,0,0,.34.35,1,1,0,0,0,.54.13,1,1,0,0,0,.76-.3,1.19,1.19,0,0,0,.28-.85V32a1.2,1.2,0,0,0-.28-.86.93.93,0,0,0-.76-.31,1.13,1.13,0,0,0-.54.12.75.75,0,0,0-.34.34,1.13,1.13,0,0,0-.11.54l-.11-1a1.86,1.86,0,0,1,.6-.69,1.52,1.52,0,0,1,.83-.24,1.7,1.7,0,0,1,.92.24,1.53,1.53,0,0,1,.58.71,2.7,2.7,0,0,1,.2,1.12v1.1a2.77,2.77,0,0,1-.2,1.1,1.54,1.54,0,0,1-.6.7,1.81,1.81,0,0,1-.95.24A1.51,1.51,0,0,1,166.73,34.89Z" fill="#1d1d1b"/><path d="M171.63,34.87a1.76,1.76,0,0,1-.76-.69,2.06,2.06,0,0,1-.26-1V33a2.1,2.1,0,0,1,.26-1,1.83,1.83,0,0,1,.71-.7,1.57,1.57,0,0,1-.6-.6,1.61,1.61,0,0,1-.23-.82v-.17a2,2,0,0,1,.25-1,1.72,1.72,0,0,1,.71-.65,2.51,2.51,0,0,1,2.1,0,1.72,1.72,0,0,1,.71.65,2,2,0,0,1,.25,1v.17a1.62,1.62,0,0,1-.23.83,1.6,1.6,0,0,1-.62.59,1.82,1.82,0,0,1,.72.71,1.94,1.94,0,0,1,.27,1v.12a2.06,2.06,0,0,1-.26,1,1.76,1.76,0,0,1-.76.69,2.78,2.78,0,0,1-2.26,0Zm1.74-.85a1,1,0,0,0,.41-.38,1.2,1.2,0,0,0,.14-.57V33a1.15,1.15,0,0,0-.14-.57,1,1,0,0,0-.41-.39,1.5,1.5,0,0,0-1.22,0,1,1,0,0,0-.41.39,1.21,1.21,0,0,0-.14.58v.07a1.2,1.2,0,0,0,.14.57,1,1,0,0,0,.41.37,1.4,1.4,0,0,0,1.22,0Zm-.08-3.2a.89.89,0,0,0,.35-.37,1.09,1.09,0,0,0,.13-.55v-.07a1,1,0,0,0-.13-.53.84.84,0,0,0-.35-.35,1.23,1.23,0,0,0-1.06,0,.84.84,0,0,0-.35.35,1.05,1.05,0,0,0-.13.54v.07a1.05,1.05,0,0,0,.13.54.89.89,0,0,0,.35.37,1.15,1.15,0,0,0,1.06,0Z" fill="#1d1d1b"/><path d="M178.82,31.52v.17a.72.72,0,0,1-.36.33,1.51,1.51,0,0,1-.59.11,1.58,1.58,0,0,1-.89-.26,1.67,1.67,0,0,1-.6-.73,2.68,2.68,0,0,1-.21-1.09h0a2.82,2.82,0,0,1,.23-1.18,1.63,1.63,0,0,1,.68-.74,2.37,2.37,0,0,1,2.14,0,1.66,1.66,0,0,1,.68.75,2.84,2.84,0,0,1,.23,1.19h0a3.38,3.38,0,0,1-.1.81,4.54,4.54,0,0,1-.28.86l-.06.13-.06.13-1.51,3H177Zm.05-.62a1.39,1.39,0,0,0,.25-.89h0a1.35,1.35,0,0,0-.25-.87,1,1,0,0,0-1.46,0,1.36,1.36,0,0,0-.26.88h0a1.37,1.37,0,0,0,.26.89,1,1,0,0,0,1.46,0Z" fill="#1d1d1b"/><path d="M182.38,34.87a1.79,1.79,0,0,1-.75-.69,2,2,0,0,1-.27-1V33a2,2,0,0,1,.27-1,1.77,1.77,0,0,1,.71-.7,1.57,1.57,0,0,1-.6-.6,1.52,1.52,0,0,1-.23-.82v-.17a1.88,1.88,0,0,1,.25-1,1.69,1.69,0,0,1,.7-.65,2.36,2.36,0,0,1,1.06-.23,2.32,2.32,0,0,1,1,.23,1.69,1.69,0,0,1,.7.65,1.88,1.88,0,0,1,.25,1v.17a1.53,1.53,0,0,1-.23.83,1.57,1.57,0,0,1-.61.59,1.82,1.82,0,0,1,.72.71,1.94,1.94,0,0,1,.27,1v.12a2,2,0,0,1-.27,1,1.73,1.73,0,0,1-.75.69,2.54,2.54,0,0,1-1.13.24A2.58,2.58,0,0,1,182.38,34.87Zm1.75-.85a1,1,0,0,0,.4-.38,1.1,1.1,0,0,0,.15-.57V33a1.05,1.05,0,0,0-.15-.57.94.94,0,0,0-.4-.39,1.33,1.33,0,0,0-.61-.13,1.31,1.31,0,0,0-.61.13.91.91,0,0,0-.41.39,1.11,1.11,0,0,0-.15.58v.07a1.1,1.1,0,0,0,.15.57.93.93,0,0,0,.41.37,1.31,1.31,0,0,0,.61.14A1.34,1.34,0,0,0,184.13,34Zm-.09-3.2a.86.86,0,0,0,.36-.37,1.09,1.09,0,0,0,.13-.55v-.07a1,1,0,0,0-.13-.53A.81.81,0,0,0,184,29a1.11,1.11,0,0,0-.52-.12A1.12,1.12,0,0,0,183,29a.93.93,0,0,0-.36.35,1.16,1.16,0,0,0-.12.54v.07a1.16,1.16,0,0,0,.12.54,1,1,0,0,0,.36.37,1,1,0,0,0,.53.13A1,1,0,0,0,184,30.82Z" fill="#1d1d1b"/><path d="M190.73,28.83,188.89,35h-1.06l1.84-6.15h-1.81v1h-1v-2h3.86Z" fill="#1d1d1b"/><path d="M208.32,34.89a1.49,1.49,0,0,1-.59-.71,2.68,2.68,0,0,1-.21-1.11V32a2.88,2.88,0,0,1,.2-1.12,1.5,1.5,0,0,1,.58-.7,1.73,1.73,0,0,1,.92-.24,1.51,1.51,0,0,1,.83.23,1.74,1.74,0,0,1,.6.66l-.1,1a1.2,1.2,0,0,0-.12-.55.82.82,0,0,0-.34-.35,1.13,1.13,0,0,0-.54-.12,1,1,0,0,0-.76.31,1.28,1.28,0,0,0-.27.87v1.1a1.22,1.22,0,0,0,.27.85,1,1,0,0,0,.76.3,1.13,1.13,0,0,0,.54-.12.9.9,0,0,0,.34-.36,1.25,1.25,0,0,0,.12-.56l.07,1.07a1.4,1.4,0,0,1-1.35.88A1.81,1.81,0,0,1,208.32,34.89Zm2.23-6.95h1V35h-1Z" fill="#1d1d1b"/><path d="M214,34.87a1.76,1.76,0,0,1-.76-.69,2,2,0,0,1-.26-1V33a2,2,0,0,1,.26-1,1.83,1.83,0,0,1,.71-.7,1.57,1.57,0,0,1-.6-.6,1.61,1.61,0,0,1-.23-.82v-.17a2,2,0,0,1,.25-1,1.76,1.76,0,0,1,.7-.65,2.39,2.39,0,0,1,1.06-.23,2.32,2.32,0,0,1,1,.23,1.72,1.72,0,0,1,.71.65,2,2,0,0,1,.25,1v.17a1.54,1.54,0,0,1-.24.83,1.57,1.57,0,0,1-.61.59A1.82,1.82,0,0,1,217,32a1.94,1.94,0,0,1,.27,1v.12a2.06,2.06,0,0,1-.26,1,1.76,1.76,0,0,1-.76.69,2.78,2.78,0,0,1-2.26,0ZM215.7,34a1,1,0,0,0,.41-.38,1.2,1.2,0,0,0,.14-.57V33a1.15,1.15,0,0,0-.14-.57,1,1,0,0,0-.41-.39,1.33,1.33,0,0,0-.61-.13,1.31,1.31,0,0,0-.61.13,1,1,0,0,0-.41.39,1.11,1.11,0,0,0-.14.58v.07a1.1,1.1,0,0,0,.14.57,1,1,0,0,0,.41.37,1.31,1.31,0,0,0,.61.14A1.34,1.34,0,0,0,215.7,34Zm-.08-3.2a.89.89,0,0,0,.35-.37,1.09,1.09,0,0,0,.13-.55v-.07a1,1,0,0,0-.13-.53.84.84,0,0,0-.35-.35,1.15,1.15,0,0,0-.53-.12,1.12,1.12,0,0,0-.53.12.84.84,0,0,0-.35.35,1.05,1.05,0,0,0-.13.54v.07a1.05,1.05,0,0,0,.13.54.89.89,0,0,0,.35.37,1,1,0,0,0,.53.13A1,1,0,0,0,215.62,30.82Z" fill="#1d1d1b"/><path d="M220,35.11l-.5-.25a1.89,1.89,0,0,1-.75-.76,2.52,2.52,0,0,1-.25-1.19v-.83a2.54,2.54,0,0,1,.25-1.18,1.84,1.84,0,0,1,.75-.74,2.58,2.58,0,0,1,1.19-.26,2.55,2.55,0,0,1,.74.1,2,2,0,0,1,.63.27,1.61,1.61,0,0,1,.46.44l-.71.64a1.55,1.55,0,0,0-.51-.37,1.38,1.38,0,0,0-.6-.13,1.17,1.17,0,0,0-.89.32,1.24,1.24,0,0,0-.32.91v.83a1.3,1.3,0,0,0,.32.93,1.18,1.18,0,0,0,.89.33,1.4,1.4,0,0,0,.61-.14,1.61,1.61,0,0,0,.5-.4l.71.69a1.72,1.72,0,0,1-.46.43,2.22,2.22,0,0,1-.63.27,2.94,2.94,0,0,1-.74.09Z" fill="#1d1d1b"/><path d="M224.32,34.89a1.56,1.56,0,0,1-.6-.71,2.69,2.69,0,0,1-.2-1.11V32a2.7,2.7,0,0,1,.2-1.12,1.44,1.44,0,0,1,.58-.7,1.7,1.7,0,0,1,.92-.24,1.47,1.47,0,0,1,.82.23,1.85,1.85,0,0,1,.61.66l-.11,1a1.35,1.35,0,0,0-.11-.55.82.82,0,0,0-.34-.35,1.13,1.13,0,0,0-.54-.12,1,1,0,0,0-.77.31,1.28,1.28,0,0,0-.27.87v1.1a1.22,1.22,0,0,0,.27.85,1,1,0,0,0,.77.3,1.13,1.13,0,0,0,.54-.12.9.9,0,0,0,.34-.36,1.4,1.4,0,0,0,.11-.56l.07,1.07a1.43,1.43,0,0,1-.49.63,1.47,1.47,0,0,1-.85.25A1.79,1.79,0,0,1,224.32,34.89Zm2.22-6.95h1V35h-1Z" fill="#1d1d1b"/><path d="M229.27,34.73a1.46,1.46,0,0,1-.46-1.18,1.44,1.44,0,0,1,.42-1.13,1.93,1.93,0,0,1,1.29-.38H232l.07.8h-1.51a.82.82,0,0,0-.58.18.8.8,0,0,0,.06,1.1,1.36,1.36,0,0,0,.78.18,2.25,2.25,0,0,0,.85-.12.41.41,0,0,0,.29-.38l.1.71a1.19,1.19,0,0,1-.33.34,1.48,1.48,0,0,1-.44.2,2.52,2.52,0,0,1-.58.06A2.15,2.15,0,0,1,229.27,34.73Zm2.65-2.9a1.09,1.09,0,0,0-.27-.78,1,1,0,0,0-.76-.27,2,2,0,0,0-.59.09,1.75,1.75,0,0,0-.51.26l-.73-.5a1.87,1.87,0,0,1,.76-.54,2.69,2.69,0,0,1,1.05-.19,2.35,2.35,0,0,1,1.07.22,1.55,1.55,0,0,1,.69.65,2.12,2.12,0,0,1,.23,1V35h-.94Z" fill="#1d1d1b"/><path d="M234.38,27.94h1V35h-1Zm1.44,7a1.37,1.37,0,0,1-.52-.64l.07-1.06a1.18,1.18,0,0,0,.12.55.77.77,0,0,0,.34.35,1,1,0,0,0,.54.13,1,1,0,0,0,.76-.3,1.24,1.24,0,0,0,.27-.85V32a1.25,1.25,0,0,0-.27-.86.94.94,0,0,0-.76-.31,1.13,1.13,0,0,0-.54.12.75.75,0,0,0-.34.34,1.13,1.13,0,0,0-.12.54l-.1-1a1.7,1.7,0,0,1,.6-.69,1.49,1.49,0,0,1,.83-.24,1.73,1.73,0,0,1,.92.24,1.53,1.53,0,0,1,.58.71,2.88,2.88,0,0,1,.2,1.12v1.1a2.6,2.6,0,0,1-.21,1.1,1.43,1.43,0,0,1-.6.7,1.78,1.78,0,0,1-.94.24A1.51,1.51,0,0,1,235.82,34.89Z" fill="#1d1d1b"/><path d="M257.57,35.11l-.49-.25a1.77,1.77,0,0,1-.75-.76,2.52,2.52,0,0,1-.26-1.19v-.83a2.54,2.54,0,0,1,.26-1.18,1.73,1.73,0,0,1,.75-.74,2.54,2.54,0,0,1,1.18-.26,2.61,2.61,0,0,1,.75.1,2,2,0,0,1,.62.27,1.8,1.8,0,0,1,.47.44l-.72.64a1.52,1.52,0,0,0-.5-.37,1.44,1.44,0,0,0-.6-.13,1.18,1.18,0,0,0-.9.32,1.24,1.24,0,0,0-.31.91v.83a1.29,1.29,0,0,0,.31.93,1.19,1.19,0,0,0,.9.33,1.39,1.39,0,0,0,.6-.14,1.61,1.61,0,0,0,.5-.4l.72.69a1.93,1.93,0,0,1-.47.43A2.22,2.22,0,0,1,259,35a2.94,2.94,0,0,1-.74.09Z" fill="#1d1d1b"/><path d="M262.57,35.11l-.5-.26a1.77,1.77,0,0,1-.76-.77,2.74,2.74,0,0,1-.26-1.24v-.57A2.92,2.92,0,0,1,261.3,31a1.75,1.75,0,0,1,.73-.81,2.2,2.2,0,0,1,1.15-.28A1.79,1.79,0,0,1,265,31.14a3.88,3.88,0,0,1,.24,1.44v.33h-3.42v-.8h2.47a1.67,1.67,0,0,0-.32-1,.89.89,0,0,0-.74-.34,1.06,1.06,0,0,0-.87.37,1.58,1.58,0,0,0-.31,1v.64a1.33,1.33,0,0,0,.33,1,1.23,1.23,0,0,0,.94.34,1.61,1.61,0,0,0,.6-.12,1.75,1.75,0,0,0,.53-.35l.66.66a2.67,2.67,0,0,1-.85.56,2.39,2.39,0,0,1-.94.19Z" fill="#1d1d1b"/><path d="M267.91,35.11l-.49-.25a1.77,1.77,0,0,1-.75-.76,2.52,2.52,0,0,1-.26-1.19v-.83a2.54,2.54,0,0,1,.26-1.18,1.73,1.73,0,0,1,.75-.74,2.54,2.54,0,0,1,1.18-.26,2.57,2.57,0,0,1,.75.1,2.22,2.22,0,0,1,.63.27,1.75,1.75,0,0,1,.46.44l-.72.64a1.52,1.52,0,0,0-.5-.37,1.38,1.38,0,0,0-.6-.13,1.2,1.2,0,0,0-.9.32,1.24,1.24,0,0,0-.31.91v.83a1.29,1.29,0,0,0,.31.93,1.19,1.19,0,0,0,.9.33,1.39,1.39,0,0,0,.6-.14,1.5,1.5,0,0,0,.5-.4l.72.69a1.76,1.76,0,0,1-.47.43,2,2,0,0,1-.63.27,2.94,2.94,0,0,1-.74.09Z" fill="#1d1d1b"/><path d="M272.89,35.11l-.49-.25a1.77,1.77,0,0,1-.75-.76,2.52,2.52,0,0,1-.26-1.19v-.83a2.54,2.54,0,0,1,.26-1.18,1.73,1.73,0,0,1,.75-.74,2.54,2.54,0,0,1,1.18-.26,2.57,2.57,0,0,1,.75.1,2.22,2.22,0,0,1,.63.27,1.75,1.75,0,0,1,.46.44l-.72.64a1.52,1.52,0,0,0-.5-.37,1.38,1.38,0,0,0-.6-.13,1.16,1.16,0,0,0-.89.32,1.2,1.2,0,0,0-.32.91v.83a1.29,1.29,0,0,0,.31.93,1.19,1.19,0,0,0,.9.33,1.39,1.39,0,0,0,.6-.14,1.5,1.5,0,0,0,.5-.4l.72.69a1.76,1.76,0,0,1-.47.43,2,2,0,0,1-.63.27,2.94,2.94,0,0,1-.74.09Z" fill="#1d1d1b"/><path d="M277.87,35.11l-.49-.25a1.77,1.77,0,0,1-.75-.76,2.52,2.52,0,0,1-.26-1.19v-.83a2.54,2.54,0,0,1,.26-1.18,1.73,1.73,0,0,1,.75-.74,2.54,2.54,0,0,1,1.18-.26,2.57,2.57,0,0,1,.75.1,2.22,2.22,0,0,1,.63.27,1.75,1.75,0,0,1,.46.44l-.72.64a1.52,1.52,0,0,0-.5-.37,1.38,1.38,0,0,0-.6-.13,1.17,1.17,0,0,0-.89.32,1.2,1.2,0,0,0-.32.91v.83a1.29,1.29,0,0,0,.31.93,1.19,1.19,0,0,0,.9.33,1.39,1.39,0,0,0,.6-.14,1.5,1.5,0,0,0,.5-.4l.72.69a1.76,1.76,0,0,1-.47.43,2,2,0,0,1-.63.27,2.89,2.89,0,0,1-.74.09Z" fill="#1d1d1b"/><path d="M281.5,27.94h1V35h-1Zm1.44,7a1.36,1.36,0,0,1-.51-.64l.07-1.06a1.18,1.18,0,0,0,.11.55.77.77,0,0,0,.34.35,1,1,0,0,0,.54.13,1,1,0,0,0,.76-.3,1.19,1.19,0,0,0,.28-.85V32a1.2,1.2,0,0,0-.28-.86.93.93,0,0,0-.76-.31,1.13,1.13,0,0,0-.54.12.75.75,0,0,0-.34.34,1.13,1.13,0,0,0-.11.54l-.11-1a1.86,1.86,0,0,1,.6-.69,1.52,1.52,0,0,1,.83-.24,1.7,1.7,0,0,1,.92.24,1.53,1.53,0,0,1,.58.71,2.7,2.7,0,0,1,.2,1.12v1.1a2.77,2.77,0,0,1-.2,1.1,1.54,1.54,0,0,1-.6.7,1.81,1.81,0,0,1-1,.24A1.51,1.51,0,0,1,282.94,34.89Z" fill="#1d1d1b"/><path d="M16.79,74.18h1v7.1h-1Zm1.45,6.95a1.34,1.34,0,0,1-.52-.65l.07-1.06a1.19,1.19,0,0,0,.12.56.77.77,0,0,0,.34.35,1.07,1.07,0,0,0,.53.12,1,1,0,0,0,.77-.3,1.21,1.21,0,0,0,.27-.84v-1.1a1.29,1.29,0,0,0-.27-.87,1,1,0,0,0-.77-.3,1.07,1.07,0,0,0-.53.11.77.77,0,0,0-.34.35,1.13,1.13,0,0,0-.12.54l-.1-1a1.73,1.73,0,0,1,.6-.68,1.46,1.46,0,0,1,.82-.24,1.68,1.68,0,0,1,.92.24,1.57,1.57,0,0,1,.59.7,2.91,2.91,0,0,1,.2,1.12v1.11a2.63,2.63,0,0,1-.21,1.1,1.54,1.54,0,0,1-.6.7,1.79,1.79,0,0,1-1,.24A1.48,1.48,0,0,1,18.24,81.13Z" fill="#1d1d1b"/><path d="M24.7,77.75v.18a.71.71,0,0,1-.37.33,1.47,1.47,0,0,1-.58.1,1.48,1.48,0,0,1-.89-.26,1.64,1.64,0,0,1-.6-.72,2.7,2.7,0,0,1-.21-1.1h0a2.67,2.67,0,0,1,.23-1.18,1.63,1.63,0,0,1,.68-.74,2.41,2.41,0,0,1,2.14,0,1.71,1.71,0,0,1,.67.76A2.67,2.67,0,0,1,26,76.3h0a4.07,4.07,0,0,1-.1.81,5.74,5.74,0,0,1-.28.86l-.06.13-.06.13-1.52,3H22.91Zm0-.61a1.34,1.34,0,0,0,.26-.9h0a1.29,1.29,0,0,0-.26-.87,1,1,0,0,0-1.45,0,1.35,1.35,0,0,0-.26.87h0a1.39,1.39,0,0,0,.26.89,1,1,0,0,0,1.45,0Z" fill="#1d1d1b"/><path d="M27.69,81.1a1.6,1.6,0,0,1-.68-.73,2.58,2.58,0,0,1-.23-1.16h0a4.12,4.12,0,0,1,.09-.83,4.41,4.41,0,0,1,.27-.85l.06-.14s.05-.1.07-.14l1.54-3.06h1.08l-1.81,3.54v-.18a.81.81,0,0,1,.36-.35,1.05,1.05,0,0,1,.54-.13,1.7,1.7,0,0,1,.95.25,1.52,1.52,0,0,1,.6.72,2.85,2.85,0,0,1,.21,1.15h0a2.82,2.82,0,0,1-.23,1.18,1.68,1.68,0,0,1-.68.74,2.16,2.16,0,0,1-1.08.25A2.08,2.08,0,0,1,27.69,81.1Zm1.79-1a1.17,1.17,0,0,0,.26-.83h0a1.42,1.42,0,0,0-.27-.92,1,1,0,0,0-.76-.32.82.82,0,0,0-.69.32,1.49,1.49,0,0,0-.25.93h0a1.21,1.21,0,0,0,.26.83,1,1,0,0,0,1.45,0Z" fill="#1d1d1b"/><path d="M33.46,81.35s-.17-.08-.49-.26a1.7,1.7,0,0,1-.75-.75A2.43,2.43,0,0,1,32,79.15v-.84a2.38,2.38,0,0,1,.26-1.17,1.7,1.7,0,0,1,.75-.75,2.51,2.51,0,0,1,1.18-.25,3.08,3.08,0,0,1,.75.09,2.34,2.34,0,0,1,.62.28A1.8,1.8,0,0,1,36,77l-.72.64a1.39,1.39,0,0,0-.5-.37,1.46,1.46,0,0,0-.6-.14,1.19,1.19,0,0,0-.9.33,1.22,1.22,0,0,0-.32.9v.84a1.3,1.3,0,0,0,.32.93,1.18,1.18,0,0,0,.9.32,1.26,1.26,0,0,0,.6-.14,1.36,1.36,0,0,0,.5-.4l.72.7a1.93,1.93,0,0,1-.47.43,2.22,2.22,0,0,1-.63.27,2.94,2.94,0,0,1-.74.09Z" fill="#1d1d1b"/><path d="M38.28,81.35l-.46-.22a1.78,1.78,0,0,1-.73-.63,2.29,2.29,0,0,1-.35-1h1A1.07,1.07,0,0,0,38,80a.84.84,0,0,0,.38.29,1.44,1.44,0,0,0,.54.1,1,1,0,0,0,.77-.27,1,1,0,0,0,.27-.74v-.22a1.17,1.17,0,0,0-.26-.82.93.93,0,0,0-.73-.29h-.5v-1h.5a.84.84,0,0,0,.65-.25,1,1,0,0,0,.22-.7v-.22a.87.87,0,0,0-.24-.65,1,1,0,0,0-.68-.23,1,1,0,0,0-.46.1.93.93,0,0,0-.34.29,1.34,1.34,0,0,0-.2.5h-1a2.7,2.7,0,0,1,.37-1,1.74,1.74,0,0,1,.69-.63,2,2,0,0,1,.95-.21,2,2,0,0,1,1.42.48,1.82,1.82,0,0,1,.5,1.36v.12a1.51,1.51,0,0,1-.29.93,1.62,1.62,0,0,1-.81.57,1.47,1.47,0,0,1,.9.57,1.94,1.94,0,0,1,.32,1.14v.11a2.16,2.16,0,0,1-.24,1.06,1.52,1.52,0,0,1-.7.67,2.32,2.32,0,0,1-1.1.23Z" fill="#1d1d1b"/><path d="M43.27,81.11a1.79,1.79,0,0,1-.75-.69,2,2,0,0,1-.27-1v-.12a2,2,0,0,1,.27-1,1.73,1.73,0,0,1,.71-.71,1.48,1.48,0,0,1-.6-.59,1.52,1.52,0,0,1-.23-.82V76a1.86,1.86,0,0,1,.25-1,1.63,1.63,0,0,1,.7-.65,2.2,2.2,0,0,1,1-.23,2.24,2.24,0,0,1,1.06.23,1.63,1.63,0,0,1,.7.65,1.86,1.86,0,0,1,.25,1v.17a1.6,1.6,0,0,1-.84,1.41,1.89,1.89,0,0,1,.72.71,2,2,0,0,1,.27,1v.12a2,2,0,0,1-.27,1,1.85,1.85,0,0,1-.75.69,2.58,2.58,0,0,1-1.14.24A2.54,2.54,0,0,1,43.27,81.11ZM45,80.26a1,1,0,0,0,.41-.38,1.1,1.1,0,0,0,.15-.57v-.07a1.11,1.11,0,0,0-.15-.58,1,1,0,0,0-.41-.38,1.28,1.28,0,0,0-.61-.14,1.34,1.34,0,0,0-.61.14.94.94,0,0,0-.4.39,1.05,1.05,0,0,0-.15.57v.08a1,1,0,0,0,.15.56,1,1,0,0,0,.4.38,1.34,1.34,0,0,0,.61.14A1.28,1.28,0,0,0,45,80.26Zm-.08-3.2a1,1,0,0,0,.36-.37,1.21,1.21,0,0,0,.13-.55v-.07a1.12,1.12,0,0,0-.13-.53.93.93,0,0,0-.36-.35,1,1,0,0,0-.53-.13,1,1,0,0,0-.52.13.87.87,0,0,0-.36.35,1.12,1.12,0,0,0-.13.53v.08a1.2,1.2,0,0,0,.13.54.92.92,0,0,0,.36.37,1.13,1.13,0,0,0,1,0Z" fill="#1d1d1b"/><path d="M66.07,81.1a1.66,1.66,0,0,1-.68-.73,2.73,2.73,0,0,1-.23-1.16h0a4.12,4.12,0,0,1,.09-.83,6.45,6.45,0,0,1,.27-.85,1966866193405.18,1966866193405.18,0,0,0,.14-.28l1.54-3.06h1.07l-1.81,3.54v-.18a.84.84,0,0,1,.35-.35,1.09,1.09,0,0,1,.55-.13,1.73,1.73,0,0,1,.95.25,1.64,1.64,0,0,1,.6.72,3,3,0,0,1,.2,1.15h0a2.82,2.82,0,0,1-.23,1.18,1.63,1.63,0,0,1-.68.74,2.41,2.41,0,0,1-2.14,0Zm1.8-1a1.21,1.21,0,0,0,.26-.83h0a1.42,1.42,0,0,0-.27-.92,1,1,0,0,0-.77-.32.83.83,0,0,0-.69.32,1.56,1.56,0,0,0-.24.93h0a1.21,1.21,0,0,0,.25.83.93.93,0,0,0,.73.3A.9.9,0,0,0,67.87,80.1Z" fill="#fff"/><path d="M70.33,80.41l2.48-3.3a2.61,2.61,0,0,0,.33-.58,1.62,1.62,0,0,0,.12-.57h0a.83.83,0,0,0-.25-.66,1,1,0,0,0-.7-.24,1,1,0,0,0-.71.26,1.1,1.1,0,0,0-.32.72h-1a2.56,2.56,0,0,1,.35-1,1.84,1.84,0,0,1,.7-.66,2.14,2.14,0,0,1,1-.22,2.54,2.54,0,0,1,1.08.21,1.51,1.51,0,0,1,.68.64,2,2,0,0,1,.24,1h0a2.14,2.14,0,0,1-.16.79,3.61,3.61,0,0,1-.43.79l-2.06,2.79h2.69v1h-4Z" fill="#fff"/><path d="M77.32,81.28h-1v-6l-1,.62v-1l1-.67h1Z" fill="#fff"/><path d="M80,81.14a1.73,1.73,0,0,1-.68-.61,2.55,2.55,0,0,1-.35-1h1a.93.93,0,0,0,.31.61,1,1,0,0,0,.67.22.9.9,0,0,0,.74-.32,1.39,1.39,0,0,0,.27-.91v-.59a1.36,1.36,0,0,0-.27-.9,1,1,0,0,0-1.23-.17,1.36,1.36,0,0,0-.42.41h-.91V74.18h3.62v.95H80.08v1.59a1.44,1.44,0,0,1,.42-.23,1.26,1.26,0,0,1,.47-.08,2,2,0,0,1,1,.25,1.64,1.64,0,0,1,.66.74,2.67,2.67,0,0,1,.23,1.18v.59a2.79,2.79,0,0,1-.23,1.18,1.73,1.73,0,0,1-.69.75,2.16,2.16,0,0,1-1.08.25A2.11,2.11,0,0,1,80,81.14Z" fill="#fff"/><path d="M84.27,80.41l2.47-3.3a2.31,2.31,0,0,0,.34-.58A1.62,1.62,0,0,0,87.2,76h0a.83.83,0,0,0-.25-.66,1.12,1.12,0,0,0-1.41,0,1.16,1.16,0,0,0-.33.72h-1a2.73,2.73,0,0,1,.36-1,1.77,1.77,0,0,1,.7-.66,2.12,2.12,0,0,1,1-.22,2.58,2.58,0,0,1,1.09.21A1.56,1.56,0,0,1,88,75a2,2,0,0,1,.23,1h0a2.34,2.34,0,0,1-.15.79,3.66,3.66,0,0,1-.44.79l-2,2.79h2.68v1h-4Z" fill="#fff"/><path d="M90.06,80.82a2,2,0,0,1-.52-1.48V76.11a2.13,2.13,0,0,1,3.54-1.49,2.06,2.06,0,0,1,.51,1.49v3.23a2,2,0,0,1-.51,1.48,2.42,2.42,0,0,1-3,0Zm2.29-.69a1.19,1.19,0,0,0,.25-.79V76.11a1.15,1.15,0,0,0-.25-.8,1,1,0,0,0-.78-.27,1,1,0,0,0-.78.27,1.15,1.15,0,0,0-.25.8v3.23a1.14,1.14,0,0,0,.25.79,1.26,1.26,0,0,0,1.56,0Z" fill="#fff"/><path d="M112.61,80.62a2.08,2.08,0,0,1-.52-1.49V75.91a1.83,1.83,0,0,1,2-2,2,2,0,0,1,1.51.53,2,2,0,0,1,.52,1.49v3.22a1.83,1.83,0,0,1-2,2A2,2,0,0,1,112.61,80.62Zm2.29-.69a1.15,1.15,0,0,0,.25-.8V75.91a1.15,1.15,0,0,0-.25-.8,1.26,1.26,0,0,0-1.56,0,1.15,1.15,0,0,0-.25.8v3.22a1.15,1.15,0,0,0,.25.8,1.26,1.26,0,0,0,1.56,0Z" fill="#fff"/><path d="M117.93,80.62a2.07,2.07,0,0,1-.51-1.49V75.91a1.82,1.82,0,0,1,2-2,2,2,0,0,1,1.51.53,2,2,0,0,1,.52,1.49v3.22a2.13,2.13,0,0,1-3.54,1.49Zm2.29-.69a1.15,1.15,0,0,0,.25-.8V75.91a1.15,1.15,0,0,0-.25-.8,1,1,0,0,0-.78-.27,1,1,0,0,0-.78.27,1.2,1.2,0,0,0-.25.8v3.22a1.2,1.2,0,0,0,.25.8,1.26,1.26,0,0,0,1.56,0Z" fill="#fff"/><path d="M122.83,80.21l2.47-3.3a2.2,2.2,0,0,0,.34-.59,1.54,1.54,0,0,0,.12-.57h0a.86.86,0,0,0-.25-.65,1,1,0,0,0-.71-.24,1,1,0,0,0-.7.26,1.16,1.16,0,0,0-.33.72h-1a2.73,2.73,0,0,1,.36-1,1.77,1.77,0,0,1,.7-.66,2.1,2.1,0,0,1,1-.23,2.53,2.53,0,0,1,1.08.22,1.62,1.62,0,0,1,.69.63,2.08,2.08,0,0,1,.23,1h0a2.14,2.14,0,0,1-.16.79,3.23,3.23,0,0,1-.43.79l-2.06,2.79h2.69v1h-4Z" fill="#fff"/><path d="M129.34,81.15l-.45-.22a1.66,1.66,0,0,1-.73-.63,2.16,2.16,0,0,1-.35-1h1a1.19,1.19,0,0,0,.19.5,1,1,0,0,0,.38.29,1.55,1.55,0,0,0,.55.09,1.08,1.08,0,0,0,.76-.26,1,1,0,0,0,.28-.74V79a1.2,1.2,0,0,0-.26-.82,1,1,0,0,0-.74-.29h-.5v-1h.5a.82.82,0,0,0,.65-.25,1,1,0,0,0,.23-.7v-.22a.85.85,0,0,0-.24-.65,1,1,0,0,0-.69-.23.93.93,0,0,0-.45.1.79.79,0,0,0-.34.29,1.37,1.37,0,0,0-.21.49h-1a2.72,2.72,0,0,1,.37-1,1.74,1.74,0,0,1,.69-.63,2,2,0,0,1,1-.22,1.93,1.93,0,0,1,1.42.49,1.77,1.77,0,0,1,.5,1.36v.12a1.52,1.52,0,0,1-.28.92,1.65,1.65,0,0,1-.82.58,1.47,1.47,0,0,1,.9.57,1.86,1.86,0,0,1,.32,1.13v.12a2.16,2.16,0,0,1-.24,1.06,1.59,1.59,0,0,1-.69.67,2.48,2.48,0,0,1-1.1.23Z" fill="#fff"/><path d="M134.42,80.94a1.67,1.67,0,0,1-.68-.61,2.39,2.39,0,0,1-.35-1h1a.94.94,0,0,0,.32.61,1,1,0,0,0,.67.21.88.88,0,0,0,.74-.32,1.4,1.4,0,0,0,.26-.9v-.59a1.4,1.4,0,0,0-.26-.9.9.9,0,0,0-.74-.32.94.94,0,0,0-.5.15,1.26,1.26,0,0,0-.42.41h-.91V74h3.62v.94h-2.62v1.6a1.55,1.55,0,0,1,.88-.32,2.11,2.11,0,0,1,1.06.26,1.59,1.59,0,0,1,.66.74,2.82,2.82,0,0,1,.23,1.18V79a2.67,2.67,0,0,1-.24,1.18,1.63,1.63,0,0,1-.68.74,2.16,2.16,0,0,1-1.08.26A2,2,0,0,1,134.42,80.94Z" fill="#fff"/><path d="M139.35,80.62a2,2,0,0,1-.52-1.49V75.91a1.83,1.83,0,0,1,2-2,2,2,0,0,1,1.51.53,2,2,0,0,1,.51,1.49v3.22a1.82,1.82,0,0,1-2,2A2,2,0,0,1,139.35,80.62Zm2.29-.69a1.2,1.2,0,0,0,.25-.8V75.91a1.15,1.15,0,0,0-.25-.8,1,1,0,0,0-.78-.27,1,1,0,0,0-.78.27,1.15,1.15,0,0,0-.25.8v3.22a1.15,1.15,0,0,0,.25.8,1.26,1.26,0,0,0,1.56,0Z" fill="#fff"/><path d="M164.9,81.08h-1v-6l-1,.62v-1l1-.67h1Z" fill="#fff"/><path d="M169,77.55v.18a.75.75,0,0,1-.37.33,1.5,1.5,0,0,1-.58.1,1.54,1.54,0,0,1-.9-.26,1.68,1.68,0,0,1-.6-.73,2.62,2.62,0,0,1-.21-1.09h0a2.82,2.82,0,0,1,.23-1.18,1.63,1.63,0,0,1,.68-.74,2.15,2.15,0,0,1,1.07-.26,2.09,2.09,0,0,1,1.07.26,1.71,1.71,0,0,1,.68.75,2.87,2.87,0,0,1,.23,1.19h0a3.44,3.44,0,0,1-.1.81,4.74,4.74,0,0,1-.27.86l-.06.13a.75.75,0,0,1-.07.12l-1.51,3h-1.07Zm0-.61a1.42,1.42,0,0,0,.26-.9h0a1.31,1.31,0,0,0-.26-.87.88.88,0,0,0-.73-.31.9.9,0,0,0-.73.31,1.33,1.33,0,0,0-.25.87h0a1.39,1.39,0,0,0,.25.89.9.9,0,0,0,.73.31A.88.88,0,0,0,169.07,76.94Z" fill="#fff"/><path d="M173.35,81.08h-1v-6l-1,.62v-1l1-.67h1Z" fill="#fff"/><path d="M175.23,80.76a1.74,1.74,0,0,1,0-2.31,1.93,1.93,0,0,1,1.29-.37h1.44l.07.8h-1.51a.87.87,0,0,0-.58.17.67.67,0,0,0-.19.53.65.65,0,0,0,.25.57,1.28,1.28,0,0,0,.78.19,2.25,2.25,0,0,0,.85-.12.41.41,0,0,0,.29-.38l.1.71a1.19,1.19,0,0,1-.33.34,1.46,1.46,0,0,1-.44.19,2,2,0,0,1-.58.07A2.14,2.14,0,0,1,175.23,80.76Zm2.65-2.9a1,1,0,0,0-.27-.77,1,1,0,0,0-.76-.28,1.74,1.74,0,0,0-.59.1,1.54,1.54,0,0,0-.51.26l-.73-.5a1.87,1.87,0,0,1,.76-.54,2.69,2.69,0,0,1,1.05-.19,2.35,2.35,0,0,1,1.07.22,1.59,1.59,0,0,1,.69.64,2.13,2.13,0,0,1,.23,1v3.26h-.94Z" fill="#fff"/><path d="M182,81.08h-1v-6l-1,.62v-1l1-.67h1Z" fill="#fff"/><path d="M183.88,80.76a1.74,1.74,0,0,1,0-2.31,1.91,1.91,0,0,1,1.29-.37h1.44l.06.8h-1.5a.87.87,0,0,0-.58.17.68.68,0,0,0-.2.53.65.65,0,0,0,.26.57,1.28,1.28,0,0,0,.78.19,2.29,2.29,0,0,0,.85-.12.4.4,0,0,0,.28-.38l.11.71a1.19,1.19,0,0,1-.33.34,1.53,1.53,0,0,1-.45.19,2,2,0,0,1-.57.07A2.14,2.14,0,0,1,183.88,80.76Zm2.64-2.9a1.09,1.09,0,0,0-.26-.77,1,1,0,0,0-.76-.28,1.7,1.7,0,0,0-.59.1,1.5,1.5,0,0,0-.52.26l-.72-.5a1.91,1.91,0,0,1,.75-.54,2.76,2.76,0,0,1,1.05-.19,2.39,2.39,0,0,1,1.08.22,1.59,1.59,0,0,1,.69.64,2.13,2.13,0,0,1,.23,1v3.26h-.95Z" fill="#fff"/><path d="M208.05,74.18h1v7.1h-1Zm1.45,6.95a1.34,1.34,0,0,1-.52-.65l.07-1.06a1.19,1.19,0,0,0,.11.56.82.82,0,0,0,.34.35,1.13,1.13,0,0,0,.54.12,1,1,0,0,0,.77-.3,1.21,1.21,0,0,0,.27-.84v-1.1a1.29,1.29,0,0,0-.27-.87A1,1,0,0,0,210,77a1.13,1.13,0,0,0-.54.11.82.82,0,0,0-.34.35,1.13,1.13,0,0,0-.11.54l-.11-1a1.9,1.9,0,0,1,.6-.68,1.52,1.52,0,0,1,.83-.24,1.7,1.7,0,0,1,.92.24,1.55,1.55,0,0,1,.58.7,2.73,2.73,0,0,1,.2,1.12v1.11a2.81,2.81,0,0,1-.2,1.1,1.54,1.54,0,0,1-.6.7,1.81,1.81,0,0,1-1,.24A1.46,1.46,0,0,1,209.5,81.13Z" fill="#1d1d1b"/><path d="M217.11,75.07l-1.84,6.21h-1.06l1.84-6.15h-1.81v1h-1v-2h3.86Z" fill="#1d1d1b"/><path d="M218.74,81a1.72,1.72,0,0,1,0-2.3,1.93,1.93,0,0,1,1.29-.38h1.44l.07.8H220a.87.87,0,0,0-.58.17.69.69,0,0,0-.19.53.68.68,0,0,0,.25.58,1.36,1.36,0,0,0,.78.18,2.25,2.25,0,0,0,.85-.12.4.4,0,0,0,.28-.38l.11.71a1.19,1.19,0,0,1-.33.34,1.6,1.6,0,0,1-.44.2,2.52,2.52,0,0,1-.58.06A2.14,2.14,0,0,1,218.74,81Zm2.64-2.89a1.07,1.07,0,0,0-.26-.78,1,1,0,0,0-.76-.27,2,2,0,0,0-.59.09,1.75,1.75,0,0,0-.51.26l-.73-.5a1.87,1.87,0,0,1,.76-.54,2.68,2.68,0,0,1,1-.19,2.39,2.39,0,0,1,1.08.22,1.59,1.59,0,0,1,.69.64,2.19,2.19,0,0,1,.23,1v3.26h-1Z" fill="#1d1d1b"/><path d="M227.46,75.07l-1.83,6.21h-1.06l1.83-6.15h-1.8v1h-1v-2h3.86Z" fill="#1d1d1b"/><path d="M232.5,75.07l-1.84,6.21H229.6l1.84-6.15h-1.81v1h-1v-2h3.86Z" fill="#1d1d1b"/><path d="M234.38,80.82a2.06,2.06,0,0,1-.51-1.48V76.11a1.82,1.82,0,0,1,2-2,1.83,1.83,0,0,1,2,2v3.23a2,2,0,0,1-.52,1.48,2,2,0,0,1-1.51.53A2,2,0,0,1,234.38,80.82Zm2.29-.69a1.14,1.14,0,0,0,.25-.79V76.11a1.15,1.15,0,0,0-.25-.8,1,1,0,0,0-.78-.27,1,1,0,0,0-.78.27,1.15,1.15,0,0,0-.25.8v3.23a1.19,1.19,0,0,0,.25.79,1.26,1.26,0,0,0,1.56,0Z" fill="#1d1d1b"/><path d="M256.92,81a1.72,1.72,0,0,1,0-2.3,1.93,1.93,0,0,1,1.29-.38h1.44l.07.8h-1.51a.87.87,0,0,0-.58.17.69.69,0,0,0-.19.53.68.68,0,0,0,.25.58,1.38,1.38,0,0,0,.78.18,2.25,2.25,0,0,0,.85-.12.41.41,0,0,0,.29-.38l.1.71a1.19,1.19,0,0,1-.33.34,1.48,1.48,0,0,1-.44.2,2.49,2.49,0,0,1-.57.06A2.16,2.16,0,0,1,256.92,81Zm2.65-2.89a1.07,1.07,0,0,0-.27-.78,1,1,0,0,0-.76-.27,2,2,0,0,0-.59.09,1.75,1.75,0,0,0-.51.26l-.73-.5a1.87,1.87,0,0,1,.76-.54,2.69,2.69,0,0,1,1-.19,2.35,2.35,0,0,1,1.07.22,1.59,1.59,0,0,1,.69.64,2.19,2.19,0,0,1,.23,1v3.26h-.94Z" fill="#1d1d1b"/><path d="M263.22,81.35l-.46-.22a1.78,1.78,0,0,1-.73-.63,2.29,2.29,0,0,1-.35-1h1a1.07,1.07,0,0,0,.19.5.84.84,0,0,0,.38.29,1.49,1.49,0,0,0,.54.1,1,1,0,0,0,.77-.27,1,1,0,0,0,.27-.74v-.22a1.17,1.17,0,0,0-.26-.82.93.93,0,0,0-.73-.29h-.5v-1h.5a.84.84,0,0,0,.65-.25,1,1,0,0,0,.23-.7v-.22a.87.87,0,0,0-.24-.65,1.13,1.13,0,0,0-1.15-.13.93.93,0,0,0-.34.29,1.34,1.34,0,0,0-.2.5h-1a2.7,2.7,0,0,1,.37-1,1.74,1.74,0,0,1,.69-.63,2,2,0,0,1,.95-.21,2,2,0,0,1,1.42.48,1.82,1.82,0,0,1,.5,1.36v.12a1.51,1.51,0,0,1-.29.93,1.62,1.62,0,0,1-.81.57,1.47,1.47,0,0,1,.9.57,1.94,1.94,0,0,1,.32,1.14v.11a2.16,2.16,0,0,1-.24,1.06,1.54,1.54,0,0,1-.69.67,2.39,2.39,0,0,1-1.11.23Z" fill="#1d1d1b"/><path d="M267.53,81a1.43,1.43,0,0,1-.46-1.18,1.39,1.39,0,0,1,.43-1.12,1.88,1.88,0,0,1,1.28-.38h1.44l.07.8h-1.51a.87.87,0,0,0-.58.17.69.69,0,0,0-.19.53.68.68,0,0,0,.25.58,1.38,1.38,0,0,0,.78.18,2.25,2.25,0,0,0,.85-.12.41.41,0,0,0,.29-.38l.1.71a1.19,1.19,0,0,1-.33.34,1.37,1.37,0,0,1-.44.2,2.49,2.49,0,0,1-.57.06A2.16,2.16,0,0,1,267.53,81Zm2.65-2.89a1.07,1.07,0,0,0-.27-.78,1,1,0,0,0-.75-.27,2,2,0,0,0-.6.09,1.75,1.75,0,0,0-.51.26l-.73-.5a1.87,1.87,0,0,1,.76-.54,2.69,2.69,0,0,1,1.05-.19,2.39,2.39,0,0,1,1.08.22,1.62,1.62,0,0,1,.68.64,2.19,2.19,0,0,1,.23,1v3.26h-.94Z" fill="#1d1d1b"/><path d="M272.48,80.41l2.48-3.3a2.61,2.61,0,0,0,.33-.58,1.62,1.62,0,0,0,.12-.57h0a.83.83,0,0,0-.25-.66,1.12,1.12,0,0,0-1.41,0,1.16,1.16,0,0,0-.33.72h-1a2.73,2.73,0,0,1,.36-1,1.84,1.84,0,0,1,.7-.66,2.12,2.12,0,0,1,1-.22,2.55,2.55,0,0,1,1.09.21,1.56,1.56,0,0,1,.68.64,2,2,0,0,1,.24,1h0a2.36,2.36,0,0,1-.16.79,3.66,3.66,0,0,1-.44.79l-2.05,2.79h2.68v1h-4Z" fill="#1d1d1b"/><path d="M278,81a1.72,1.72,0,0,1,0-2.3,1.91,1.91,0,0,1,1.29-.38h1.44l.07.8h-1.51a.87.87,0,0,0-.58.17.69.69,0,0,0-.19.53.68.68,0,0,0,.25.58,1.36,1.36,0,0,0,.78.18,2.25,2.25,0,0,0,.85-.12.4.4,0,0,0,.28-.38l.11.71a1.19,1.19,0,0,1-.33.34,1.6,1.6,0,0,1-.44.2,2.52,2.52,0,0,1-.58.06A2.14,2.14,0,0,1,278,81Zm2.64-2.89a1.07,1.07,0,0,0-.26-.78,1,1,0,0,0-.76-.27,2,2,0,0,0-.59.09,1.64,1.64,0,0,0-.51.26l-.73-.5a1.87,1.87,0,0,1,.76-.54,2.68,2.68,0,0,1,1-.19,2.39,2.39,0,0,1,1.08.22,1.59,1.59,0,0,1,.69.64,2.19,2.19,0,0,1,.23,1v3.26h-.95Z" fill="#1d1d1b"/><path d="M284.79,81.28h-1v-6l-1,.62v-1l1-.67h1Z" fill="#1d1d1b"/><path d="M208.37,128.58a1.76,1.76,0,0,1-.76-.69,2.06,2.06,0,0,1-.26-1v-.11a2,2,0,0,1,.26-1,1.79,1.79,0,0,1,.71-.71,1.68,1.68,0,0,1-.83-1.41v-.17a1.93,1.93,0,0,1,.25-1,1.68,1.68,0,0,1,.71-.66,2.32,2.32,0,0,1,1.05-.23,2.39,2.39,0,0,1,1.06.23,1.71,1.71,0,0,1,.7.66,1.93,1.93,0,0,1,.25,1v.17a1.61,1.61,0,0,1-.23.82,1.6,1.6,0,0,1-.62.59,1.82,1.82,0,0,1,.72.71,2,2,0,0,1,.27,1v.11a2,2,0,0,1-.26,1,1.76,1.76,0,0,1-.76.69,2.68,2.68,0,0,1-2.26,0Zm1.74-.85a1,1,0,0,0,.41-.38,1.07,1.07,0,0,0,.14-.57v-.07a1,1,0,0,0-.14-.57,1,1,0,0,0-.41-.39,1.31,1.31,0,0,0-.61-.13,1.33,1.33,0,0,0-.61.13,1,1,0,0,0-.41.39,1.21,1.21,0,0,0-.14.58v.07a1.2,1.2,0,0,0,.14.57.92.92,0,0,0,.41.37,1.34,1.34,0,0,0,.61.14A1.31,1.31,0,0,0,210.11,127.73Zm-.08-3.2a.84.84,0,0,0,.35-.37,1.09,1.09,0,0,0,.13-.55v-.07a1,1,0,0,0-.13-.52.81.81,0,0,0-.35-.36,1.12,1.12,0,0,0-.53-.12,1.15,1.15,0,0,0-.53.12.81.81,0,0,0-.35.36,1,1,0,0,0-.13.53v.07a1.09,1.09,0,0,0,.13.55.87.87,0,0,0,.35.36,1,1,0,0,0,.53.13A1,1,0,0,0,210,124.53Z" fill="#1d1d1b"/><path d="M213.09,121.65h1v7.1h-1Zm1.45,6.95A1.37,1.37,0,0,1,214,128l.07-1.06a1.15,1.15,0,0,0,.12.55.84.84,0,0,0,.34.36,1.13,1.13,0,0,0,.54.12,1,1,0,0,0,.76-.3,1.22,1.22,0,0,0,.27-.85v-1.1a1.25,1.25,0,0,0-.27-.86.94.94,0,0,0-.76-.31,1.13,1.13,0,0,0-.54.12.8.8,0,0,0-.34.34,1.15,1.15,0,0,0-.12.55l-.1-1a1.7,1.7,0,0,1,.6-.69,1.48,1.48,0,0,1,.82-.24,1.68,1.68,0,0,1,.92.24,1.54,1.54,0,0,1,.59.71,2.88,2.88,0,0,1,.2,1.12v1.1a2.6,2.6,0,0,1-.21,1.1,1.43,1.43,0,0,1-.6.7,1.69,1.69,0,0,1-.94.25A1.5,1.5,0,0,1,214.54,128.6Z" fill="#1d1d1b"/><path d="M222.15,122.54l-1.83,6.21h-1.06l1.83-6.15h-1.8v1h-1v-2h3.86Z" fill="#1d1d1b"/><path d="M224.89,128.83l-.5-.27a1.77,1.77,0,0,1-.76-.77,2.72,2.72,0,0,1-.26-1.23V126a3,3,0,0,1,.26-1.28,1.83,1.83,0,0,1,.72-.81,2.24,2.24,0,0,1,1.16-.28,1.84,1.84,0,0,1,1.08.32,2,2,0,0,1,.69.92,4.1,4.1,0,0,1,.23,1.44v.33H224.1v-.8h2.47a1.74,1.74,0,0,0-.32-1,.9.9,0,0,0-.74-.34,1.08,1.08,0,0,0-.88.37,1.58,1.58,0,0,0-.31,1.05v.65a1.3,1.3,0,0,0,.33,1,1.25,1.25,0,0,0,.94.34,1.62,1.62,0,0,0,.61-.12,2,2,0,0,0,.53-.34l.65.65a2.75,2.75,0,0,1-.84.56,2.49,2.49,0,0,1-.95.2Z" fill="#1d1d1b"/><path d="M229.86,128.62a1.81,1.81,0,0,1-.68-.61,2.54,2.54,0,0,1-.35-1h1a.9.9,0,0,0,.31.61,1,1,0,0,0,.67.22.9.9,0,0,0,.74-.32,1.34,1.34,0,0,0,.27-.9v-.6a1.33,1.33,0,0,0-.27-.89.88.88,0,0,0-.74-.32,1,1,0,0,0-.49.14,1.49,1.49,0,0,0-.42.41H229v-3.74h3.62v.95H230v1.6a1.76,1.76,0,0,1,.42-.24,1.5,1.5,0,0,1,.47-.08,2,2,0,0,1,1,.25,1.62,1.62,0,0,1,.66.75,2.6,2.6,0,0,1,.23,1.17v.6a2.82,2.82,0,0,1-.23,1.18,1.71,1.71,0,0,1-.69.74,2.16,2.16,0,0,1-1.08.26A2.11,2.11,0,0,1,229.86,128.62Z" fill="#1d1d1b"/><path d="M234.18,126.8l2.38-5.14h1l-2.33,5.08h3.48v.92h-4.56Zm3.06-2.22h1v4.18h-1Z" fill="#1d1d1b"/><path d="M260.68,122.54l-1.83,6.21h-1.06l1.83-6.15h-1.8v1h-1v-2h3.86Z" fill="#1d1d1b"/><path d="M261.56,126.8l2.39-5.14h1l-2.32,5.08h3.48v.92h-4.57Zm3.06-2.22h1v4.18h-1Z" fill="#1d1d1b"/><path d="M271,122.54l-1.84,6.21h-1.06L270,122.6h-1.81v1h-1v-2H271Z" fill="#1d1d1b"/><path d="M271.89,126.8l2.39-5.14h1L273,126.74h3.48v.92h-4.57Zm3.07-2.22h1v4.18h-1Z" fill="#1d1d1b"/><path d="M281.35,122.54l-1.84,6.21h-1.06l1.84-6.15h-1.81v1h-1v-2h3.86Z" fill="#1d1d1b"/><path d="M284.43,128.75h-1v-6l-1,.62v-1l1-.68h1Z" fill="#1d1d1b"/><path d="M211.25,170l-1.83,6.21h-1.06l1.83-6.16h-1.8v1h-1v-2h3.86Z" fill="#1d1d1b"/><path d="M213.86,176.3l-.45-.22a1.66,1.66,0,0,1-.73-.63,2.16,2.16,0,0,1-.35-1h1a1.19,1.19,0,0,0,.19.5,1,1,0,0,0,.38.29,1.55,1.55,0,0,0,.55.09,1.06,1.06,0,0,0,.76-.26,1,1,0,0,0,.28-.74v-.22a1.2,1.2,0,0,0-.26-.82.91.91,0,0,0-.73-.29H214v-.95h.51a.81.81,0,0,0,.64-.25,1,1,0,0,0,.23-.7v-.22a.85.85,0,0,0-.24-.65,1,1,0,0,0-.69-.23.93.93,0,0,0-.45.1.79.79,0,0,0-.34.29,1.36,1.36,0,0,0-.2.49h-1a2.48,2.48,0,0,1,.36-1,1.74,1.74,0,0,1,.69-.63,2.08,2.08,0,0,1,.95-.22,1.93,1.93,0,0,1,1.42.49,1.77,1.77,0,0,1,.51,1.36V171a1.53,1.53,0,0,1-.29.92,1.6,1.6,0,0,1-.82.58,1.39,1.39,0,0,1,.9.57,1.86,1.86,0,0,1,.32,1.13v.12a2.18,2.18,0,0,1-.24,1.06,1.59,1.59,0,0,1-.69.67,2.48,2.48,0,0,1-1.1.23Z" fill="#1d1d1b"/><path d="M218.67,176.05a1.64,1.64,0,0,1-.67-.73,2.61,2.61,0,0,1-.24-1.16h0a3.54,3.54,0,0,1,.1-.83,5.2,5.2,0,0,1,.26-.85l.07-.15a.91.91,0,0,1,.07-.14l1.54-3.05h1.07l-1.81,3.54v-.18a.93.93,0,0,1,.35-.36A1.2,1.2,0,0,1,220,172a1.73,1.73,0,0,1,.95.25,1.54,1.54,0,0,1,.6.72,3,3,0,0,1,.2,1.15h0a2.6,2.6,0,0,1-.23,1.17,1.6,1.6,0,0,1-.68.75,2.23,2.23,0,0,1-1.07.25A2.12,2.12,0,0,1,218.67,176.05Zm1.8-1a1.24,1.24,0,0,0,.26-.84h0a1.4,1.4,0,0,0-.27-.92.94.94,0,0,0-.77-.33.83.83,0,0,0-.69.33,1.55,1.55,0,0,0-.24.92h0a1.21,1.21,0,0,0,.25.83,1.06,1.06,0,0,0,1.46,0Z" fill="#1d1d1b"/><path d="M224,176.06a1.84,1.84,0,0,1-.76-.7,2,2,0,0,1-.26-1v-.12a2,2,0,0,1,.26-1,1.86,1.86,0,0,1,.71-.71,1.55,1.55,0,0,1-.6-.59,1.61,1.61,0,0,1-.23-.82v-.17a2,2,0,0,1,.25-1,1.66,1.66,0,0,1,.71-.65,2.2,2.2,0,0,1,1.05-.24,2.27,2.27,0,0,1,1.06.24,1.69,1.69,0,0,1,.7.65,2,2,0,0,1,.25,1v.17a1.59,1.59,0,0,1-.23.82,1.53,1.53,0,0,1-.62.59,1.82,1.82,0,0,1,.72.71,2,2,0,0,1,.27,1v.12a1.93,1.93,0,0,1-.26,1,1.84,1.84,0,0,1-.76.7,2.78,2.78,0,0,1-2.26,0Zm1.74-.85a1,1,0,0,0,.41-.39,1,1,0,0,0,.14-.57v-.06a1.11,1.11,0,0,0-.14-.58,1,1,0,0,0-.41-.38,1.31,1.31,0,0,0-.61-.14,1.34,1.34,0,0,0-.61.14,1,1,0,0,0-.41.38,1.21,1.21,0,0,0-.14.58v.07a1.15,1.15,0,0,0,.14.57,1,1,0,0,0,.41.38,1.33,1.33,0,0,0,.61.13A1.31,1.31,0,0,0,225.73,175.21Zm-.08-3.21a.81.81,0,0,0,.35-.36,1.13,1.13,0,0,0,.13-.56V171a1,1,0,0,0-.13-.53.93.93,0,0,0-.35-.36,1.12,1.12,0,0,0-.53-.12,1.15,1.15,0,0,0-.53.12.93.93,0,0,0-.35.36,1,1,0,0,0-.13.53v.07a1.09,1.09,0,0,0,.13.55.81.81,0,0,0,.35.36,1,1,0,0,0,.53.13A1,1,0,0,0,225.65,172Z" fill="#1d1d1b"/><path d="M228.57,174.27l2.38-5.14h1l-2.33,5.08h3.48v.93h-4.56Zm3.06-2.22h1v4.18h-1Z" fill="#1d1d1b"/><path d="M235.38,176.09a1.73,1.73,0,0,1-.68-.61,2.55,2.55,0,0,1-.35-1h1a1,1,0,0,0,.31.61,1.06,1.06,0,0,0,.68.21.89.89,0,0,0,.74-.32,1.4,1.4,0,0,0,.26-.9v-.59a1.4,1.4,0,0,0-.26-.9,1,1,0,0,0-1.24-.17,1.26,1.26,0,0,0-.42.41h-.91v-3.74h3.62v.94h-2.62v1.6a1.27,1.27,0,0,1,.41-.23,1.31,1.31,0,0,1,.47-.09,2,2,0,0,1,1.05.26,1.61,1.61,0,0,1,.67.74,2.79,2.79,0,0,1,.22,1.18v.59a2.67,2.67,0,0,1-.23,1.18,1.68,1.68,0,0,1-.68.74,2.16,2.16,0,0,1-1.08.26A2.12,2.12,0,0,1,235.38,176.09Z" fill="#1d1d1b"/><path d="M256.74,176.09a1.73,1.73,0,0,1-.68-.61,2.55,2.55,0,0,1-.35-1h1a1,1,0,0,0,.31.61,1,1,0,0,0,.68.21.9.9,0,0,0,.74-.32,1.4,1.4,0,0,0,.26-.9v-.59a1.4,1.4,0,0,0-.26-.9.93.93,0,0,0-.74-.32.91.91,0,0,0-.5.15,1.26,1.26,0,0,0-.42.41h-.91v-3.74h3.62v.94h-2.62v1.6a1.48,1.48,0,0,1,.88-.32,2,2,0,0,1,1.05.26,1.59,1.59,0,0,1,.66.74,2.64,2.64,0,0,1,.23,1.18v.59a2.82,2.82,0,0,1-.23,1.18,1.71,1.71,0,0,1-.69.74,2.32,2.32,0,0,1-2,.05Z" fill="#1d1d1b"/><path d="M263.67,172.7v.18a.75.75,0,0,1-.37.33,1.52,1.52,0,0,1-.59.1,1.59,1.59,0,0,1-1.49-1,2.65,2.65,0,0,1-.21-1.09h0a2.82,2.82,0,0,1,.23-1.18,1.63,1.63,0,0,1,.68-.74,2.15,2.15,0,0,1,1.07-.26,2.09,2.09,0,0,1,1.07.26,1.71,1.71,0,0,1,.68.75,2.87,2.87,0,0,1,.23,1.19h0a3.44,3.44,0,0,1-.1.81,4.79,4.79,0,0,1-.28.86.61.61,0,0,1,0,.12.54.54,0,0,1-.07.13l-1.51,3h-1.08Zm.05-.61a1.42,1.42,0,0,0,.25-.9h0a1.31,1.31,0,0,0-.25-.87A.88.88,0,0,0,263,170a.89.89,0,0,0-.73.31,1.31,1.31,0,0,0-.25.87h0a1.39,1.39,0,0,0,.25.89.89.89,0,0,0,.73.31A.88.88,0,0,0,263.72,172.09Z" fill="#1d1d1b"/><path d="M267.32,176.09a1.67,1.67,0,0,1-.68-.61,2.39,2.39,0,0,1-.35-1h1a.88.88,0,0,0,.31.61,1,1,0,0,0,.67.21A.88.88,0,0,0,269,175a1.34,1.34,0,0,0,.26-.9v-.59a1.34,1.34,0,0,0-.26-.9.9.9,0,0,0-.74-.32.94.94,0,0,0-.5.15,1.26,1.26,0,0,0-.42.41h-.9v-3.74h3.61v.94h-2.62v1.6a1.32,1.32,0,0,1,.42-.23,1.27,1.27,0,0,1,.47-.09,2,2,0,0,1,1.05.26,1.59,1.59,0,0,1,.66.74,2.79,2.79,0,0,1,.23,1.18v.59a2.67,2.67,0,0,1-.24,1.18,1.63,1.63,0,0,1-.68.74,2.16,2.16,0,0,1-1.08.26A2.08,2.08,0,0,1,267.32,176.09Z" fill="#1d1d1b"/><path d="M274.25,172.7v.18a.71.71,0,0,1-.37.33,1.44,1.44,0,0,1-.58.1,1.55,1.55,0,0,1-.89-.26,1.62,1.62,0,0,1-.6-.73,2.65,2.65,0,0,1-.21-1.09h0a2.67,2.67,0,0,1,.23-1.18,1.58,1.58,0,0,1,.68-.74,2.33,2.33,0,0,1,2.14,0,1.77,1.77,0,0,1,.68.75,2.87,2.87,0,0,1,.23,1.19h0a4.07,4.07,0,0,1-.1.81,5.74,5.74,0,0,1-.28.86l-.06.12-.06.13-1.51,3h-1.08Zm0-.61a1.36,1.36,0,0,0,.26-.9h0a1.26,1.26,0,0,0-.26-.87,1,1,0,0,0-1.45,0,1.31,1.31,0,0,0-.26.87h0a1.39,1.39,0,0,0,.26.89,1,1,0,0,0,1.45,0Z" fill="#1d1d1b"/><path d="M277.89,176.09a1.8,1.8,0,0,1-.68-.61,2.38,2.38,0,0,1-.34-1h1a1,1,0,0,0,.31.61,1.06,1.06,0,0,0,.68.21.89.89,0,0,0,.74-.32,1.4,1.4,0,0,0,.26-.9v-.59a1.4,1.4,0,0,0-.26-.9,1,1,0,0,0-1.24-.17,1.26,1.26,0,0,0-.42.41H277v-3.74h3.62v.94H278v1.6a1.27,1.27,0,0,1,.41-.23,1.31,1.31,0,0,1,.47-.09,2,2,0,0,1,1.05.26,1.56,1.56,0,0,1,.67.74,2.79,2.79,0,0,1,.22,1.18v.59a2.67,2.67,0,0,1-.23,1.18,1.68,1.68,0,0,1-.68.74,2.16,2.16,0,0,1-1.08.26A2.12,2.12,0,0,1,277.89,176.09Z" fill="#1d1d1b"/><path d="M286,170l-1.84,6.21h-1.06l1.84-6.16h-1.81v1h-1v-2H286Z" fill="#1d1d1b"/></svg>