<svg id="Warstwa_1" data-name="Warstwa 1" xmlns="http://www.w3.org/2000/svg" viewBox="0 0 42.75 42.75"><title>Energy (red)</title><circle cx="21.38" cy="21.38" r="21" fill="#bd172c" stroke="#621520" stroke-miterlimit="10" stroke-width="0.75"/><path d="M33.05,21.66a11.36,11.36,0,0,0-.87-2.24c-.93-1.64-1.8-1.91-2.33-3-.38-.8-.6-2.08.25-4.17a2.72,2.72,0,0,0-2.19.21,2.88,2.88,0,0,0-1.14,2.06c-.21,1.24.34,1.47.27,2.85a3.5,3.5,0,0,1-1.14,2.77,2.32,2.32,0,0,1-2.41.23,2.61,2.61,0,0,1-1-2c-.21-2.49,2.37-3.26,2.58-5.94a6.31,6.31,0,0,0-1.12-3.63,10.38,10.38,0,0,0-4.36-4.17,8.41,8.41,0,0,1,.36,5.23,8.87,8.87,0,0,1-2.1,3.61c-1.5,1.74-2.33,1.69-4.08,3.18a11.4,11.4,0,0,0-4.08,6,9.78,9.78,0,0,0,.65,6,11,11,0,0,0,4.81,5.23,12.1,12.1,0,0,0,2.3,1A8.64,8.64,0,0,1,14,29.5,9.08,9.08,0,0,1,18.13,20a6.65,6.65,0,0,0-1.43,4.41c0,.35.17,2.27,1.17,2.62.56.2,1-.21,1.73-.52a5.86,5.86,0,0,1,6,.72,5.09,5.09,0,0,1,1.09,5.27,5.26,5.26,0,0,1-2.14,2.67,11,11,0,0,0,5.29-2.86A11.84,11.84,0,0,0,33.05,21.66Z" fill="#621520"/></svg>