<svg id="Warstwa_1" data-name="Warstwa 1" xmlns="http://www.w3.org/2000/svg" viewBox="0 0 26.84 20.77"><title>Energy amount</title><circle cx="13.41" cy="9.83" r="9.7" fill="#fff" stroke="#878787" stroke-miterlimit="10" stroke-width="0.25"/><path d="M26.58,18l-3.36,2.59a.33.33,0,0,1-.46,0L19,16.07a.31.31,0,0,1-.08-.24l.42-6.13a.34.34,0,0,1,.33-.31h0a2.06,2.06,0,0,1,2.07,2l0,2.4.72-.5L22.8,9.5a.29.29,0,0,0-.05-.2L19.23,3.71A2,2,0,0,1,19.81,1l.08,0a.32.32,0,0,1,.45.09l5.17,7.42a.34.34,0,0,1,.06.15l1.14,9A.31.31,0,0,1,26.58,18Z" fill="#c8c9c3" stroke="#878787" stroke-miterlimit="10" stroke-width="0.25"/><path d="M.26,18l3.36,2.59a.32.32,0,0,0,.45,0l3.79-4.46a.31.31,0,0,0,.08-.24L7.52,9.7a.34.34,0,0,0-.34-.31h0a2.06,2.06,0,0,0-2.06,2l0,2.4-.72-.5L4,9.5a.29.29,0,0,1,0-.2L7.61,3.71A2,2,0,0,0,7,1L7,1a.34.34,0,0,0-.46.09L1.33,8.51a.34.34,0,0,0-.06.15l-1.14,9A.31.31,0,0,0,.26,18Z" fill="#c8c9c3" stroke="#878787" stroke-miterlimit="10" stroke-width="0.25"/><ellipse cx="15.33" cy="13.74" rx="2.64" ry="2.62" fill="#8b8987"/><path d="M15.33,16.41A2.67,2.67,0,1,1,18,13.74,2.69,2.69,0,0,1,15.33,16.41Zm0-5.25a2.58,2.58,0,1,0,2.59,2.58A2.59,2.59,0,0,0,15.33,11.16Z"/><path d="M16.22,12.22h-.54V12a.18.18,0,0,0-.19-.18h-.33A.19.19,0,0,0,15,12v.23h-.53a.18.18,0,0,0-.19.18v2.86a.18.18,0,0,0,.19.18h1.78a.18.18,0,0,0,.18-.18V12.4A.18.18,0,0,0,16.22,12.22Zm-.3,2.57a.07.07,0,0,1-.07.07h-1a.07.07,0,0,1-.06-.07v-.21a.06.06,0,0,1,.06-.06h1a.07.07,0,0,1,.07.06Zm0-1.32a.07.07,0,0,1-.07.07H15.5v.35a.07.07,0,0,1-.07.06h-.21a.06.06,0,0,1-.06-.06v-.35H14.8a.07.07,0,0,1-.06-.07v-.21a.06.06,0,0,1,.06-.06h.36v-.36a.06.06,0,0,1,.06-.06h.21a.07.07,0,0,1,.07.06v.36h.35a.07.07,0,0,1,.07.06Z"/><path d="M16.22,15.46H14.44a.21.21,0,0,1-.21-.2V12.4a.21.21,0,0,1,.21-.2H15V12a.2.2,0,0,1,.2-.2h.33a.21.21,0,0,1,.21.2v.21h.52a.2.2,0,0,1,.2.2v2.86A.2.2,0,0,1,16.22,15.46Zm-1.78-3.23a.17.17,0,0,0-.17.17v2.86a.16.16,0,0,0,.17.16h1.78a.17.17,0,0,0,.17-.16V12.4a.18.18,0,0,0-.17-.17h-.56V12a.17.17,0,0,0-.17-.17h-.33A.18.18,0,0,0,15,12v.24Zm1.41,2.64h-1a.08.08,0,0,1-.08-.08v-.21a.09.09,0,0,1,.08-.08h1a.08.08,0,0,1,.08.08v.21A.07.07,0,0,1,15.85,14.87Zm-1-.33a0,0,0,0,0-.05,0v.21a0,0,0,0,0,.05.05h1a0,0,0,0,0,.05-.05v-.21a0,0,0,0,0-.05,0Zm.63-.57h-.21a.09.09,0,0,1-.08-.08v-.34H14.8a.08.08,0,0,1-.08-.08v-.21a.09.09,0,0,1,.08-.08h.34v-.34a.09.09,0,0,1,.08-.08h.21a.08.08,0,0,1,.08.08v.34h.34a.08.08,0,0,1,.08.08v.21a.07.07,0,0,1-.08.08h-.34v.34A.08.08,0,0,1,15.43,14Zm-.63-.76a.05.05,0,0,0-.05,0v.21a0,0,0,0,0,.05,0h.37v.37a0,0,0,0,0,.05,0h.21a0,0,0,0,0,.05,0v-.37h.37a0,0,0,0,0,.05,0v-.21a.05.05,0,0,0-.05,0h-.37v-.37a0,0,0,0,0-.05,0h-.21a0,0,0,0,0-.05,0v.37Z"/><ellipse cx="11.98" cy="4.92" rx="2.64" ry="2.62" fill="#5b6aab"/><path d="M12,7.59a2.67,2.67,0,1,1,2.68-2.67A2.68,2.68,0,0,1,12,7.59Zm0-5.24a2.58,2.58,0,1,0,2.59,2.57A2.58,2.58,0,0,0,12,2.35Z" fill="#002350"/><path d="M12,6.79c-.49,0-.87-.8-.87-1.87s.38-1.86.87-1.86.87.8.87,1.86S12.47,6.79,12,6.79ZM12,3.3c-.29,0-.61.67-.61,1.62s.32,1.62.61,1.62.61-.66.61-1.62S12.27,3.3,12,3.3Z" fill="#002350"/><path d="M13,6.13a3.11,3.11,0,0,1-1.43-.46,3.28,3.28,0,0,1-1-.84c-.25-.33-.32-.62-.2-.84.25-.43,1.14-.35,2.06.19a3.26,3.26,0,0,1,1,.83c.25.33.32.63.2.85h0A.69.69,0,0,1,13,6.13ZM11,4a.47.47,0,0,0-.4.14c-.07.12,0,.34.18.57a3,3,0,0,0,.92.77c.83.48,1.57.53,1.72.28h0c.07-.12,0-.33-.18-.57a3.15,3.15,0,0,0-.92-.77A2.87,2.87,0,0,0,11,4Z" fill="#002350"/><path d="M11,6.13a.69.69,0,0,1-.63-.27c-.12-.22,0-.52.2-.85a3.26,3.26,0,0,1,1-.83c.92-.54,1.81-.62,2.06-.19.12.22.05.51-.2.84a3.28,3.28,0,0,1-1,.84A3.11,3.11,0,0,1,11,6.13ZM13,4a2.87,2.87,0,0,0-1.32.42,3.15,3.15,0,0,0-.92.77c-.18.24-.25.45-.18.57h0c.15.25.89.2,1.72-.28a3,3,0,0,0,.92-.77c.18-.23.25-.45.18-.57A.47.47,0,0,0,13,4Z" fill="#002350"/><ellipse cx="15.97" cy="7.38" rx="2.64" ry="2.62" fill="#ead928"/><path d="M16,10.05a2.67,2.67,0,1,1,2.68-2.67A2.68,2.68,0,0,1,16,10.05ZM16,4.8a2.58,2.58,0,1,0,2.59,2.58A2.59,2.59,0,0,0,16,4.8Z" fill="#b96c38"/><polygon points="16.9 5.62 15.54 6.78 16.06 6.78 15.02 7.83 15.63 7.83 14.86 8.9 16.76 7.4 16.09 7.4 17.1 6.38 16.44 6.38 16.9 5.62" fill="#b96c38"/><path d="M14.54,9.23l1-1.34h-.64l1-1h-.54l1.79-1.52-.61,1h.7l-1,1h.7Zm.63-1.46h.59l-.59.8,1.41-1.11H16l1-1h-.62l.32-.53-.94.81h.5Z" fill="#b96c38"/><ellipse cx="11.37" cy="10.9" rx="2.64" ry="2.62" fill="#bd172c"/><path d="M11.37,13.57a2.67,2.67,0,1,1,2.68-2.67A2.69,2.69,0,0,1,11.37,13.57Zm0-5.25A2.58,2.58,0,1,0,14,10.9,2.59,2.59,0,0,0,11.37,8.32Z" fill="#621520"/><path d="M12.83,10.93a1.19,1.19,0,0,0-.11-.28c-.12-.2-.23-.24-.29-.37a.6.6,0,0,1,0-.52.3.3,0,0,0-.27,0A.33.33,0,0,0,12,10c0,.16,0,.19,0,.36a.5.5,0,0,1-.15.35.29.29,0,0,1-.3,0,.32.32,0,0,1-.13-.25c0-.31.3-.41.33-.74a.78.78,0,0,0-.15-.45,1.31,1.31,0,0,0-.54-.53,1.11,1.11,0,0,1,0,.66,1.24,1.24,0,0,1-.26.45c-.19.22-.29.21-.51.4a1.35,1.35,0,0,0-.51.74,1.16,1.16,0,0,0,.08.75,1.39,1.39,0,0,0,.6.66l.29.11a1.06,1.06,0,0,1-.43-.66,1.19,1.19,0,0,1,.13-.79,1.22,1.22,0,0,1,.39-.4.8.8,0,0,0-.18.55c0,.05,0,.29.15.33s.13,0,.21-.07a.75.75,0,0,1,.75.09.65.65,0,0,1,.14.66.69.69,0,0,1-.27.34,1.39,1.39,0,0,0,.66-.36A1.47,1.47,0,0,0,12.83,10.93Z" fill="#621520"/></svg>