<svg id="Warstwa_1" data-name="Warstwa 1" xmlns="http://www.w3.org/2000/svg" viewBox="0 0 26.94 17.62"><title>File lock</title><path d="M2.93,2.17V16.92a.57.57,0,0,0,.57.58H19.18a.58.58,0,0,0,.58-.58V8.7a.58.58,0,0,0-.6-.58c-1.61.06-6,.21-6.23,0s-2.83-5-3.51-6.21a.56.56,0,0,0-.51-.3H3.5A.57.57,0,0,0,2.93,2.17Z" fill="#d3d0cd" stroke="#615d5c" stroke-miterlimit="10" stroke-width="0.25"/><rect x="4.54" y="3.35" width="15.76" height="9.53" rx="0.56" ry="0.56" transform="translate(-2.41 7.76) rotate(-31.78)" fill="#454140" stroke="#3c3c3b" stroke-miterlimit="10" stroke-width="0.25"/><rect x="7.91" y="4.84" width="15.76" height="9.53" rx="0.56" ry="0.56" transform="translate(-2 4.6) rotate(-15.6)" fill="#615d5c" stroke="#3c3c3b" stroke-miterlimit="10" stroke-width="0.25"/><path d="M3,16.7,8.11,6.14a.56.56,0,0,1,.5-.31H24.8a.55.55,0,0,1,.49.79L20.16,17.18a.55.55,0,0,1-.49.32H3.48A.56.56,0,0,1,3,16.7Z" fill="#fdfdfd" stroke="#615d5c" stroke-miterlimit="10" stroke-width="0.25"/><polygon points="26.94 14.33 16.07 9.8 26.94 5.27 26.94 3.11 13.47 8.72 0 3.11 0 5.27 10.87 9.8 0 14.33 0 16.5 13.47 10.89 26.94 16.5 26.94 14.33" fill="#be0027"/></svg>