<svg id="Warstwa_1" data-name="Warstwa 1" xmlns="http://www.w3.org/2000/svg" viewBox="0 0 22.71 20"><title>File limit</title><path d="M.85,19.5a.35.35,0,0,1-.35-.35V.85A.35.35,0,0,1,.85.5l6.56,0a.33.33,0,0,1,.25.1L9.27,2.21a1.32,1.32,0,0,0,.94.38H21.86a.35.35,0,0,1,.35.35V19.15a.35.35,0,0,1-.35.35Z" fill="#d8c8a8"/><path d="M1,1,7.35,1,8.92,2.56a1.77,1.77,0,0,0,1.29.53h11.5V19H1V1M.85,0A.85.85,0,0,0,0,.85v18.3A.85.85,0,0,0,.85,20h21a.85.85,0,0,0,.85-.85V2.94a.85.85,0,0,0-.85-.85H10.21a.82.82,0,0,1-.59-.24L8,.26A.87.87,0,0,0,7.41,0L.85,0Z" fill="#af9264"/></svg>