<svg id="Warstwa_1" data-name="Warstwa 1" xmlns="http://www.w3.org/2000/svg" viewBox="0 0 26.58 24.45"><title>Pick (any)</title><path d="M26.34,4.38l-5.09-3a.24.24,0,0,0-.32.1L19.75,3.82l-5.45-.6a1,1,0,0,1-.23-.05L6.35.14A.23.23,0,0,0,6,.36v.5a2.3,2.3,0,0,0,1.25,2L9.63,4.09l-.37.58L2.12,4.15a.25.25,0,0,0-.27.24v.39a1.94,1.94,0,0,0,1.85,2l3.18.13.18.65L.23,11.72a.23.23,0,0,0-.05.34l.36.41a2,2,0,0,0,2.65.34L7.93,9.64a.46.46,0,0,1,.64.15l.29.49a.44.44,0,0,1,0,.51l-1,1.26a.92.92,0,0,0-.17.73l1.14,5.14a.22.22,0,0,0,.33.14l.23-.14a2.9,2.9,0,0,0,1.24-3.37l-.1-.3a.88.88,0,0,1,.15-.81l2.24-2.89a.88.88,0,0,1,.57-.33l.54-.08a.9.9,0,0,1,.82.33L17,13.24a.86.86,0,0,1,.15.8l-.75,2.48-1.09.85a2.72,2.72,0,0,0-1,2.22l0,.87a.24.24,0,0,0,.36.2l4.76-2.83a1,1,0,0,0,.37-.43l2.33-5.77L26.42,4.7A.23.23,0,0,0,26.34,4.38Z" fill="#f5f5f5" stroke="#747471" stroke-miterlimit="10" stroke-width="0.25"/><circle cx="14.26" cy="18.11" r="6.2" fill="#fff"/><path d="M14.26,24.45a6.35,6.35,0,1,1,6.35-6.34A6.35,6.35,0,0,1,14.26,24.45Zm0-12.39a6,6,0,1,0,6,6A6.06,6.06,0,0,0,14.26,12.06Z"/><polygon points="17.62 14.22 15.71 14.22 14.26 16.46 12.81 14.22 10.9 14.22 13.28 18.07 10.9 21.99 12.81 21.99 14.26 19.42 15.71 21.99 17.62 21.99 15.25 18.07 17.62 14.22"/><path d="M8.89,10.69a.27.27,0,0,1-.06.1l-1,1.26a.92.92,0,0,0-.17.73l1.14,5.14a.22.22,0,0,0,.33.14l.23-.14a2.9,2.9,0,0,0,1.24-3.37l-.1-.3a.88.88,0,0,1,.15-.81l.91-1.18" fill="#f5f5f5" stroke="#747471" stroke-miterlimit="10" stroke-width="0.25"/></svg>