<svg id="Warstwa_1" data-name="Warstwa 1" xmlns="http://www.w3.org/2000/svg" viewBox="0 0 26.51 23.06"><title>Research limit</title><path d="M2.58,22.81a2.33,2.33,0,0,1-1.41-4.19l6.39-4.74,0-.09a9.75,9.75,0,1,1,9,6,9.68,9.68,0,0,1-6.05-2.11l-.07-.06L4,22.34A2.36,2.36,0,0,1,2.58,22.81ZM16.51,1.63A8.38,8.38,0,1,0,24.88,10,8.38,8.38,0,0,0,16.51,1.63Z" fill="#7cc3bd"/><path d="M16.51.38a9.63,9.63,0,1,1-6,17.16l-.15-.12-.15.12L3.9,22.24a2.16,2.16,0,0,1-1.32.44,2.23,2.23,0,0,1-1.76-.87,2.2,2.2,0,0,1,.43-3.09L7.56,14l.15-.12-.07-.18A9.61,9.61,0,0,1,16.51.38m0,18.12A8.5,8.5,0,1,0,8,10a8.51,8.51,0,0,0,8.5,8.5m0-18.37a9.87,9.87,0,0,0-9.1,13.71L1.1,18.52A2.46,2.46,0,0,0,.62,22h0a2.46,2.46,0,0,0,3.43.48l6.34-4.7A9.87,9.87,0,1,0,16.51.13Zm0,18.12A8.25,8.25,0,1,1,24.76,10a8.25,8.25,0,0,1-8.25,8.25Z" fill="#619994"/><circle cx="16.51" cy="10" r="7.75" fill="#d6e6e7"/><path d="M16.51,2.75A7.25,7.25,0,1,1,9.26,10a7.26,7.26,0,0,1,7.25-7.25m0-1A8.25,8.25,0,1,0,24.76,10a8.25,8.25,0,0,0-8.25-8.25Z" fill="#d6e6e7"/></svg>