<svg id="Warstwa_1" data-name="Warstwa 1" xmlns="http://www.w3.org/2000/svg" viewBox="0 0 26.84 20.77"><title>Store limit</title><circle cx="13.41" cy="9.83" r="9.7" fill="#fff" stroke="#878787" stroke-miterlimit="10" stroke-width="0.25"/><path d="M26.58,18l-3.36,2.59a.33.33,0,0,1-.46,0L19,16.07a.31.31,0,0,1-.08-.24l.42-6.13a.34.34,0,0,1,.33-.31h0a2.06,2.06,0,0,1,2.07,2l0,2.4.72-.5L22.8,9.5a.29.29,0,0,0-.05-.2L19.23,3.71A2,2,0,0,1,19.81,1l.08,0a.32.32,0,0,1,.45.09l5.17,7.42a.34.34,0,0,1,.06.15l1.14,9A.31.31,0,0,1,26.58,18Z" fill="#c8c9c3" stroke="#878787" stroke-miterlimit="10" stroke-width="0.25"/><path d="M.26,18l3.36,2.59a.32.32,0,0,0,.45,0l3.79-4.46a.31.31,0,0,0,.08-.24L7.52,9.7a.34.34,0,0,0-.34-.31h0a2.06,2.06,0,0,0-2.06,2l0,2.4-.72-.5L4,9.5a.29.29,0,0,1,0-.2L7.61,3.71A2,2,0,0,0,7,1L7,1a.34.34,0,0,0-.46.09L1.33,8.51a.34.34,0,0,0-.06.15l-1.14,9A.31.31,0,0,0,.26,18Z" fill="#c8c9c3" stroke="#878787" stroke-miterlimit="10" stroke-width="0.25"/></svg>