<svg id="Warstwa_1" data-name="Warstwa 1" xmlns="http://www.w3.org/2000/svg" viewBox="0 0 23.22 18.41"><title>Build (files)</title><path d="M8.4,8.24v9.67a.37.37,0,0,0,.37.38H19.05a.38.38,0,0,0,.38-.38V12.52a.37.37,0,0,0-.39-.37,27.92,27.92,0,0,1-4.09,0c-.17-.16-1.85-3.25-2.3-4.07a.36.36,0,0,0-.33-.19H8.77A.37.37,0,0,0,8.4,8.24Z" fill="#d3d0cd" stroke="#615d5c" stroke-miterlimit="10" stroke-width="0.25"/><rect x="9.71" y="9.02" width="10.33" height="6.25" rx="0.56" ry="0.56" transform="translate(-4.17 9.66) rotate(-31.78)" fill="#fffbf8" stroke="#615d5c" stroke-miterlimit="10" stroke-width="0.25"/><rect x="11.92" y="10" width="10.33" height="6.25" rx="0.56" ry="0.56" transform="translate(-2.9 5.08) rotate(-15.6)" fill="#fffbf8" stroke="#615d5c" stroke-miterlimit="10" stroke-width="0.25"/><path d="M8.43,17.77l3.36-6.92a.36.36,0,0,1,.33-.21H22.73a.36.36,0,0,1,.32.52l-3.36,6.93a.37.37,0,0,1-.32.2H8.76A.37.37,0,0,1,8.43,17.77Z" fill="#d3d0cd" stroke="#615d5c" stroke-miterlimit="10" stroke-width="0.25"/><path d="M12.21,5l-1-1a.3.3,0,0,1,0-.43L14.12.75A4.21,4.21,0,0,0,7.86,3.2a4.14,4.14,0,0,0-.07,2L5.17,7.79a4.14,4.14,0,0,0-2,.07A4.21,4.21,0,0,0,.75,14.12l2.86-2.86a.3.3,0,0,1,.43,0l1,1a.31.31,0,0,1,0,.44L2.14,15.5A4.21,4.21,0,0,0,8.4,13.05a4.23,4.23,0,0,0,.07-2l2.62-2.62A4.2,4.2,0,0,0,16,5.19a4.17,4.17,0,0,0-.54-3.05L12.65,5A.31.31,0,0,1,12.21,5Z" fill="#f5f4f3" stroke="#342f22" stroke-miterlimit="10" stroke-width="0.25"/><path d="M12.21,5l-1-1a.3.3,0,0,1,0-.43L14.12.75A4.21,4.21,0,0,0,7.86,3.2a4.14,4.14,0,0,0-.07,2L5.17,7.79a4.14,4.14,0,0,0-2,.07A4.21,4.21,0,0,0,.75,14.12l2.86-2.86a.3.3,0,0,1,.43,0l1,1a.31.31,0,0,1,0,.44L2.14,15.5A4.21,4.21,0,0,0,8.4,13.05a4.23,4.23,0,0,0,.07-2l2.62-2.62A4.2,4.2,0,0,0,16,5.19a4.17,4.17,0,0,0-.54-3.05L12.65,5A.31.31,0,0,1,12.21,5Z" fill="#f5f4f3" stroke="#342f22" stroke-miterlimit="10" stroke-width="0.25"/></svg>