<svg id="Warstwa_1" data-name="Warstwa 1" xmlns="http://www.w3.org/2000/svg" viewBox="0 0 40 40"><title>Przycisk-folder</title><path d="M20,1A19,19,0,1,1,1,20,19,19,0,0,1,20,1m0-1A20,20,0,1,0,40,20,20,20,0,0,0,20,0Z" style="fill:#fff"/><path d="M10.86,28.19a1.14,1.14,0,0,1-1.13-1.13V12.94a1.14,1.14,0,0,1,1.13-1.13l3.78,0a1.13,1.13,0,0,1,.79.33L17.22,14a1.86,1.86,0,0,0,1.33.55h8.12a1.13,1.13,0,0,1,.79.33l.66.65a1.88,1.88,0,0,0,1.32.55h2.71a1.13,1.13,0,0,1,1,1.66L28,27.58a1.12,1.12,0,0,1-1,.61Z" style="fill:#fff"/><path d="M10.86,11.44v.75h3.76a.75.75,0,0,1,.53.22l1.8,1.8a2.25,2.25,0,0,0,1.59.66h8.12a.71.71,0,0,1,.53.22l.65.65a2.23,2.23,0,0,0,1.6.66h2.7a.75.75,0,0,1,.65.36.75.75,0,0,1,0,.74l-5.19,9.9a.75.75,0,0,1-.67.4H10.86a.75.75,0,0,1-.75-.75V12.94a.75.75,0,0,1,.75-.75v-.75m0,0a1.5,1.5,0,0,0-1.5,1.5V27.06a1.5,1.5,0,0,0,1.5,1.5H27a1.51,1.51,0,0,0,1.33-.8l5.19-9.9a1.5,1.5,0,0,0-1.33-2.2h-2.7a1.52,1.52,0,0,1-1.07-.44l-.65-.65a1.47,1.47,0,0,0-1.06-.44H18.55a1.5,1.5,0,0,1-1.06-.44l-1.8-1.8a1.49,1.49,0,0,0-1-.44H10.86Z" style="fill:#fff"/></svg>