<svg id="Warstwa_1" data-name="Warstwa 1" xmlns="http://www.w3.org/2000/svg" viewBox="0 0 136.63 136.63"><title>Card-back (green)</title><path d="M127.44,0H9.19A9.22,9.22,0,0,0,0,9.19V127.43a9.22,9.22,0,0,0,9.19,9.19H127.44a9.22,9.22,0,0,0,9.19-9.19V9.19A9.22,9.22,0,0,0,127.44,0Zm-2.26,69V118.2h-6.05v5.54H17.5V118.2H11.45V18.42H17.5V12.88H119.13v5.54h6.05V69Z" style="fill:#8ba300"/><polygon points="17.7 123.56 17.7 118 11.64 118 11.64 18.62 17.7 18.62 17.7 13.06 118.94 13.06 118.94 18.62 125 18.62 125 118 118.94 118 118.94 123.56 17.7 123.56" style="fill:#cecccb"/><path d="M118.56,13.43V19h6.07v98.63h-6.07v5.56H18.08v-5.56H12V19h6.07V13.43H118.56m.75-.75h-102v5.56H11.26V118.37h6.07v5.56h102v-5.56h6.07V18.24h-6.07V12.68Z" style="fill:#747471"/><path d="M66.71,39.18v9.56H62.12V84.46h4.59V94H45.18V84.46h4.59V48.74H45.18V39.18Z"/><path d="M91.53,39.18v9.56H86.94V84.46h4.59V94H70V84.46h4.59V48.74H70V39.18Z"/><path d="M60.9,116.83a8.25,8.25,0,1,1,0-16.5H75.73a8.25,8.25,0,0,1,0,16.5Z" style="fill:#e4d6a0"/><path d="M75.73,100.58a8,8,0,0,1,0,16H60.9a8,8,0,1,1,0-16H75.73m0-.5H60.9a8.5,8.5,0,1,0,0,17H75.73a8.5,8.5,0,0,0,0-17Z" style="fill:#82827f"/><path d="M60.39,112h4.46v1.92h-7v-.79a3.71,3.71,0,0,1,.27-1.45,4.85,4.85,0,0,1,.68-1.15,5.47,5.47,0,0,1,.9-.9c.32-.26.63-.5.93-.71s.57-.43.81-.63a4.61,4.61,0,0,0,.58-.6,2.08,2.08,0,0,0,.36-.6,2,2,0,0,0,.11-.65,1.28,1.28,0,0,0-.38-1,1.68,1.68,0,0,0-1.16-.35,3.92,3.92,0,0,0-2.6,1.08v-2a5.62,5.62,0,0,1,3.1-.89,4.53,4.53,0,0,1,1.43.21A3,3,0,0,1,64,104a2.42,2.42,0,0,1,.67.94,3.08,3.08,0,0,1,.23,1.24,3.49,3.49,0,0,1-.22,1.29,4.12,4.12,0,0,1-.59,1,5.33,5.33,0,0,1-.86.85c-.32.26-.65.5-1,.74l-.68.5a4.79,4.79,0,0,0-.57.48,2.71,2.71,0,0,0-.4.47A.77.77,0,0,0,60.39,112Z"/><path d="M70.64,109.71h-4V108.1h4Z"/><path d="M72.51,113.56v-2a4.07,4.07,0,0,0,2.46.77,2.24,2.24,0,0,0,1.38-.38,1.28,1.28,0,0,0,.5-1.06,1.23,1.23,0,0,0-.62-1.09,3.17,3.17,0,0,0-1.68-.38h-1v-1.77h.9c1.37,0,2-.46,2-1.37S76,105,75,105a3.64,3.64,0,0,0-2,.68v-1.89a5.7,5.7,0,0,1,2.58-.56A3.91,3.91,0,0,1,78,104a2.3,2.3,0,0,1,.9,1.88,2.44,2.44,0,0,1-2.09,2.58v0a2.82,2.82,0,0,1,1.76.81,2.3,2.3,0,0,1,.65,1.64,2.84,2.84,0,0,1-1.08,2.34,4.68,4.68,0,0,1-3,.85A5.64,5.64,0,0,1,72.51,113.56Z"/></svg>