<svg id="Warstwa_1" data-name="Warstwa 1"
 xmlns="http://www.w3.org/2000/svg"
  xmlns:xlink="http://www.w3.org/1999/xlink" 
  viewBox="0 0 136.63 136.63">
    <defs>
        <clipPath id="clip-path">
            <path class="cls-1" d="M128.25,120.9h-6.37v5.84H28.67c.28-.55,4.43-9,0-15.75a13,13,0,0,0-4.75-4.25c3.32-5.67,2.4-12.65-1.88-16.66-5.11-4.8-12.32-2.86-12.67-2.76V67.63H0v59.8a9.22,9.22,0,0,0,9.19,9.19H127.44a9.22,9.22,0,0,0,9.19-9.19V67.64h-8.38Z"/>
        </clipPath>
        <clipPath id="clip-path-2">
            <path class="cls-1" d="M89.91,154.6a77.66,77.66,0,0,0-51.2,136.07l.31.27a3.09,3.09,0,0,0,3.9-4.79h0a73.37,73.37,0,0,1-21.45-33.2,85.72,85.72,0,0,1-3-20.66,71.49,71.49,0,1,1,143,0,86.07,86.07,0,0,1-3,20.67,73.51,73.51,0,0,1-21.69,33.4h0a3.09,3.09,0,0,0,3.88,4.81l.31-.28A77.65,77.65,0,0,0,89.91,154.6Z"/>
        </clipPath>
        <style>
            .cls-1{fill:none}.cls-9{fill:#191a1a}.cls-10{fill:#5b6aab}.cls-11{fill:#e1a72e}.cls-12{fill:#d8cdab}
        </style>
    </defs>
    <title>
        Card (brown-color)
    </title>
    <path d="M9.19,0H127.43a9.19,9.19,0,0,1,9.19,9.19V127.44a9.19,9.19,0,0,1-9.19,9.19H9.19A9.19,9.19,0,0,1,0,127.44V9.19A9.19,9.19,0,0,1,9.19,0" style="fill:#b7a770"/>
    <path d="M12.75,36.25h112V118.5h-6V124l-86.66.66c.38-1.32,2.82-10.41-2.39-16.15a12,12,0,0,0-2.78-2.24c3-6.65,1.72-14.09-3-18.27-4.39-3.91-10-3.46-11.21-3.34Z" style="fill:#fff"/>
    <path d="M17.25,109a9.5,9.5,0,1,1-9.5,9.5,9.5,9.5,0,0,1,9.5-9.5" style="fill:#e4d6a0"/>
    <path d="M15,91.58a7.25,7.25,0,1,1-7.25,7.25A7.26,7.26,0,0,1,15,91.58" style="fill:#d92730"/>
    <polygon points="12.75 32.5 68.75 32.5 74.25 20.5 59.5 5.75 12.75 5.75 12.75 32.5" style="stroke-miterlimit:10;fill:#8b7e54;stroke:#736845;stroke-width:.75px"/>
    <g style="clip-path:url(#clip-path)">
        <path d="M128.25,120.9h-6.37v5.84H28.67c.28-.55,4.43-9,0-15.75a13,13,0,0,0-4.75-4.25c3.32-5.67,2.4-12.65-1.88-16.66-5.11-4.8-12.32-2.86-12.67-2.76V67.63H0v59.8a9.22,9.22,0,0,0,9.19,9.19H127.44a9.22,9.22,0,0,0,9.19-9.19V67.64h-8.38Z" style="fill:#bd1f23"/>
        <path class="cls-9" d="M61.49,112.34q-8.48,21-16.94,42.1L81.23,159l-9.39-48.13Z"/>
        <path class="cls-10" d="M48.87,108.73,6,147.37,36.1,166l35-64.38Z"/>
        <path class="cls-11" d="M39.33,100.15l-57.49,21.67C-11,133-6.8,144.73.36,155.89l50.38-50Z"/>
        <path class="cls-10" d="M97.68,116.21l55.84,29.52,9.87-52-56.81,6Z"/>
        <path class="cls-11" d="M82,112.92l32.62,35.61,37.64-2.61-48-32.8Z"/>
        <path class="cls-9" d="M95.16,101.31l71.42-5.61-1.74-31.65-55,4.65Q102.52,85,95.16,101.31Z"/>
    </g>
    <path class="cls-12" d="M31.5,8a17.88,17.88,0,0,0-1.89-8H9.19A9.2,9.2,0,0,0,0,9.19V26.93a26.17,26.17,0,0,0,8.25,1.32C21.09,28.25,31.5,19.18,31.5,8Z"/>
    <path class="cls-12" d="M132.5,29.25a26.54,26.54,0,0,0,4.12-.32V9.19A9.19,9.19,0,0,0,127.43,0H111.67a18,18,0,0,0-2.42,9C109.25,20.18,119.66,29.25,132.5,29.25Z"/>
    
</svg>
