<svg id="Warstwa_1" data-name="Warstwa 1" xmlns="http://www.w3.org/2000/svg" viewBox="0 0 22.67 17.62"><title>Files (good one)</title><path d="M.13,2.17V16.92a.57.57,0,0,0,.57.58H16.38a.58.58,0,0,0,.58-.58V8.7a.58.58,0,0,0-.6-.58c-1.62.06-6,.21-6.23,0s-2.83-5-3.51-6.21a.56.56,0,0,0-.51-.3H.7A.57.57,0,0,0,.13,2.17Z" fill="#d3d0cd" stroke="#615d5c" stroke-miterlimit="10" stroke-width="0.25"/><rect x="1.74" y="3.35" width="15.76" height="9.53" rx="0.56" ry="0.56" transform="translate(-2.83 6.28) rotate(-31.78)" fill="#fffbf8" stroke="#615d5c" stroke-miterlimit="10" stroke-width="0.25"/><rect x="5.11" y="4.84" width="15.76" height="9.53" rx="0.56" ry="0.56" transform="translate(-2.11 3.85) rotate(-15.6)" fill="#fffbf8" stroke="#615d5c" stroke-miterlimit="10" stroke-width="0.25"/><path d="M.18,16.7,5.31,6.14a.56.56,0,0,1,.5-.31H22a.55.55,0,0,1,.5.79L17.36,17.18a.55.55,0,0,1-.49.32H.68A.56.56,0,0,1,.18,16.7Z" fill="#d3d0cd" stroke="#615d5c" stroke-miterlimit="10" stroke-width="0.25"/></svg>