<svg id="Warstwa_1" data-name="Warstwa 1" xmlns="http://www.w3.org/2000/svg" viewBox="0 0 32.31 32.21"><title>Dłoń (pusty)</title><path d="M17.75,23.88a3,3,0,0,1,1.14-2.42l1.43-1.12,1-3.16A1.46,1.46,0,0,0,21,15.86l-2.68-3.4a1.47,1.47,0,0,0-1.15-.55H17l-.66.1a1.49,1.49,0,0,0-.94.54L12.64,16.1a1.46,1.46,0,0,0-.24,1.35l.12.36a3.17,3.17,0,0,1-1.36,3.7l-.16.1L9.64,15.45a.73.73,0,0,1,.13-.59L11,13.32A.92.92,0,0,0,11,12.27l-.36-.61a.93.93,0,0,0-.8-.45.86.86,0,0,0-.51.16L3.55,15.26A2.13,2.13,0,0,1,.79,14.9l-.36-.41L9,9.24,8.58,7.9,4.4,7.73a2,2,0,0,1-1.91-2V5.31L11.4,6l.81-1.25L9,3.07A2.43,2.43,0,0,1,7.62.9V.41L17,4.08a1.18,1.18,0,0,0,.37.09l7,.77,1.53-3.06L31.9,5.5l-5.22,8.42-2.89,7.14a.71.71,0,0,1-.3.34l-5.72,3.4Z" fill="#1d1d1b"/><path d="M8,1l8.84,3.46a1.91,1.91,0,0,0,.47.12L24,5.28l.52.06.23-.47L26,2.42l5.4,3.2-5,8.1,0,.06,0,.06-2.86,7.08a.43.43,0,0,1-.14.16l-5.17,3.07v-.28a2.58,2.58,0,0,1,1-2.11l1.34-1.05.19-.15.07-.22.92-3.05a1.84,1.84,0,0,0-.32-1.66l-2.68-3.4a1.83,1.83,0,0,0-1.44-.7l-.26,0-.66.1a1.83,1.83,0,0,0-1.18.68l-2.76,3.54a1.83,1.83,0,0,0-.29,1.69l.12.37A2.8,2.8,0,0,1,11.25,21L10,15.37a.35.35,0,0,1,.06-.28l1.2-1.54a1.3,1.3,0,0,0,.09-1.48l-.36-.6a1.3,1.3,0,0,0-1.12-.63,1.22,1.22,0,0,0-.72.22L3.34,15a1.74,1.74,0,0,1-2.27-.3L1,14.57,8.9,9.7l.48-.29-.15-.54L9,8.07l-.14-.53-.55,0L4.41,7.35A1.61,1.61,0,0,1,2.87,5.72h0l8.28.61.45,0L11.84,6l.46-.7.45-.7L12,4.2,9.12,2.73A2.05,2.05,0,0,1,8,1M7.53,0a.28.28,0,0,0-.28.28V.9A2.81,2.81,0,0,0,8.78,3.4l2.89,1.47-.46.71L2.45,4.93h0a.31.31,0,0,0-.3.3v.48A2.36,2.36,0,0,0,4.38,8.1l3.91.16.22.8L.13,14.23a.28.28,0,0,0-.06.42l.44.5A2.49,2.49,0,0,0,2.38,16a2.53,2.53,0,0,0,1.38-.42l5.81-3.89a.61.61,0,0,1,.31-.09.54.54,0,0,1,.48.27l.36.6a.56.56,0,0,1,0,.63l-1.2,1.54a1.08,1.08,0,0,0-.2.9l1.39,6.3a.27.27,0,0,0,.26.21.23.23,0,0,0,.14,0l.28-.17a3.55,3.55,0,0,0,1.53-4.13l-.12-.37a1.07,1.07,0,0,1,.18-1l2.75-3.54a1.07,1.07,0,0,1,.7-.4l.66-.1h.15a1.08,1.08,0,0,1,.85.41l2.68,3.4a1.1,1.1,0,0,1,.19,1l-.92,3-1.34,1a3.34,3.34,0,0,0-1.28,2.73l0,1.06a.31.31,0,0,0,.3.29.3.3,0,0,0,.15,0l5.84-3.47a1.09,1.09,0,0,0,.45-.52L27,14.12l5.27-8.51a.29.29,0,0,0-.1-.39l-6.25-3.7a.23.23,0,0,0-.14,0,.28.28,0,0,0-.25.16l-1.45,2.9L17.39,3.8a.83.83,0,0,1-.27-.07L7.63,0l-.1,0Z" fill="#1d1d1b"/></svg>