<svg id="Warstwa_1" data-name="Warstwa 1" xmlns="http://www.w3.org/2000/svg" viewBox="0 0 26.94 21.08"><title>Research lock</title><path d="M16.27.25a7.06,7.06,0,0,0-5.54,11.43l-5.4,6.43a1.65,1.65,0,1,0,2.53,2.13l5.47-6.51A7.06,7.06,0,1,0,16.27.25Zm0,11.83A4.77,4.77,0,1,1,21,7.31,4.77,4.77,0,0,1,16.27,12.08Z" fill="#f2f0ee" stroke="#4f4c43" stroke-miterlimit="10" stroke-width="0.5"/><circle cx="16.27" cy="7.31" r="4.77" transform="translate(-0.41 13.65) rotate(-45)" fill="#d3cfcc" stroke="#4f4c43" stroke-miterlimit="10" stroke-width="0.5"/><polygon points="26.94 15.07 16.07 10.54 26.94 6.01 26.94 3.85 13.47 9.46 0 3.85 0 6.01 10.87 10.54 0 15.07 0 17.24 13.47 11.63 26.94 17.24 26.94 15.07" fill="#be0027"/></svg>